SplineFontDB: 1.0
FontName: Lohit-Punjabi
FullName: Lohit Punjabi
FamilyName: Lohit Punjabi
Weight: Book
Copyright: Copyright (c) 2003, Automatic Control Equipments, Pune, INDIA. - under General Public License
Version: 1.00
ItalicAngle: 0
UnderlinePosition: -399
UnderlineWidth: 26
Ascent: 819
Descent: 205
Order2: 1
XUID: [1021 648 100124046 4656792]
FSType: 0
OS2Version: 1
OS2_WeightWidthSlopeOnly: 0
OS2_UseTypoMetrics: 1
CreationTime: 1159495707
ModificationTime: 1164016799
PfmFamily: 17
TTFWeight: 400
TTFWidth: 5
LineGap: 266
VLineGap: 0
Panose: 2 0 6 0 0 0 0 0 0 0
OS2TypoAscent: 180
OS2TypoAOffset: 1
OS2TypoDescent: -160
OS2TypoDOffset: 1
OS2TypoLinegap: 0
OS2WinAscent: 0
OS2WinAOffset: 1
OS2WinDescent: 0
OS2WinDOffset: 1
HheadAscent: 0
HheadAOffset: 1
HheadDescent: 0
HheadDOffset: 1
OS2SubXSize: 1212
OS2SubYSize: 1125
OS2SubXOff: 0
OS2SubYOff: 346
OS2SupXSize: 1212
OS2SupYSize: 1125
OS2SupXOff: 0
OS2SupYOff: 866
OS2StrikeYSize: 87
OS2StrikeYPos: 433
OS2Vendor: 'ACE '
ScriptLang: 2
 1 guru 1 dflt 
 0 
ChainSub: coverage 0 0 'psts' 0 0 0 1
 1 1 0
  Coverage: 5 u0A70
  BCoverage: 5 u0A4C
 1
  SeqLookup: 0 'L000'
EndFPST
ChainSub: coverage 0 0 'psts' 0 0 0 1
 1 1 0
  Coverage: 5 u0A70
  BCoverage: 5 u0A4B
 1
  SeqLookup: 0 'L000'
EndFPST
ChainSub: coverage 0 0 'psts' 0 0 0 1
 1 1 0
  Coverage: 5 u0A70
  BCoverage: 5 u0A48
 1
  SeqLookup: 0 'L000'
EndFPST
ChainSub: coverage 0 0 'psts' 0 0 0 1
 1 1 0
  Coverage: 5 u0A70
  BCoverage: 5 u0A47
 1
  SeqLookup: 0 'L000'
EndFPST
GenTags: 1 sb'L000'
TableOrder: GPOS 1
	'abvm'
TableOrder: GSUB 5
	'abvs'
	'blwf'
	'nukt'
	'psts'
	'vatu'
TtfTable: prep 11
5QX@TNOT#hKm":5
EndTtf
TtfTable: fpgm 100
5Qq;o!s/HRG"!OX"!pA\@;$K&BOF4[/4C\c"!pA\@;$m!?plRt+<\2o^c2t35QNc&/M&"eYWt/\
YQ6Yls1gTG/-2tEFs':g(aDLYBHUD"YQH0r33WH1'!MBpAN3gE
EndTtf
TtfTable: cvt  596
z!&=Vgs3:UTs24n6![[n]!V6;_!E&nM!/LV/s8N,n!b22&!<3$R!SdY(!+l3a!*TF&s4@>J
!%7iqs7QLJ!C-Z0!ZV0js5sA5!LEd:!D`\O!0dPBs(VUcs1/6J!:^#cs,mAr!WW2Ys7lX6!JUSD

StartChar: .notdef
Encoding: 65536 -1 0
Width: 1065
GlyphClass: 2
Flags: W
Fore
133 932 m 1,0,-1
 932 932 l 1,1,-1
 932 0 l 1,2,-1
 133 0 l 1,3,-1
 133 932 l 1,0,-1
866 67 m 1,4,-1
 866 866 l 1,5,-1
 200 866 l 1,6,-1
 200 67 l 1,7,-1
 866 67 l 1,4,-1
EndSplineSet
EndChar
StartChar: exclam
Encoding: 33 33 4
Width: 450
GlyphClass: 2
Flags: W
Fore
156 35 m 1,0,-1
 294 35 l 1,1,-1
 294 -104 l 1,2,-1
 156 -104 l 1,3,-1
 156 35 l 1,0,-1
182 952 m 1,4,-1
 269 952 l 1,5,-1
 269 173 l 1,6,-1
 182 173 l 1,7,-1
 182 952 l 1,4,-1
EndSplineSet
EndChar
StartChar: quotedbl
Encoding: 34 34 5
Width: 649
GlyphClass: 2
Flags: W
Fore
206 864 m 1,0,-1
 156 1137 l 1,1,-1
 260 1137 l 1,2,-1
 270 864 l 1,3,-1
 206 864 l 1,0,-1
431 864 m 1,4,-1
 381 1137 l 1,5,-1
 485 1137 l 1,6,-1
 495 864 l 1,7,-1
 431 864 l 1,4,-1
EndSplineSet
EndChar
StartChar: numbersign
Encoding: 35 35 6
Width: 1266
GlyphClass: 2
Flags: W
Fore
242 664 m 1,0,-1
 494 664 l 1,1,-1
 558 870 l 1,2,-1
 638 870 l 1,3,-1
 573 664 l 1,4,-1
 840 664 l 1,5,-1
 904 870 l 1,6,-1
 985 870 l 1,7,-1
 921 664 l 1,8,-1
 1112 664 l 1,9,-1
 1112 586 l 1,10,-1
 894 586 l 1,11,-1
 807 318 l 1,12,-1
 1025 318 l 1,13,-1
 1025 236 l 1,14,-1
 780 236 l 1,15,-1
 707 -1 l 1,16,-1
 625 -1 l 1,17,-1
 702 236 l 1,18,-1
 434 236 l 1,19,-1
 358 -1 l 1,20,-1
 278 -1 l 1,21,-1
 356 236 l 1,22,-1
 156 236 l 1,23,-1
 156 318 l 1,24,-1
 380 318 l 1,25,-1
 466 586 l 1,26,-1
 242 586 l 1,27,-1
 242 664 l 1,0,-1
547 586 m 1,28,-1
 459 318 l 1,29,-1
 727 318 l 1,30,-1
 814 586 l 1,31,-1
 547 586 l 1,28,-1
EndSplineSet
EndChar
StartChar: dollar
Encoding: 36 36 7
Width: 977
GlyphClass: 2
Flags: W
Fore
236 258 m 1,0,1
 236 180 236 180 294 116 c 128,-1,2
 352 52 352 52 442 29 c 1,3,-1
 442 409 l 1,4,5
 329 421 329 421 253 493.5 c 128,-1,6
 177 566 177 566 177 662 c 0,7,8
 177 754 177 754 252.5 824 c 128,-1,9
 328 894 328 894 442 907 c 1,10,-1
 442 1056 l 1,11,-1
 526 1056 l 1,12,-1
 526 907 l 1,13,14
 642 894 642 894 719 818 c 128,-1,15
 796 742 796 742 796 640 c 1,16,-1
 714 640 l 1,17,18
 714 711 714 711 660 765 c 128,-1,19
 606 819 606 819 526 831 c 1,20,-1
 526 471 l 1,21,22
 655 454 655 454 739 381 c 128,-1,23
 823 308 823 308 823 218 c 0,24,25
 823 117 823 117 737.5 42 c 128,-1,26
 652 -33 652 -33 526 -47 c 1,27,-1
 526 -166 l 1,28,-1
 442 -166 l 1,29,-1
 442 -47 l 1,30,31
 318 -29 318 -29 237 57.5 c 128,-1,32
 156 144 156 144 156 258 c 1,33,-1
 236 258 l 1,0,1
683.5 94 m 128,-1,35
 746 148 746 148 746 218 c 128,-1,36
 746 288 746 288 683.5 339 c 128,-1,37
 621 390 621 390 526 397 c 1,38,-1
 526 29 l 1,39,34
 621 40 621 40 683.5 94 c 128,-1,35
310 767.5 m 128,-1,41
 258 720 258 720 258 662 c 0,42,43
 258 598 258 598 310 546.5 c 128,-1,44
 362 495 362 495 442 483 c 1,45,-1
 442 831 l 1,46,40
 362 815 362 815 310 767.5 c 128,-1,41
EndSplineSet
EndChar
StartChar: percent
Encoding: 37 37 8
Width: 1125
GlyphClass: 2
Flags: W
Fore
216.5 817 m 128,-1,1
 277 883 277 883 364 883 c 0,2,3
 450 883 450 883 510.5 817 c 128,-1,4
 571 751 571 751 571 658 c 256,5,6
 571 565 571 565 510.5 499 c 128,-1,7
 450 433 450 433 364 433 c 0,8,9
 277 433 277 433 216.5 499 c 128,-1,10
 156 565 156 565 156 658 c 256,11,0
 156 751 156 751 216.5 817 c 128,-1,1
265.5 548 m 128,-1,13
 306 502 306 502 364 502 c 0,14,15
 421 502 421 502 461.5 548 c 128,-1,16
 502 594 502 594 502 658 c 256,17,18
 502 722 502 722 461.5 768 c 128,-1,19
 421 814 421 814 364 814 c 0,20,21
 306 814 306 814 265.5 768 c 128,-1,22
 225 722 225 722 225 658 c 256,23,12
 225 594 225 594 265.5 548 c 128,-1,13
843 866 m 1,24,-1
 921 866 l 1,25,-1
 294 0 l 1,26,-1
 217 0 l 1,27,-1
 843 866 l 1,24,-1
614.5 367 m 128,-1,29
 675 433 675 433 762 433 c 0,30,31
 848 433 848 433 908.5 367 c 128,-1,32
 969 301 969 301 969 208 c 256,33,34
 969 115 969 115 908.5 49 c 128,-1,35
 848 -17 848 -17 762 -17 c 0,36,37
 675 -17 675 -17 614.5 49 c 128,-1,38
 554 115 554 115 554 208 c 256,39,28
 554 301 554 301 614.5 367 c 128,-1,29
663.5 98 m 128,-1,41
 704 52 704 52 762 52 c 0,42,43
 819 52 819 52 859.5 98 c 128,-1,44
 900 144 900 144 900 208 c 256,45,46
 900 272 900 272 859.5 318 c 128,-1,47
 819 364 819 364 762 364 c 0,48,49
 704 364 704 364 663.5 318 c 128,-1,50
 623 272 623 272 623 208 c 256,51,40
 623 144 623 144 663.5 98 c 128,-1,41
EndSplineSet
EndChar
StartChar: ampersand
Encoding: 38 38 9
Width: 1041
GlyphClass: 2
Flags: W
Fore
216 353.5 m 128,-1,1
 276 431 276 431 380 491 c 1,2,3
 318 569 318 569 287 635.5 c 128,-1,4
 256 702 256 702 256 751 c 0,5,6
 256 826 256 826 318 879.5 c 128,-1,7
 380 933 380 933 466 933 c 0,8,9
 549 933 549 933 608.5 872.5 c 128,-1,10
 668 812 668 812 668 726 c 0,11,12
 668 658 668 658 621.5 592 c 128,-1,13
 575 526 575 526 494 479 c 1,14,-1
 682 234 l 1,15,16
 692 276 692 276 698 313 c 128,-1,17
 704 350 704 350 704 382 c 1,18,-1
 779 382 l 1,19,20
 779 316 779 316 767.5 261 c 128,-1,21
 756 206 756 206 734 168 c 1,22,-1
 887 -33 l 1,23,-1
 783 -33 l 1,24,-1
 679 91 l 1,25,26
 635 28 635 28 567 -8 c 128,-1,27
 499 -44 499 -44 422 -44 c 0,28,29
 312 -44 312 -44 234 28 c 128,-1,30
 156 100 156 100 156 201 c 0,31,0
 156 276 156 276 216 353.5 c 128,-1,1
299.5 85.5 m 128,-1,33
 357 33 357 33 437 33 c 0,34,35
 494 33 494 33 548.5 66 c 128,-1,36
 603 99 603 99 642 156 c 1,37,-1
 421 431 l 1,38,39
 338 382 338 382 290 324 c 128,-1,40
 242 266 242 266 242 213 c 0,41,32
 242 138 242 138 299.5 85.5 c 128,-1,33
368 653.5 m 128,-1,43
 394 603 394 603 445 538 c 1,44,45
 507 575 507 575 544 625 c 128,-1,46
 581 675 581 675 581 726 c 0,47,48
 581 780 581 780 549.5 820 c 128,-1,49
 518 860 518 860 474 860 c 0,50,51
 421 860 421 860 381.5 824 c 128,-1,52
 342 788 342 788 342 738 c 0,53,42
 342 704 342 704 368 653.5 c 128,-1,43
EndSplineSet
EndChar
StartChar: quotesingle
Encoding: 39 39 10
Width: 424
GlyphClass: 2
Flags: W
Fore
206 864 m 1,0,-1
 156 1137 l 1,1,-1
 260 1137 l 1,2,-1
 270 864 l 1,3,-1
 206 864 l 1,0,-1
EndSplineSet
EndChar
StartChar: parenleft
Encoding: 40 40 11
Width: 709
GlyphClass: 2
Flags: W
Fore
248.5 847 m 128,-1,1
 341 1032 341 1032 502 1125 c 1,2,-1
 554 1056 l 1,3,4
 409 973 409 973 325.5 806 c 128,-1,5
 242 639 242 639 242 433 c 0,6,7
 242 226 242 226 325.5 59 c 128,-1,8
 409 -108 409 -108 554 -190 c 1,9,-1
 502 -260 l 1,10,11
 341 -166 341 -166 248.5 19 c 128,-1,12
 156 204 156 204 156 433 c 256,13,0
 156 662 156 662 248.5 847 c 128,-1,1
EndSplineSet
EndChar
StartChar: parenright
Encoding: 41 41 12
Width: 709
GlyphClass: 2
Flags: W
Fore
461.5 19 m 128,-1,1
 369 -166 369 -166 208 -260 c 1,2,-1
 156 -190 l 1,3,4
 301 -108 301 -108 384 59 c 128,-1,5
 467 226 467 226 467 433 c 0,6,7
 467 639 467 639 384 806 c 128,-1,8
 301 973 301 973 156 1056 c 1,9,-1
 208 1125 l 1,10,11
 369 1032 369 1032 461.5 847 c 128,-1,12
 554 662 554 662 554 433 c 256,13,0
 554 204 554 204 461.5 19 c 128,-1,1
EndSplineSet
EndChar
StartChar: asterisk
Encoding: 42 42 13
Width: 1617
GlyphClass: 2
Flags: W
Fore
667 658 m 1,0,-1
 814 1108 l 1,1,-1
 969 658 l 1,2,-1
 1463 658 l 1,3,-1
 1056 346 l 1,4,-1
 1221 -113 l 1,5,-1
 814 173 l 1,6,-1
 415 -121 l 1,7,-1
 571 346 l 1,8,-1
 156 658 l 1,9,-1
 667 658 l 1,0,-1
EndSplineSet
EndChar
StartChar: plus
Encoding: 43 43 14
Width: 917
GlyphClass: 2
Flags: W
Fore
156 519 m 1,0,-1
 415 519 l 1,1,-1
 415 779 l 1,2,-1
 502 779 l 1,3,-1
 502 519 l 1,4,-1
 762 519 l 1,5,-1
 762 433 l 1,6,-1
 502 433 l 1,7,-1
 502 173 l 1,8,-1
 415 173 l 1,9,-1
 415 433 l 1,10,-1
 156 433 l 1,11,-1
 156 519 l 1,0,-1
EndSplineSet
EndChar
StartChar: comma
Encoding: 44 44 15
Width: 484
GlyphClass: 2
Flags: W
Fore
156 156 m 1,0,-1
 329 156 l 1,1,-1
 329 0 l 2,2,3
 329 -51 329 -51 316.5 -98 c 128,-1,4
 304 -145 304 -145 277 -190 c 1,5,-1
 173 -173 l 1,6,7
 197 -152 197 -152 211 -107.5 c 128,-1,8
 225 -63 225 -63 225 0 c 1,9,-1
 156 0 l 1,10,-1
 156 156 l 1,0,-1
EndSplineSet
EndChar
StartChar: hyphen
Encoding: 45 45 16
Width: 917
GlyphClass: 2
Flags: W
Fore
156 519 m 1,0,-1
 762 519 l 1,1,-1
 762 433 l 1,2,-1
 156 433 l 1,3,-1
 156 519 l 1,0,-1
EndSplineSet
EndChar
StartChar: period
Encoding: 46 46 17
Width: 467
GlyphClass: 2
Flags: W
Fore
156 156 m 1,0,-1
 312 156 l 1,1,-1
 312 0 l 1,2,-1
 156 0 l 1,3,-1
 156 156 l 1,0,-1
EndSplineSet
EndChar
StartChar: slash
Encoding: 47 47 18
Width: 727
GlyphClass: 2
Flags: W
Fore
502 1125 m 1,0,-1
 571 1125 l 1,1,-1
 225 -260 l 1,2,-1
 156 -260 l 1,3,-1
 502 1125 l 1,0,-1
EndSplineSet
EndChar
StartChar: zero
Encoding: 48 48 19
Width: 744
GlyphClass: 2
Flags: W
Fore
152.5 110 m 128,-1,1
 69 232 69 232 69 437 c 0,2,3
 69 640 69 640 152.5 762 c 128,-1,4
 236 884 236 884 373 884 c 0,5,6
 509 884 509 884 592 762 c 128,-1,7
 675 640 675 640 675 437 c 0,8,9
 675 232 675 232 592 110 c 128,-1,10
 509 -12 509 -12 373 -12 c 0,11,0
 236 -12 236 -12 152.5 110 c 128,-1,1
504.5 144.5 m 128,-1,13
 554 254 554 254 554 437 c 0,14,15
 554 615 554 615 504.5 723 c 128,-1,16
 455 831 455 831 373 831 c 0,17,18
 289 831 289 831 239.5 723 c 128,-1,19
 190 615 190 615 190 437 c 0,20,21
 190 254 190 254 239.5 144.5 c 128,-1,22
 289 35 289 35 373 35 c 0,23,12
 455 35 455 35 504.5 144.5 c 128,-1,13
EndSplineSet
EndChar
StartChar: one
Encoding: 49 49 20
Width: 744
GlyphClass: 2
Flags: W
Fore
190 41 m 1,0,-1
 238 41 l 2,1,2
 273 41 273 41 298.5 58 c 128,-1,3
 324 75 324 75 324 97 c 2,4,-1
 324 727 l 2,5,6
 324 738 324 738 314 744.5 c 128,-1,7
 304 751 304 751 288 751 c 0,8,9
 273 751 273 751 252.5 743.5 c 128,-1,10
 232 736 232 736 208 722 c 1,11,-1
 190 763 l 1,12,-1
 433 884 l 1,13,-1
 433 104 l 2,14,15
 433 79 433 79 455 60 c 128,-1,16
 477 41 477 41 506 41 c 2,17,-1
 554 41 l 1,18,-1
 554 0 l 1,19,-1
 190 0 l 1,20,-1
 190 41 l 1,0,-1
EndSplineSet
EndChar
StartChar: two
Encoding: 50 50 21
Width: 741
GlyphClass: 2
Flags: W
Fore
299.5 264 m 128,-1,1
 490 489 490 489 490 594 c 0,2,3
 490 674 490 674 440.5 731 c 128,-1,4
 391 788 391 788 321 788 c 0,5,6
 248 788 248 788 192.5 741 c 128,-1,7
 137 694 137 694 125 623 c 1,8,-1
 83 630 l 1,9,10
 103 742 103 742 184 813 c 128,-1,11
 265 884 265 884 369 884 c 0,12,13
 465 884 465 884 532 820 c 128,-1,14
 599 756 599 756 599 667 c 0,15,16
 599 587 599 587 513 460.5 c 128,-1,17
 427 334 427 334 229 97 c 1,18,-1
 551 97 l 2,19,20
 575 97 575 97 596 115 c 128,-1,21
 617 133 617 133 627 162 c 1,22,-1
 664 157 l 1,23,-1
 599 0 l 1,24,-1
 79 0 l 1,25,0
 109 39 109 39 299.5 264 c 128,-1,1
EndSplineSet
EndChar
StartChar: three
Encoding: 51 51 22
Width: 744
GlyphClass: 2
Flags: W
Fore
163 -8 m 128,-1,1
 117 13 117 13 117 44 c 0,2,3
 117 61 117 61 131 73 c 128,-1,4
 145 85 145 85 166 85 c 0,5,6
 200 85 200 85 259 60.5 c 128,-1,7
 318 36 318 36 352 36 c 0,8,9
 421 36 421 36 469.5 92 c 128,-1,10
 518 148 518 148 518 225 c 0,11,12
 518 305 518 305 464 362 c 128,-1,13
 410 419 410 419 336 419 c 2,14,-1
 276 419 l 1,15,-1
 276 454 l 1,16,17
 365 469 365 469 423.5 528 c 128,-1,18
 482 587 482 587 482 662 c 0,19,20
 482 716 482 716 439.5 755.5 c 128,-1,21
 397 795 397 795 336 795 c 0,22,23
 286 795 286 795 237.5 757 c 128,-1,24
 189 719 189 719 160 655 c 1,25,-1
 117 684 l 1,26,27
 148 767 148 767 218 817 c 128,-1,28
 288 867 288 867 373 867 c 0,29,30
 461 867 461 867 522 821.5 c 128,-1,31
 583 776 583 776 583 710 c 0,32,33
 583 639 583 639 550.5 581 c 128,-1,34
 518 523 518 523 462 497 c 1,35,36
 537 469 537 469 582 411 c 128,-1,37
 627 353 627 353 627 286 c 0,38,39
 627 156 627 156 524 63.5 c 128,-1,40
 421 -29 421 -29 276 -29 c 0,41,0
 209 -29 209 -29 163 -8 c 128,-1,1
EndSplineSet
EndChar
StartChar: four
Encoding: 52 52 23
Width: 744
GlyphClass: 2
Flags: W
Fore
445 218 m 1,0,-1
 69 218 l 1,1,-1
 69 304 l 1,2,-1
 482 872 l 1,3,-1
 542 872 l 1,4,-1
 542 304 l 1,5,-1
 675 304 l 1,6,-1
 675 218 l 1,7,-1
 542 218 l 1,8,-1
 542 0 l 1,9,-1
 445 0 l 1,10,-1
 445 218 l 1,0,-1
445 304 m 1,11,-1
 445 731 l 1,12,-1
 132 304 l 1,13,-1
 445 304 l 1,11,-1
EndSplineSet
EndChar
StartChar: five
Encoding: 53 53 24
Width: 744
GlyphClass: 2
Flags: W
Fore
151 9.5 m 128,-1,1
 105 31 105 31 105 61 c 0,2,3
 105 81 105 81 123.5 95 c 128,-1,4
 142 109 142 109 166 109 c 0,5,6
 180 109 180 109 206 98 c 128,-1,7
 232 87 232 87 276 61 c 0,8,9
 289 53 289 53 311 49 c 128,-1,10
 333 45 333 45 360 45 c 0,11,12
 434 45 434 45 488 109.5 c 128,-1,13
 542 174 542 174 542 266 c 0,14,15
 542 362 542 362 429 444 c 128,-1,16
 316 526 316 526 142 558 c 1,17,-1
 288 872 l 1,18,-1
 566 872 l 2,19,20
 581 872 581 872 593 878 c 128,-1,21
 605 884 605 884 615 897 c 1,22,-1
 639 897 l 1,23,-1
 590 776 l 1,24,-1
 305 776 l 1,25,-1
 244 655 l 1,26,27
 414 610 414 610 520.5 515.5 c 128,-1,28
 627 421 627 421 627 316 c 0,29,30
 627 160 627 160 532 74 c 128,-1,31
 437 -12 437 -12 264 -12 c 0,32,0
 197 -12 197 -12 151 9.5 c 128,-1,1
EndSplineSet
EndChar
StartChar: six
Encoding: 54 54 25
Width: 744
GlyphClass: 2
Flags: W
Fore
174.5 94.5 m 128,-1,1
 85 201 85 201 85 352 c 0,2,3
 85 577 85 577 241 737 c 128,-1,4
 397 897 397 897 618 897 c 1,5,-1
 618 855 l 1,6,7
 489 843 489 843 385 747.5 c 128,-1,8
 281 652 281 652 242 509 c 1,9,10
 261 531 261 531 306.5 544.5 c 128,-1,11
 352 558 352 558 411 558 c 0,12,13
 514 558 514 558 586.5 486.5 c 128,-1,14
 659 415 659 415 659 316 c 0,15,16
 659 180 659 180 580 84 c 128,-1,17
 501 -12 501 -12 387 -12 c 0,18,0
 264 -12 264 -12 174.5 94.5 c 128,-1,1
503.5 97.5 m 128,-1,20
 546 162 546 162 546 254 c 0,21,22
 546 360 546 360 488.5 434.5 c 128,-1,23
 431 509 431 509 352 509 c 0,24,25
 316 509 316 509 282 493.5 c 128,-1,26
 248 478 248 478 224 449 c 1,27,28
 214 394 214 394 210 367.5 c 128,-1,29
 206 341 206 341 206 328 c 0,30,31
 206 206 206 206 263.5 119.5 c 128,-1,32
 321 33 321 33 399 33 c 0,33,19
 461 33 461 33 503.5 97.5 c 128,-1,20
EndSplineSet
EndChar
StartChar: seven
Encoding: 55 55 26
Width: 741
GlyphClass: 2
Flags: W
Fore
551 776 m 1,0,-1
 224 776 l 2,1,2
 190 776 190 776 159 750 c 128,-1,3
 128 724 128 724 108 679 c 1,4,-1
 91 696 l 1,5,-1
 150 872 l 1,6,-1
 652 872 l 1,7,-1
 369 0 l 1,8,-1
 289 0 l 1,9,-1
 551 776 l 1,0,-1
EndSplineSet
EndChar
StartChar: eight
Encoding: 56 56 27
Width: 744
GlyphClass: 2
Flags: W
Fore
195 54 m 128,-1,1
 117 120 117 120 117 212 c 0,2,3
 117 266 117 266 165.5 326.5 c 128,-1,4
 214 387 214 387 300 437 c 1,5,6
 221 490 221 490 177.5 551.5 c 128,-1,7
 134 613 134 613 134 667 c 0,8,9
 134 756 134 756 200 820 c 128,-1,10
 266 884 266 884 360 884 c 0,11,12
 466 884 466 884 534.5 832 c 128,-1,13
 603 780 603 780 603 703 c 0,14,15
 603 647 603 647 557 588.5 c 128,-1,16
 511 530 511 530 433 485 c 1,17,18
 523 433 523 433 575 358.5 c 128,-1,19
 627 284 627 284 627 206 c 0,20,21
 627 116 627 116 556 52 c 128,-1,22
 485 -12 485 -12 385 -12 c 0,23,0
 273 -12 273 -12 195 54 c 128,-1,1
496 76.5 m 128,-1,25
 542 120 542 120 542 182 c 0,26,27
 542 230 542 230 483.5 291.5 c 128,-1,28
 425 353 425 353 324 411 c 1,29,30
 273 370 273 370 246.5 313 c 128,-1,31
 220 256 220 256 220 194 c 0,32,33
 220 127 220 127 268.5 80 c 128,-1,34
 317 33 317 33 385 33 c 0,35,24
 450 33 450 33 496 76.5 c 128,-1,25
484 600.5 m 128,-1,37
 518 658 518 658 518 715 c 0,38,39
 518 767 518 767 472 803.5 c 128,-1,40
 426 840 426 840 360 840 c 0,41,42
 305 840 305 840 265.5 807 c 128,-1,43
 226 774 226 774 226 727 c 0,44,45
 226 675 226 675 269.5 615 c 128,-1,46
 313 555 313 555 390 502 c 1,47,36
 450 543 450 543 484 600.5 c 128,-1,37
EndSplineSet
EndChar
StartChar: nine
Encoding: 57 57 28
Width: 741
GlyphClass: 2
Flags: W
Fore
134 5 m 1,0,1
 293 47 293 47 399.5 149.5 c 128,-1,2
 506 252 506 252 529 381 c 1,3,4
 486 346 486 346 434 327 c 128,-1,5
 382 308 382 308 329 308 c 0,6,7
 229 308 229 308 158 384.5 c 128,-1,8
 87 461 87 461 87 570 c 0,9,10
 87 699 87 699 164.5 791.5 c 128,-1,11
 242 884 242 884 353 884 c 0,12,13
 478 884 478 884 567 764 c 128,-1,14
 656 644 656 644 656 473 c 0,15,16
 656 290 656 290 512.5 145.5 c 128,-1,17
 369 1 369 1 148 -36 c 1,18,-1
 134 5 l 1,0,1
470 392 m 128,-1,20
 511 403 511 403 535 425 c 1,21,22
 535 634 535 634 486 741 c 128,-1,23
 437 848 437 848 341 848 c 0,24,25
 286 848 286 848 247 777.5 c 128,-1,26
 208 707 208 707 208 606 c 0,27,28
 208 513 208 513 257 447 c 128,-1,29
 306 381 306 381 377 381 c 0,30,19
 429 381 429 381 470 392 c 128,-1,20
EndSplineSet
EndChar
StartChar: colon
Encoding: 58 58 29
Width: 484
GlyphClass: 2
Flags: W
Fore
156 640 m 1,0,-1
 329 640 l 1,1,-1
 329 485 l 1,2,-1
 156 485 l 1,3,-1
 156 640 l 1,0,-1
156 156 m 1,4,-1
 329 156 l 1,5,-1
 329 0 l 1,6,-1
 156 0 l 1,7,-1
 156 156 l 1,4,-1
EndSplineSet
EndChar
StartChar: semicolon
Encoding: 59 59 30
Width: 484
GlyphClass: 2
Flags: W
Fore
156 156 m 1,0,-1
 329 156 l 1,1,-1
 329 0 l 2,2,3
 329 -51 329 -51 316.5 -98 c 128,-1,4
 304 -145 304 -145 277 -190 c 1,5,-1
 173 -173 l 1,6,7
 197 -152 197 -152 211 -107.5 c 128,-1,8
 225 -63 225 -63 225 0 c 1,9,-1
 156 0 l 1,10,-1
 156 156 l 1,0,-1
156 640 m 1,11,-1
 329 640 l 1,12,-1
 329 485 l 1,13,-1
 156 485 l 1,14,-1
 156 640 l 1,11,-1
EndSplineSet
EndChar
StartChar: less
Encoding: 60 60 31
Width: 912
GlyphClass: 2
Flags: W
Fore
156 479 m 1,0,-1
 756 838 l 1,1,-1
 756 744 l 1,2,-1
 241 433 l 1,3,-1
 756 121 l 1,4,-1
 756 24 l 1,5,-1
 156 377 l 1,6,-1
 156 479 l 1,0,-1
EndSplineSet
EndChar
StartChar: equal
Encoding: 61 61 32
Width: 917
GlyphClass: 2
Flags: W
Fore
156 589 m 1,0,-1
 762 589 l 1,1,-1
 762 502 l 1,2,-1
 156 502 l 1,3,-1
 156 589 l 1,0,-1
156 304 m 1,4,-1
 762 304 l 1,5,-1
 762 217 l 1,6,-1
 156 217 l 1,7,-1
 156 304 l 1,4,-1
EndSplineSet
EndChar
StartChar: greater
Encoding: 62 62 33
Width: 912
GlyphClass: 2
Flags: W
Fore
156 24 m 1,0,-1
 156 121 l 1,1,-1
 672 433 l 1,2,-1
 156 744 l 1,3,-1
 156 838 l 1,4,-1
 756 479 l 1,5,-1
 756 377 l 1,6,-1
 156 24 l 1,0,-1
EndSplineSet
EndChar
StartChar: question
Encoding: 63 63 34
Width: 1004
GlyphClass: 2
Flags: W
Fore
425 44 m 1,0,-1
 571 44 l 1,1,-1
 571 -87 l 1,2,-1
 425 -87 l 1,3,-1
 425 44 l 1,0,-1
257 871 m 128,-1,5
 358 952 358 952 502 952 c 256,6,7
 646 952 646 952 747 871 c 128,-1,8
 848 790 848 790 848 675 c 0,9,10
 848 605 848 605 799.5 532 c 128,-1,11
 751 459 751 459 667 398 c 0,12,13
 613 353 613 353 583.5 289.5 c 128,-1,14
 554 226 554 226 554 156 c 1,15,-1
 450 156 l 1,16,17
 450 237 450 237 486.5 311.5 c 128,-1,18
 523 386 523 386 589 442 c 0,19,20
 672 511 672 511 717 574.5 c 128,-1,21
 762 638 762 638 762 684 c 0,22,23
 762 759 762 759 686 812.5 c 128,-1,24
 610 866 610 866 502 866 c 256,25,26
 394 866 394 866 318 810.5 c 128,-1,27
 242 755 242 755 242 675 c 2,28,-1
 242 606 l 1,29,-1
 156 606 l 1,30,-1
 156 675 l 2,31,4
 156 790 156 790 257 871 c 128,-1,5
EndSplineSet
EndChar
StartChar: at
Encoding: 64 64 35
Width: 1408
GlyphClass: 2
Flags: W
Fore
508 591 m 128,-1,1
 578 664 578 664 679 664 c 0,2,3
 724 664 724 664 765 646.5 c 128,-1,4
 806 629 806 629 835 594 c 1,5,-1
 835 656 l 1,6,-1
 921 656 l 1,7,-1
 921 270 l 2,8,9
 921 244 921 244 944 225 c 128,-1,10
 967 206 967 206 999 206 c 0,11,12
 1071 206 1071 206 1120.5 276 c 128,-1,13
 1170 346 1170 346 1170 447 c 0,14,15
 1170 618 1170 618 1038.5 739 c 128,-1,16
 907 860 907 860 722 860 c 0,17,18
 521 860 521 860 379 727.5 c 128,-1,19
 237 595 237 595 237 409 c 0,20,21
 237 238 237 238 379 119 c 128,-1,22
 521 0 521 0 722 0 c 0,23,24
 800 0 800 0 868.5 20.5 c 128,-1,25
 937 41 937 41 989 81 c 1,26,-1
 1031 11 l 1,27,28
 964 -35 964 -35 885.5 -59 c 128,-1,29
 807 -83 807 -83 722 -83 c 0,30,31
 489 -83 489 -83 322.5 60.5 c 128,-1,32
 156 204 156 204 156 409 c 0,33,34
 156 629 156 629 322.5 784.5 c 128,-1,35
 489 940 489 940 722 940 c 0,36,37
 941 940 941 940 1097 795.5 c 128,-1,38
 1253 651 1253 651 1253 447 c 0,39,40
 1253 313 1253 313 1179 218 c 128,-1,41
 1105 123 1105 123 999 123 c 0,42,43
 939 123 939 123 893 156.5 c 128,-1,44
 847 190 847 190 838 242 c 1,45,46
 814 201 814 201 771 177.5 c 128,-1,47
 728 154 728 154 679 154 c 0,48,49
 577 154 577 154 507.5 231 c 128,-1,50
 438 308 438 308 438 415 c 0,51,0
 438 518 438 518 508 591 c 128,-1,1
568 293 m 128,-1,53
 613 241 613 241 679 241 c 0,54,55
 744 241 744 241 789.5 293 c 128,-1,56
 835 345 835 345 835 415 c 0,57,58
 835 486 835 486 789.5 537.5 c 128,-1,59
 744 589 744 589 679 589 c 0,60,61
 613 589 613 589 568 537.5 c 128,-1,62
 523 486 523 486 523 415 c 0,63,52
 523 345 523 345 568 293 c 128,-1,53
EndSplineSet
EndChar
StartChar: bracketleft
Encoding: 91 91 36
Width: 830
GlyphClass: 2
Flags: W
Fore
156 1212 m 1,0,-1
 675 1212 l 1,1,-1
 675 1125 l 1,2,-1
 242 1125 l 1,3,-1
 242 -260 l 1,4,-1
 675 -260 l 1,5,-1
 675 -346 l 1,6,-1
 156 -346 l 1,7,-1
 156 1212 l 1,0,-1
EndSplineSet
EndChar
StartChar: backslash
Encoding: 92 92 37
Width: 838
GlyphClass: 2
Flags: W
Fore
595 -168 m 1,0,-1
 156 1056 l 1,1,-1
 244 1056 l 1,2,-1
 684 -168 l 1,3,-1
 595 -168 l 1,0,-1
EndSplineSet
EndChar
StartChar: bracketright
Encoding: 93 93 38
Width: 830
GlyphClass: 2
Flags: W
Fore
675 -346 m 1,0,-1
 156 -346 l 1,1,-1
 156 -260 l 1,2,-1
 589 -260 l 1,3,-1
 589 1125 l 1,4,-1
 156 1125 l 1,5,-1
 156 1212 l 1,6,-1
 675 1212 l 1,7,-1
 675 -346 l 1,0,-1
EndSplineSet
EndChar
StartChar: asciicircum
Encoding: 94 94 39
Width: 924
GlyphClass: 2
Flags: W
Fore
517 625 m 1,0,-1
 768 180 l 1,1,-1
 667 180 l 1,2,-1
 462 551 l 1,3,-1
 258 180 l 1,4,-1
 156 180 l 1,5,-1
 403 625 l 1,6,-1
 517 625 l 1,0,-1
EndSplineSet
EndChar
StartChar: underscore
Encoding: 95 95 40
Width: 1237
GlyphClass: 2
Flags: W
Fore
156 -341 m 1,0,-1
 1083 -341 l 1,1,-1
 1083 -429 l 1,2,-1
 156 -429 l 1,3,-1
 156 -341 l 1,0,-1
EndSplineSet
EndChar
StartChar: grave
Encoding: 96 96 41
Width: 494
GlyphClass: 2
Flags: W
Fore
276 864 m 1,0,-1
 156 1137 l 1,1,-1
 269 1137 l 1,2,-1
 340 864 l 1,3,-1
 276 864 l 1,0,-1
EndSplineSet
EndChar
StartChar: braceleft
Encoding: 123 123 42
Width: 681
GlyphClass: 2
Flags: W
Fore
248.5 447 m 128,-1,1
 288 491 288 491 288 554 c 2,2,-1
 288 726 l 2,3,4
 288 847 288 847 357.5 933 c 128,-1,5
 427 1019 427 1019 526 1019 c 1,6,-1
 526 951 l 1,7,8
 462 951 462 951 416 885 c 128,-1,9
 370 819 370 819 370 726 c 2,10,-1
 370 554 l 2,11,12
 370 495 370 495 341 448.5 c 128,-1,13
 312 402 312 402 264 385 c 1,14,15
 312 368 312 368 341 320 c 128,-1,16
 370 272 370 272 370 212 c 2,17,-1
 370 41 l 2,18,19
 370 -52 370 -52 416 -118 c 128,-1,20
 462 -184 462 -184 526 -184 c 1,21,-1
 526 -253 l 1,22,23
 427 -253 427 -253 357.5 -166.5 c 128,-1,24
 288 -80 288 -80 288 41 c 2,25,-1
 288 212 l 2,26,27
 288 272 288 272 248.5 314.5 c 128,-1,28
 209 357 209 357 156 357 c 1,29,-1
 156 403 l 1,30,0
 209 403 209 403 248.5 447 c 128,-1,1
EndSplineSet
EndChar
StartChar: bar
Encoding: 124 124 43
Width: 398
GlyphClass: 2
Flags: W
Fore
156 1298 m 1,0,-1
 242 1298 l 1,1,-1
 242 -425 l 1,2,-1
 156 -425 l 1,3,-1
 156 1298 l 1,0,-1
EndSplineSet
EndChar
StartChar: braceright
Encoding: 125 125 44
Width: 683
GlyphClass: 2
Flags: W
Fore
529 402 m 1,0,1
 474 402 474 402 435.5 359.5 c 128,-1,2
 397 317 397 317 397 256 c 2,3,-1
 397 87 l 2,4,5
 397 -35 397 -35 326.5 -121.5 c 128,-1,6
 256 -208 256 -208 156 -208 c 1,7,-1
 156 -138 l 1,8,9
 221 -138 221 -138 267 -72.5 c 128,-1,10
 313 -7 313 -7 313 87 c 2,11,-1
 313 256 l 2,12,13
 313 313 313 313 343.5 360 c 128,-1,14
 374 407 374 407 425 425 c 1,15,16
 374 442 374 442 343.5 490 c 128,-1,17
 313 538 313 538 313 599 c 2,18,-1
 313 771 l 2,19,20
 313 864 313 864 267 930 c 128,-1,21
 221 996 221 996 156 996 c 1,22,-1
 156 1063 l 1,23,24
 256 1063 256 1063 326.5 977.5 c 128,-1,25
 397 892 397 892 397 771 c 2,26,-1
 397 599 l 2,27,28
 397 537 397 537 435.5 493 c 128,-1,29
 474 449 474 449 529 449 c 1,30,-1
 529 402 l 1,0,1
EndSplineSet
EndChar
StartChar: asciitilde
Encoding: 126 126 45
Width: 989
GlyphClass: 2
Flags: W
Fore
156 454 m 1,0,1
 200 490 200 490 247 510 c 128,-1,2
 294 530 294 530 340 530 c 0,3,4
 385 530 385 530 422 519.5 c 128,-1,5
 459 509 459 509 483 489 c 0,6,7
 523 455 523 455 559 437 c 128,-1,8
 595 419 595 419 623 419 c 0,9,10
 670 419 670 419 712.5 440 c 128,-1,11
 755 461 755 461 786 497 c 1,12,-1
 835 442 l 1,13,14
 796 397 796 397 741 371.5 c 128,-1,15
 686 346 686 346 623 346 c 0,16,17
 583 346 583 346 547 358 c 128,-1,18
 511 370 511 370 483 394 c 0,19,20
 454 421 454 421 417 434 c 128,-1,21
 380 447 380 447 341 447 c 0,22,23
 305 447 305 447 268.5 434 c 128,-1,24
 232 421 232 421 202 394 c 1,25,-1
 156 454 l 1,0,1
EndSplineSet
EndChar
StartChar: multiply
Encoding: 215 215 46
Width: 972
GlyphClass: 2
Flags: W
Fore
156 160 m 1,0,-1
 410 415 l 1,1,-1
 156 670 l 1,2,-1
 232 746 l 1,3,-1
 486 491 l 1,4,-1
 742 746 l 1,5,-1
 818 670 l 1,6,-1
 563 415 l 1,7,-1
 818 160 l 1,8,-1
 743 85 l 1,9,-1
 486 340 l 1,10,-1
 230 85 l 1,11,-1
 156 160 l 1,0,-1
EndSplineSet
EndChar
StartChar: divide
Encoding: 247 247 47
Width: 1035
GlyphClass: 2
Flags: W
Fore
449 249 m 128,-1,1
 477 277 477 277 517 277 c 0,2,3
 555 277 555 277 583 251.5 c 128,-1,4
 611 226 611 226 611 190 c 0,5,6
 611 150 611 150 586 123 c 128,-1,7
 561 96 561 96 525 96 c 0,8,9
 482 96 482 96 451.5 120.5 c 128,-1,10
 421 145 421 145 421 182 c 0,11,0
 421 221 421 221 449 249 c 128,-1,1
156 486 m 1,12,-1
 882 486 l 1,13,-1
 882 380 l 1,14,-1
 156 380 l 1,15,-1
 156 486 l 1,12,-1
449 743 m 128,-1,17
 477 771 477 771 517 771 c 0,18,19
 555 771 555 771 583 745.5 c 128,-1,20
 611 720 611 720 611 684 c 0,21,22
 611 644 611 644 586 616.5 c 128,-1,23
 561 589 561 589 525 589 c 0,24,25
 482 589 482 589 451.5 614 c 128,-1,26
 421 639 421 639 421 675 c 0,27,16
 421 715 421 715 449 743 c 128,-1,17
EndSplineSet
EndChar
StartChar: uni0964
Encoding: 2404 2404 48
Width: 275
GlyphClass: 2
Flags: W
Fore
150 0 m 1,0,-1
 150 500 l 1,1,-1
 200 500 l 1,2,-1
 200 0 l 1,3,-1
 150 0 l 1,4,-1
 150 0 l 1,0,-1
EndSplineSet
EndChar
StartChar: uni0965
Encoding: 2405 2405 49
Width: 435
GlyphClass: 2
Flags: W
Fore
150 0 m 1,0,-1
 150 500 l 1,1,-1
 200 500 l 1,2,-1
 200 0 l 1,3,-1
 150 0 l 1,4,-1
 150 0 l 1,0,-1
310 0 m 1,5,-1
 310 500 l 1,6,-1
 360 500 l 1,7,-1
 360 0 l 1,8,-1
 310 0 l 1,9,-1
 310 0 l 1,5,-1
EndSplineSet
EndChar
StartChar: uni0A01
Encoding: 2561 2561 50
Width: 0
GlyphClass: 4
Flags: W
AnchorPoint: "Anchor-1" -632 968 mark 0
AnchorPoint: "Anchor-0" -624 976 mark 0
Fore
-663 1183 m 128,-1,1
 -663 1197 -663 1197 -651 1207 c 128,-1,2
 -639 1217 -639 1217 -621 1217 c 128,-1,3
 -603 1217 -603 1217 -590.5 1207 c 128,-1,4
 -578 1197 -578 1197 -578 1183 c 128,-1,5
 -578 1169 -578 1169 -590.5 1160 c 128,-1,6
 -603 1151 -603 1151 -621 1151 c 128,-1,7
 -639 1151 -639 1151 -651 1160 c 128,-1,0
 -663 1169 -663 1169 -663 1183 c 128,-1,1
-610 1000 m 128,-1,9
 -689 1000 -689 1000 -748.5 1052.5 c 128,-1,10
 -808 1105 -808 1105 -823 1186 c 1,11,-1
 -750 1186 l 1,12,13
 -740 1132 -740 1132 -700.5 1096 c 128,-1,14
 -661 1060 -661 1060 -610 1060 c 256,15,16
 -559 1060 -559 1060 -519 1096 c 128,-1,17
 -479 1132 -479 1132 -470 1186 c 1,18,-1
 -397 1186 l 1,19,20
 -412 1105 -412 1105 -471.5 1052.5 c 128,-1,8
 -531 1000 -531 1000 -610 1000 c 128,-1,9
EndSplineSet
EndChar
StartChar: u0A02
Encoding: 2562 2562 51
Width: 0
GlyphClass: 4
Flags: W
AnchorPoint: "Anchor-1" -199 910 mark 0
AnchorPoint: "Anchor-0" -190 920 mark 0
Fore
-254.5 1198.5 m 128,-1,1
 -232 1221 -232 1221 -200 1221 c 0,2,3
 -166 1221 -166 1221 -143.5 1198.5 c 128,-1,4
 -121 1176 -121 1176 -121 1143 c 0,5,6
 -121 1111 -121 1111 -143.5 1088 c 128,-1,7
 -166 1065 -166 1065 -200 1065 c 0,8,9
 -232 1065 -232 1065 -254.5 1088 c 128,-1,10
 -277 1111 -277 1111 -277 1143 c 0,11,0
 -277 1176 -277 1176 -254.5 1198.5 c 128,-1,1
EndSplineSet
EndChar
StartChar: uni0A03
Encoding: 2563 2563 52
Width: 468
GlyphClass: 2
Flags: W
Fore
9 161 m 128,-1,1
 9 104 9 104 57 62.5 c 128,-1,2
 105 21 105 21 173 21 c 128,-1,3
 241 21 241 21 289 62.5 c 128,-1,4
 337 104 337 104 337 161 c 128,-1,5
 337 218 337 218 289 259.5 c 128,-1,6
 241 301 241 301 173 301 c 128,-1,7
 105 301 105 301 57 259.5 c 128,-1,0
 9 218 9 218 9 161 c 128,-1,1
-73 163.5 m 128,-1,9
 -73 258 -73 258 1 324.5 c 128,-1,10
 75 391 75 391 178.5 391 c 128,-1,11
 282 391 282 391 356 324.5 c 128,-1,12
 430 258 430 258 430 163.5 c 128,-1,13
 430 69 430 69 356 2.5 c 128,-1,14
 282 -64 282 -64 178.5 -64 c 128,-1,15
 75 -64 75 -64 1 2.5 c 128,-1,8
 -73 69 -73 69 -73 163.5 c 128,-1,9
9 808.5 m 128,-1,17
 9 751 9 751 57 709.5 c 128,-1,18
 105 668 105 668 173 668 c 128,-1,19
 241 668 241 668 289 709.5 c 128,-1,20
 337 751 337 751 337 808.5 c 128,-1,21
 337 866 337 866 289 907 c 128,-1,22
 241 948 241 948 173 948 c 128,-1,23
 105 948 105 948 57 907 c 128,-1,16
 9 866 9 866 9 808.5 c 128,-1,17
-73 810.5 m 128,-1,25
 -73 905 -73 905 1 972 c 128,-1,26
 75 1039 75 1039 178.5 1039 c 128,-1,27
 282 1039 282 1039 356 972 c 128,-1,28
 430 905 430 905 430 810.5 c 128,-1,29
 430 716 430 716 356 649.5 c 128,-1,30
 282 583 282 583 178.5 583 c 128,-1,31
 75 583 75 583 1 649.5 c 128,-1,24
 -73 716 -73 716 -73 810.5 c 128,-1,25
EndSplineSet
EndChar
StartChar: u0A05
Encoding: 2565 2565 53
Width: 1070
GlyphClass: 2
Flags: W
Fore
68 866 m 2,0,1
 133 866 133 866 191 804 c 128,-1,2
 249 742 249 742 276 640 c 1,3,-1
 276 615 l 1,4,5
 340 674 340 674 405.5 715 c 128,-1,6
 471 756 471 756 535 779 c 1,7,8
 570 684 570 684 587.5 606.5 c 128,-1,9
 605 529 605 529 605 467 c 1,10,11
 638 490 638 490 694 516 c 128,-1,12
 750 542 750 542 830 571 c 1,13,-1
 830 866 l 1,14,-1
 1089 866 l 1,15,-1
 1089 779 l 1,16,-1
 916 779 l 1,17,-1
 916 0 l 1,18,-1
 830 0 l 1,19,-1
 830 485 l 1,20,21
 771 469 771 469 713.5 439 c 128,-1,22
 656 409 656 409 605 364 c 1,23,24
 605 260 605 260 567 186.5 c 128,-1,25
 529 113 529 113 474 113 c 0,26,27
 438 113 438 113 412.5 135 c 128,-1,28
 387 157 387 157 387 190 c 0,29,30
 387 246 387 246 422 301 c 128,-1,31
 457 356 457 356 518 398 c 1,32,33
 518 479 518 479 509.5 545 c 128,-1,34
 501 611 501 611 483 658 c 1,35,36
 419 623 419 623 367.5 587 c 128,-1,37
 316 551 316 551 276 511 c 1,38,39
 276 403 276 403 235 327.5 c 128,-1,40
 194 252 194 252 137 252 c 0,41,42
 104 252 104 252 81.5 276.5 c 128,-1,43
 59 301 59 301 59 338 c 0,44,45
 59 385 59 385 93 439.5 c 128,-1,46
 127 494 127 494 189 546 c 1,47,48
 189 642 189 642 153 710.5 c 128,-1,49
 117 779 117 779 68 779 c 2,50,-1
 -17 779 l 1,51,-1
 -17 866 l 1,52,-1
 68 866 l 2,0,1
EndSplineSet
EndChar
StartChar: u0A06
Encoding: 2566 2566 54
Width: 1478
GlyphClass: 2
Flags: W
AnchorPoint: "Anchor-1" 1277 840 basechar 0
Fore
68 866 m 2,0,1
 133 866 133 866 191 804 c 128,-1,2
 249 742 249 742 276 640 c 1,3,-1
 276 615 l 1,4,5
 340 674 340 674 405.5 715 c 128,-1,6
 471 756 471 756 535 779 c 1,7,8
 570 684 570 684 587.5 606.5 c 128,-1,9
 605 529 605 529 605 467 c 1,10,11
 638 490 638 490 694 516 c 128,-1,12
 750 542 750 542 830 571 c 1,13,-1
 830 866 l 1,14,-1
 1497 866 l 1,15,-1
 1497 779 l 1,16,-1
 1322 779 l 1,17,-1
 1322 381 l 1,18,-1
 1236 381 l 1,19,-1
 1236 779 l 1,20,-1
 916 779 l 1,21,-1
 916 0 l 1,22,-1
 830 0 l 1,23,-1
 830 485 l 1,24,25
 771 469 771 469 713.5 439 c 128,-1,26
 656 409 656 409 605 364 c 1,27,28
 605 260 605 260 567 186.5 c 128,-1,29
 529 113 529 113 474 113 c 0,30,31
 438 113 438 113 412.5 135 c 128,-1,32
 387 157 387 157 387 190 c 0,33,34
 387 246 387 246 422 301 c 128,-1,35
 457 356 457 356 518 398 c 1,36,37
 518 479 518 479 509.5 545 c 128,-1,38
 501 611 501 611 483 658 c 1,39,40
 419 623 419 623 367.5 587 c 128,-1,41
 316 551 316 551 276 511 c 1,42,43
 276 403 276 403 235 327.5 c 128,-1,44
 194 252 194 252 137 252 c 0,45,46
 104 252 104 252 81.5 276.5 c 128,-1,47
 59 301 59 301 59 338 c 0,48,49
 59 385 59 385 93 439.5 c 128,-1,50
 127 494 127 494 189 546 c 1,51,52
 189 642 189 642 153 710.5 c 128,-1,53
 117 779 117 779 68 779 c 2,54,-1
 -17 779 l 1,55,-1
 -17 866 l 1,56,-1
 68 866 l 2,0,1
EndSplineSet
EndChar
StartChar: u0A07
Encoding: 2567 2567 55
Width: 1185
GlyphClass: 2
Flags: W
AnchorPoint: "Anchor-1" 751 830 basechar 0
Fore
568 390.5 m 128,-1,1
 617 439 617 439 658 459 c 1,2,3
 578 495 578 495 531.5 582.5 c 128,-1,4
 485 670 485 670 485 779 c 1,5,-1
 242 779 l 1,6,-1
 242 0 l 1,7,-1
 156 0 l 1,8,-1
 156 779 l 1,9,-1
 -17 779 l 1,10,-1
 -17 866 l 1,11,-1
 156 866 l 1,12,-1
 156 987 l 2,13,14
 156 1088 156 1088 222 1158.5 c 128,-1,15
 288 1229 288 1229 381 1229 c 0,16,17
 478 1229 478 1229 546.5 1158.5 c 128,-1,18
 615 1088 615 1088 615 987 c 1,19,-1
 537 987 l 1,20,21
 537 1051 537 1051 491 1097 c 128,-1,22
 445 1143 445 1143 381 1143 c 0,23,24
 324 1143 324 1143 283 1097 c 128,-1,25
 242 1051 242 1051 242 987 c 2,26,-1
 242 866 l 1,27,-1
 1204 866 l 1,28,-1
 1204 779 l 1,29,-1
 1073 779 l 1,30,-1
 1073 415 l 1,31,-1
 796 415 l 2,32,33
 744 415 744 415 684.5 376.5 c 128,-1,34
 625 338 625 338 571 269 c 1,35,36
 633 184 633 184 705.5 135.5 c 128,-1,37
 778 87 778 87 848 87 c 0,38,39
 911 87 911 87 975 109.5 c 128,-1,40
 1039 132 1039 132 1100 173 c 1,41,-1
 1117 156 l 1,42,43
 1055 81 1055 81 980 40.5 c 128,-1,44
 905 0 905 0 831 0 c 0,45,46
 748 0 748 0 651.5 71 c 128,-1,47
 555 142 555 142 467 269 c 1,48,0
 519 342 519 342 568 390.5 c 128,-1,1
637 583 m 128,-1,50
 703 502 703 502 796 502 c 2,51,-1
 987 502 l 1,52,-1
 987 779 l 1,53,-1
 571 779 l 1,54,49
 571 664 571 664 637 583 c 128,-1,50
EndSplineSet
EndChar
StartChar: u0A08
Encoding: 2568 2568 56
Width: 1190
GlyphClass: 2
Flags: W
AnchorPoint: "Anchor-1" 1149 830 basechar 0
Fore
949 866 m 1,0,-1
 949 987 l 2,1,2
 949 1051 949 1051 908 1097 c 128,-1,3
 867 1143 867 1143 811 1143 c 0,4,5
 754 1143 754 1143 713 1097 c 128,-1,6
 672 1051 672 1051 672 987 c 1,7,-1
 603 987 l 1,8,9
 603 1088 603 1088 663.5 1158.5 c 128,-1,10
 724 1229 724 1229 811 1229 c 0,11,12
 904 1229 904 1229 970 1158.5 c 128,-1,13
 1036 1088 1036 1088 1036 987 c 2,14,-1
 1036 866 l 1,15,-1
 1209 866 l 1,16,-1
 1209 779 l 1,17,-1
 1036 779 l 1,18,-1
 1036 0 l 1,19,-1
 949 0 l 1,20,-1
 949 779 l 1,21,-1
 680 779 l 1,22,-1
 680 415 l 1,23,-1
 403 415 l 2,24,25
 352 415 352 415 292 376.5 c 128,-1,26
 232 338 232 338 178 269 c 1,27,28
 238 184 238 184 311.5 135.5 c 128,-1,29
 385 87 385 87 455 87 c 0,30,31
 518 87 518 87 582 109.5 c 128,-1,32
 646 132 646 132 707 173 c 1,33,-1
 724 156 l 1,34,35
 662 81 662 81 587.5 40.5 c 128,-1,36
 513 0 513 0 438 0 c 0,37,38
 356 0 356 0 259 71 c 128,-1,39
 162 142 162 142 75 269 c 1,40,41
 127 342 127 342 175.5 390.5 c 128,-1,42
 224 439 224 439 265 459 c 1,43,44
 185 495 185 495 138.5 582.5 c 128,-1,45
 92 670 92 670 92 779 c 1,46,-1
 -17 779 l 1,47,-1
 -17 866 l 1,48,-1
 949 866 l 1,0,-1
244 583 m 128,-1,50
 310 502 310 502 403 502 c 2,51,-1
 594 502 l 1,52,-1
 594 779 l 1,53,-1
 178 779 l 1,54,49
 178 664 178 664 244 583 c 128,-1,50
EndSplineSet
EndChar
StartChar: u0A09
Encoding: 2569 2569 57
Width: 920
GlyphClass: 2
Flags: W
AnchorPoint: "Anchor-1" 965 830 basechar 0
Fore
81 866 m 1,0,1
 81 1031 81 1031 193 1147.5 c 128,-1,2
 305 1264 305 1264 462 1264 c 0,3,4
 627 1264 627 1264 743.5 1147.5 c 128,-1,5
 860 1031 860 1031 860 866 c 1,6,-1
 939 866 l 1,7,-1
 939 779 l 1,8,-1
 866 779 l 1,9,-1
 860 744 l 1,10,11
 860 634 860 634 803 546.5 c 128,-1,12
 746 459 746 459 652 425 c 1,13,14
 702 397 702 397 729 345.5 c 128,-1,15
 756 294 756 294 756 234 c 0,16,17
 756 137 756 137 685.5 68.5 c 128,-1,18
 615 0 615 0 514 0 c 0,19,20
 334 0 334 0 207.5 228.5 c 128,-1,21
 81 457 81 457 81 779 c 1,22,-1
 -17 779 l 1,23,-1
 -17 866 l 1,24,-1
 81 866 l 1,0,1
774 866 m 1,25,26
 774 996 774 996 683.5 1086.5 c 128,-1,27
 593 1177 593 1177 462 1177 c 0,28,29
 341 1177 341 1177 254.5 1086.5 c 128,-1,30
 168 996 168 996 168 866 c 1,31,-1
 774 866 l 1,25,26
175 632.5 m 128,-1,33
 182 558 182 558 194 485 c 1,34,-1
 514 485 l 2,35,36
 622 485 622 485 698 561.5 c 128,-1,37
 774 638 774 638 774 744 c 2,38,-1
 774 779 l 1,39,-1
 168 779 l 1,40,32
 168 707 168 707 175 632.5 c 128,-1,33
335.5 173.5 m 128,-1,42
 419 87 419 87 514 87 c 0,43,44
 578 87 578 87 624 130 c 128,-1,45
 670 173 670 173 670 234 c 0,46,47
 670 301 670 301 614.5 349.5 c 128,-1,48
 559 398 559 398 479 398 c 2,49,-1
 214 398 l 1,50,41
 252 260 252 260 335.5 173.5 c 128,-1,42
254 -165 m 1,51,52
 310 -190 310 -190 376 -203.5 c 128,-1,53
 442 -217 442 -217 514 -217 c 0,54,55
 587 -217 587 -217 653 -203.5 c 128,-1,56
 719 -190 719 -190 774 -165 c 1,57,-1
 774 -252 l 1,58,59
 719 -277 719 -277 653 -290.5 c 128,-1,60
 587 -304 587 -304 514 -304 c 0,61,62
 442 -304 442 -304 376 -290.5 c 128,-1,63
 310 -277 310 -277 254 -252 c 1,64,-1
 254 -165 l 1,51,52
EndSplineSet
EndChar
StartChar: u0A0A
Encoding: 2570 2570 58
Width: 920
GlyphClass: 2
Flags: W
AnchorPoint: "Anchor-1" 913 830 basechar 0
Fore
81 866 m 1,0,1
 81 1031 81 1031 193 1147.5 c 128,-1,2
 305 1264 305 1264 462 1264 c 0,3,4
 627 1264 627 1264 743.5 1147.5 c 128,-1,5
 860 1031 860 1031 860 866 c 1,6,-1
 939 866 l 1,7,-1
 939 779 l 1,8,-1
 866 779 l 1,9,-1
 860 744 l 1,10,11
 860 634 860 634 803 546.5 c 128,-1,12
 746 459 746 459 652 425 c 1,13,14
 702 397 702 397 729 345.5 c 128,-1,15
 756 294 756 294 756 234 c 0,16,17
 756 137 756 137 685.5 68.5 c 128,-1,18
 615 0 615 0 514 0 c 0,19,20
 334 0 334 0 207.5 228.5 c 128,-1,21
 81 457 81 457 81 779 c 1,22,-1
 -17 779 l 1,23,-1
 -17 866 l 1,24,-1
 81 866 l 1,0,1
774 866 m 1,25,26
 774 996 774 996 683.5 1086.5 c 128,-1,27
 593 1177 593 1177 462 1177 c 0,28,29
 341 1177 341 1177 254.5 1086.5 c 128,-1,30
 168 996 168 996 168 866 c 1,31,-1
 774 866 l 1,25,26
175 632.5 m 128,-1,33
 182 558 182 558 194 485 c 1,34,-1
 514 485 l 2,35,36
 622 485 622 485 698 561.5 c 128,-1,37
 774 638 774 638 774 744 c 2,38,-1
 774 779 l 1,39,-1
 168 779 l 1,40,32
 168 707 168 707 175 632.5 c 128,-1,33
335.5 173.5 m 128,-1,42
 419 87 419 87 514 87 c 0,43,44
 578 87 578 87 624 130 c 128,-1,45
 670 173 670 173 670 234 c 0,46,47
 670 301 670 301 614.5 349.5 c 128,-1,48
 559 398 559 398 479 398 c 2,49,-1
 214 398 l 1,50,41
 252 260 252 260 335.5 173.5 c 128,-1,42
254 -242 m 1,51,52
 316 -270 316 -270 381.5 -285 c 128,-1,53
 447 -300 447 -300 514 -300 c 0,54,55
 582 -300 582 -300 648 -285 c 128,-1,56
 714 -270 714 -270 774 -242 c 1,57,-1
 774 -329 l 1,58,59
 651 -386 651 -386 514 -386 c 128,-1,60
 377 -386 377 -386 254 -329 c 1,61,-1
 254 -242 l 1,51,52
254 -69 m 1,62,63
 377 -127 377 -127 514 -127 c 128,-1,64
 651 -127 651 -127 774 -69 c 1,65,-1
 774 -156 l 1,66,67
 651 -213 651 -213 514 -213 c 128,-1,68
 377 -213 377 -213 254 -156 c 1,69,-1
 254 -69 l 1,62,63
EndSplineSet
EndChar
StartChar: u0A0F
Encoding: 2575 2575 59
Width: 792
GlyphClass: 2
Flags: W
AnchorPoint: "Anchor-1" 692 830 basechar 0
Fore
811 866 m 1,0,-1
 811 779 l 1,1,-1
 680 779 l 1,2,-1
 680 415 l 1,3,-1
 403 415 l 2,4,5
 352 415 352 415 292 376.5 c 128,-1,6
 232 338 232 338 178 269 c 1,7,8
 238 184 238 184 311.5 135.5 c 128,-1,9
 385 87 385 87 455 87 c 0,10,11
 518 87 518 87 582 109.5 c 128,-1,12
 646 132 646 132 707 173 c 1,13,-1
 724 156 l 1,14,15
 662 81 662 81 587.5 40.5 c 128,-1,16
 513 0 513 0 438 0 c 0,17,18
 356 0 356 0 259 71 c 128,-1,19
 162 142 162 142 75 269 c 1,20,21
 127 342 127 342 175.5 390.5 c 128,-1,22
 224 439 224 439 265 459 c 1,23,24
 185 495 185 495 138.5 582.5 c 128,-1,25
 92 670 92 670 92 779 c 1,26,-1
 -17 779 l 1,27,-1
 -17 866 l 1,28,-1
 811 866 l 1,0,-1
244 583 m 128,-1,30
 310 502 310 502 403 502 c 2,31,-1
 594 502 l 1,32,-1
 594 779 l 1,33,-1
 178 779 l 1,34,29
 178 664 178 664 244 583 c 128,-1,30
170 1223.5 m 128,-1,36
 206 1246 206 1246 256 1246 c 0,37,38
 380 1246 380 1246 489 1151 c 128,-1,39
 598 1056 598 1056 655 900 c 1,40,-1
 621 900 l 1,41,42
 583 1003 583 1003 497 1064 c 128,-1,43
 411 1125 411 1125 308 1125 c 0,44,45
 293 1125 293 1125 265 1116.5 c 128,-1,46
 237 1108 237 1108 221 1108 c 0,47,48
 185 1108 185 1108 159.5 1126.5 c 128,-1,49
 134 1145 134 1145 134 1169 c 0,50,35
 134 1201 134 1201 170 1223.5 c 128,-1,36
EndSplineSet
EndChar
StartChar: u0A10
Encoding: 2576 2576 60
Width: 1070
GlyphClass: 2
Flags: W
AnchorPoint: "Anchor-1" 928 830 basechar 0
Fore
68 866 m 2,0,1
 133 866 133 866 191 804 c 128,-1,2
 249 742 249 742 276 640 c 1,3,-1
 276 615 l 1,4,5
 340 674 340 674 405.5 715 c 128,-1,6
 471 756 471 756 535 779 c 1,7,8
 570 684 570 684 587.5 606.5 c 128,-1,9
 605 529 605 529 605 467 c 1,10,11
 638 490 638 490 694 516 c 128,-1,12
 750 542 750 542 830 571 c 1,13,-1
 830 866 l 1,14,-1
 1089 866 l 1,15,-1
 1089 779 l 1,16,-1
 916 779 l 1,17,-1
 916 0 l 1,18,-1
 830 0 l 1,19,-1
 830 485 l 1,20,21
 771 469 771 469 713.5 439 c 128,-1,22
 656 409 656 409 605 364 c 1,23,24
 605 260 605 260 567 186.5 c 128,-1,25
 529 113 529 113 474 113 c 0,26,27
 438 113 438 113 412.5 135 c 128,-1,28
 387 157 387 157 387 190 c 0,29,30
 387 246 387 246 422 301 c 128,-1,31
 457 356 457 356 518 398 c 1,32,33
 518 479 518 479 509.5 545 c 128,-1,34
 501 611 501 611 483 658 c 1,35,36
 419 623 419 623 367.5 587 c 128,-1,37
 316 551 316 551 276 511 c 1,38,39
 276 403 276 403 235 327.5 c 128,-1,40
 194 252 194 252 137 252 c 0,41,42
 104 252 104 252 81.5 276.5 c 128,-1,43
 59 301 59 301 59 338 c 0,44,45
 59 385 59 385 93 439.5 c 128,-1,46
 127 494 127 494 189 546 c 1,47,48
 189 642 189 642 153 710.5 c 128,-1,49
 117 779 117 779 68 779 c 2,50,-1
 -17 779 l 1,51,-1
 -17 866 l 1,52,-1
 68 866 l 2,0,1
380 1278 m 128,-1,54
 415 1298 415 1298 466 1298 c 0,55,56
 578 1298 578 1298 696 1190.5 c 128,-1,57
 814 1083 814 1083 899 900 c 1,58,-1
 847 900 l 1,59,60
 806 941 806 941 749 964 c 128,-1,61
 692 987 692 987 630 987 c 0,62,63
 595 987 595 987 530.5 965.5 c 128,-1,64
 466 944 466 944 431 944 c 0,65,66
 402 944 402 944 382 959.5 c 128,-1,67
 362 975 362 975 362 996 c 0,68,69
 362 1025 362 1025 405.5 1045 c 128,-1,70
 449 1065 449 1065 509 1065 c 0,71,72
 605 1065 605 1065 692 1031 c 128,-1,73
 779 997 779 997 847 935 c 1,74,75
 774 1060 774 1060 690.5 1132 c 128,-1,76
 607 1204 607 1204 535 1204 c 0,77,78
 517 1204 517 1204 479.5 1195 c 128,-1,79
 442 1186 442 1186 422 1186 c 0,80,81
 390 1186 390 1186 367.5 1199 c 128,-1,82
 345 1212 345 1212 345 1229 c 0,83,53
 345 1258 345 1258 380 1278 c 128,-1,54
EndSplineSet
EndChar
StartChar: u0A13
Encoding: 2579 2579 61
Width: 922
GlyphClass: 2
Flags: W
AnchorPoint: "Anchor-1" 830 830 basechar 0
Fore
81 866 m 1,0,1
 81 1031 81 1031 207.5 1147.5 c 128,-1,2
 334 1264 334 1264 514 1264 c 2,3,-1
 858 1264 l 1,4,-1
 858 1177 l 1,5,-1
 514 1177 l 2,6,7
 370 1177 370 1177 269 1086.5 c 128,-1,8
 168 996 168 996 168 866 c 1,9,-1
 940 866 l 1,10,-1
 940 779 l 1,11,-1
 860 779 l 1,12,-1
 860 744 l 2,13,14
 860 629 860 629 805.5 539 c 128,-1,15
 751 449 751 449 662 415 c 1,16,17
 707 385 707 385 731.5 336.5 c 128,-1,18
 756 288 756 288 756 234 c 0,19,20
 756 137 756 137 685.5 68.5 c 128,-1,21
 615 0 615 0 514 0 c 0,22,23
 334 0 334 0 207.5 228.5 c 128,-1,24
 81 457 81 457 81 779 c 1,25,-1
 -17 779 l 1,26,-1
 -17 866 l 1,27,-1
 81 866 l 1,0,1
175 632.5 m 128,-1,29
 182 558 182 558 194 485 c 1,30,-1
 514 485 l 2,31,32
 622 485 622 485 698 561.5 c 128,-1,33
 774 638 774 638 774 744 c 2,34,-1
 774 779 l 1,35,-1
 168 779 l 1,36,28
 168 707 168 707 175 632.5 c 128,-1,29
335.5 173.5 m 128,-1,38
 419 87 419 87 514 87 c 0,39,40
 578 87 578 87 624 130 c 128,-1,41
 670 173 670 173 670 234 c 0,42,43
 670 301 670 301 614.5 349.5 c 128,-1,44
 559 398 559 398 479 398 c 2,45,-1
 214 398 l 1,46,37
 252 260 252 260 335.5 173.5 c 128,-1,38
EndSplineSet
EndChar
StartChar: u0A14
Encoding: 2580 2580 62
Width: 1070
GlyphClass: 2
Flags: W
AnchorPoint: "Anchor-1" 1107 830 basechar 0
Fore
68 866 m 2,0,1
 133 866 133 866 191 804 c 128,-1,2
 249 742 249 742 276 640 c 1,3,-1
 276 615 l 1,4,5
 340 674 340 674 405.5 715 c 128,-1,6
 471 756 471 756 535 779 c 1,7,8
 570 684 570 684 587.5 606.5 c 128,-1,9
 605 529 605 529 605 467 c 1,10,11
 638 490 638 490 694 516 c 128,-1,12
 750 542 750 542 830 571 c 1,13,-1
 830 866 l 1,14,-1
 1089 866 l 1,15,-1
 1089 779 l 1,16,-1
 916 779 l 1,17,-1
 916 0 l 1,18,-1
 830 0 l 1,19,-1
 830 485 l 1,20,21
 771 469 771 469 713.5 439 c 128,-1,22
 656 409 656 409 605 364 c 1,23,24
 605 260 605 260 567 186.5 c 128,-1,25
 529 113 529 113 474 113 c 0,26,27
 438 113 438 113 412.5 135 c 128,-1,28
 387 157 387 157 387 190 c 0,29,30
 387 246 387 246 422 301 c 128,-1,31
 457 356 457 356 518 398 c 1,32,33
 518 479 518 479 509.5 545 c 128,-1,34
 501 611 501 611 483 658 c 1,35,36
 419 623 419 623 367.5 587 c 128,-1,37
 316 551 316 551 276 511 c 1,38,39
 276 403 276 403 235 327.5 c 128,-1,40
 194 252 194 252 137 252 c 0,41,42
 104 252 104 252 81.5 276.5 c 128,-1,43
 59 301 59 301 59 338 c 0,44,45
 59 385 59 385 93 439.5 c 128,-1,46
 127 494 127 494 189 546 c 1,47,48
 189 642 189 642 153 710.5 c 128,-1,49
 117 779 117 779 68 779 c 2,50,-1
 -17 779 l 1,51,-1
 -17 866 l 1,52,-1
 68 866 l 2,0,1
721 1101.5 m 128,-1,54
 726 1119 726 1119 734 1135 c 1,55,-1
 647 1135 l 2,56,57
 599 1135 599 1135 560 1178.5 c 128,-1,58
 521 1222 521 1222 509 1290 c 1,59,-1
 534 1298 l 1,60,61
 549 1264 549 1264 580 1242.5 c 128,-1,62
 611 1221 611 1221 647 1221 c 2,63,-1
 872 1221 l 2,64,65
 929 1221 929 1221 970 1175 c 128,-1,66
 1011 1129 1011 1129 1011 1065 c 0,67,68
 1011 1009 1011 1009 981.5 968 c 128,-1,69
 952 927 952 927 907 917 c 1,70,-1
 907 952 l 1,71,72
 932 961 932 961 945.5 982.5 c 128,-1,73
 959 1004 959 1004 959 1031 c 0,74,75
 959 1073 959 1073 934 1104 c 128,-1,76
 909 1135 909 1135 872 1135 c 0,77,78
 836 1135 836 1135 811 1104 c 128,-1,79
 786 1073 786 1073 786 1031 c 0,80,81
 786 1004 786 1004 800 982.5 c 128,-1,82
 814 961 814 961 838 952 c 1,83,-1
 838 917 l 1,84,85
 786 927 786 927 751 968 c 128,-1,86
 716 1009 716 1009 716 1065 c 0,87,53
 716 1084 716 1084 721 1101.5 c 128,-1,54
EndSplineSet
EndChar
StartChar: u0A15
Encoding: 2581 2581 63
Width: 842
GlyphClass: 2
Flags: W
Fore
860 866 m 1,0,-1
 860 779 l 1,1,-1
 720 779 l 1,2,3
 720 655 720 655 693.5 544.5 c 128,-1,4
 667 434 667 434 617 346 c 1,5,6
 667 273 667 273 693.5 185 c 128,-1,7
 720 97 720 97 720 0 c 1,8,-1
 634 0 l 1,9,10
 634 73 634 73 616.5 141 c 128,-1,11
 599 209 599 209 565 269 c 1,12,13
 517 212 517 212 449.5 173 c 128,-1,14
 382 134 382 134 305 121 c 1,15,16
 204 121 204 121 133.5 187 c 128,-1,17
 63 253 63 253 63 346 c 256,18,19
 63 439 63 439 133.5 505 c 128,-1,20
 204 571 204 571 305 571 c 0,21,22
 373 571 373 571 441 535 c 128,-1,23
 509 499 509 499 565 433 c 1,24,25
 599 491 599 491 616.5 579.5 c 128,-1,26
 634 668 634 668 634 779 c 1,27,-1
 -17 779 l 1,28,-1
 -17 866 l 1,29,-1
 860 866 l 1,0,-1
195 248.5 m 128,-1,31
 241 208 241 208 305 208 c 0,32,33
 370 208 370 208 430 248 c 128,-1,34
 490 288 490 288 530 356 c 1,35,36
 495 415 495 415 434.5 450 c 128,-1,37
 374 485 374 485 305 485 c 0,38,39
 241 485 241 485 195 444 c 128,-1,40
 149 403 149 403 149 346 c 256,41,30
 149 289 149 289 195 248.5 c 128,-1,31
EndSplineSet
EndChar
StartChar: u0A16
Encoding: 2582 2582 64
Width: 825
GlyphClass: 2
Flags: W
Fore
177 866 m 1,0,1
 206 802 206 802 221.5 736 c 128,-1,2
 237 670 237 670 237 606 c 1,3,-1
 583 606 l 1,4,-1
 583 866 l 1,5,-1
 843 866 l 1,6,-1
 843 779 l 1,7,-1
 670 779 l 1,8,-1
 670 0 l 1,9,-1
 583 0 l 1,10,-1
 583 190 l 1,11,12
 538 165 538 165 494.5 151.5 c 128,-1,13
 451 138 451 138 410 138 c 0,14,15
 328 138 328 138 236 202 c 128,-1,16
 144 266 144 266 64 381 c 1,17,18
 105 442 105 442 127.5 494.5 c 128,-1,19
 150 547 150 547 150 589 c 0,20,21
 150 646 150 646 141.5 694.5 c 128,-1,22
 133 743 133 743 116 779 c 1,23,-1
 -17 779 l 1,24,-1
 -17 866 l 1,25,-1
 177 866 l 1,0,1
284 266.5 m 128,-1,27
 348 225 348 225 410 225 c 0,28,29
 450 225 450 225 494 239.5 c 128,-1,30
 538 254 538 254 583 282 c 1,31,-1
 583 519 l 1,32,-1
 229 519 l 1,33,34
 224 485 224 485 208 450 c 128,-1,35
 192 415 192 415 168 381 c 1,36,26
 220 308 220 308 284 266.5 c 128,-1,27
EndSplineSet
EndChar
StartChar: u0A17
Encoding: 2583 2583 65
Width: 962
GlyphClass: 2
Flags: W
Fore
980 866 m 1,0,-1
 980 779 l 1,1,-1
 807 779 l 1,2,-1
 807 0 l 1,3,-1
 720 0 l 1,4,-1
 720 779 l 1,5,-1
 547 779 l 1,6,-1
 547 208 l 2,7,8
 547 137 547 137 498.5 86 c 128,-1,9
 450 35 450 35 382 35 c 0,10,11
 304 35 304 35 183.5 165.5 c 128,-1,12
 63 296 63 296 63 381 c 0,13,14
 63 461 63 461 114 516 c 128,-1,15
 165 571 165 571 236 571 c 2,16,-1
 461 571 l 1,17,-1
 461 779 l 1,18,-1
 -17 779 l 1,19,-1
 -17 866 l 1,20,-1
 980 866 l 1,0,-1
237 219 m 128,-1,22
 325 121 325 121 382 121 c 0,23,24
 415 121 415 121 438 146.5 c 128,-1,25
 461 172 461 172 461 208 c 2,26,-1
 461 485 l 1,27,-1
 236 485 l 2,28,29
 200 485 200 485 174.5 455 c 128,-1,30
 149 425 149 425 149 381 c 0,31,21
 149 317 149 317 237 219 c 128,-1,22
EndSplineSet
EndChar
StartChar: u0A18
Encoding: 2584 2584 66
Width: 1014
GlyphClass: 2
Flags: W
Fore
184 866 m 1,0,1
 218 807 218 807 235.5 741 c 128,-1,2
 253 675 253 675 253 606 c 0,3,4
 253 549 253 549 233 485 c 128,-1,5
 213 421 213 421 174 356 c 1,6,7
 220 301 220 301 263 271.5 c 128,-1,8
 306 242 306 242 340 242 c 0,9,10
 365 242 365 242 398 279.5 c 128,-1,11
 431 317 431 317 461 381 c 1,12,13
 434 451 434 451 421.5 512 c 128,-1,14
 409 573 409 573 409 623 c 0,15,16
 409 724 409 724 439 795 c 128,-1,17
 469 866 469 866 513 866 c 0,18,19
 549 866 549 866 574 795 c 128,-1,20
 599 724 599 724 599 623 c 0,21,22
 599 573 599 573 586 512 c 128,-1,23
 573 451 573 451 547 381 c 1,24,25
 566 312 566 312 594.5 268.5 c 128,-1,26
 623 225 623 225 651 225 c 256,27,28
 679 225 679 225 711.5 253 c 128,-1,29
 744 281 744 281 772 329 c 1,30,-1
 772 866 l 1,31,-1
 1032 866 l 1,32,-1
 1032 779 l 1,33,-1
 859 779 l 1,34,-1
 859 0 l 1,35,-1
 772 0 l 1,36,-1
 772 200 l 1,37,38
 748 169 748 169 716 153.5 c 128,-1,39
 684 138 684 138 651 138 c 0,40,41
 606 138 606 138 563.5 171 c 128,-1,42
 521 204 521 204 495 260 c 1,43,44
 467 212 467 212 426 184 c 128,-1,45
 385 156 385 156 340 156 c 0,46,47
 265 156 265 156 190.5 210 c 128,-1,48
 116 264 116 264 63 356 c 1,49,50
 113 427 113 427 139.5 491 c 128,-1,51
 166 555 166 555 166 606 c 0,52,53
 166 634 166 634 155 677 c 128,-1,54
 144 720 144 720 123 779 c 1,55,-1
 -17 779 l 1,56,-1
 -17 866 l 1,57,-1
 184 866 l 1,0,1
EndSplineSet
EndChar
StartChar: u0A19
Encoding: 2585 2585 67
Width: 842
GlyphClass: 2
Flags: W
Fore
860 866 m 1,0,-1
 860 779 l 1,1,-1
 212 779 l 1,2,-1
 212 640 l 1,3,-1
 541 640 l 2,4,5
 627 640 627 640 687.5 585 c 128,-1,6
 748 530 748 530 748 450 c 0,7,8
 748 385 748 385 719 323 c 128,-1,9
 690 261 690 261 635 217 c 1,10,11
 664 182 664 182 693 127.5 c 128,-1,12
 722 73 722 73 748 0 c 1,13,-1
 662 0 l 1,14,15
 647 51 647 51 626 94.5 c 128,-1,16
 605 138 605 138 575 173 c 1,17,18
 525 132 525 132 453.5 109.5 c 128,-1,19
 382 87 382 87 298 87 c 0,20,21
 212 87 212 87 151.5 142 c 128,-1,22
 91 197 91 197 91 277 c 256,23,24
 91 357 91 357 151.5 412 c 128,-1,25
 212 467 212 467 298 467 c 0,26,27
 387 467 387 467 466.5 420.5 c 128,-1,28
 546 374 546 374 593 294 c 1,29,30
 625 334 625 334 643.5 374 c 128,-1,31
 662 414 662 414 662 450 c 0,32,33
 662 494 662 494 626 524 c 128,-1,34
 590 554 590 554 541 554 c 2,35,-1
 125 554 l 1,36,-1
 125 779 l 1,37,-1
 -17 779 l 1,38,-1
 -17 866 l 1,39,-1
 860 866 l 1,0,-1
212.5 203.5 m 128,-1,41
 248 173 248 173 298 173 c 0,42,43
 376 173 376 173 438.5 191 c 128,-1,44
 501 209 501 209 541 242 c 1,45,46
 503 306 503 306 438.5 343.5 c 128,-1,47
 374 381 374 381 298 381 c 0,48,49
 248 381 248 381 212.5 351 c 128,-1,50
 177 321 177 321 177 277 c 0,51,40
 177 234 177 234 212.5 203.5 c 128,-1,41
EndSplineSet
EndChar
StartChar: u0A1A
Encoding: 2586 2586 68
Width: 854
GlyphClass: 2
Flags: W
Fore
872 866 m 1,0,-1
 872 779 l 1,1,-1
 710 779 l 1,2,-1
 710 208 l 2,3,4
 710 121 710 121 658.5 60.5 c 128,-1,5
 607 0 607 0 537 0 c 0,6,7
 419 0 419 0 287.5 138 c 128,-1,8
 156 276 156 276 156 398 c 1,9,-1
 96 398 l 2,10,11
 71 398 71 398 53 411.5 c 128,-1,12
 35 425 35 425 35 442 c 0,13,14
 35 483 35 483 93.5 544.5 c 128,-1,15
 152 606 152 606 190 606 c 0,16,17
 212 606 212 606 227 590.5 c 128,-1,18
 242 575 242 575 242 554 c 2,19,-1
 242 485 l 1,20,-1
 623 485 l 1,21,-1
 623 779 l 1,22,-1
 -17 779 l 1,23,-1
 -17 866 l 1,24,-1
 872 866 l 1,0,-1
623 398 m 1,25,-1
 242 398 l 1,26,27
 242 301 242 301 343.5 194 c 128,-1,28
 445 87 445 87 537 87 c 0,29,30
 573 87 573 87 598 122 c 128,-1,31
 623 157 623 157 623 208 c 2,32,-1
 623 398 l 1,25,-1
EndSplineSet
EndChar
StartChar: u0A1B
Encoding: 2587 2587 69
Width: 897
GlyphClass: 2
Flags: W
Fore
916 866 m 1,0,-1
 916 779 l 1,1,-1
 791 779 l 1,2,-1
 791 519 l 1,3,-1
 289 519 l 2,4,5
 260 519 260 519 240 499 c 128,-1,6
 220 479 220 479 220 450 c 256,7,8
 220 421 220 421 240 401 c 128,-1,9
 260 381 260 381 289 381 c 2,10,-1
 601 381 l 2,11,12
 680 381 680 381 735.5 325.5 c 128,-1,13
 791 270 791 270 791 190 c 0,14,15
 791 111 791 111 735.5 55.5 c 128,-1,16
 680 0 680 0 601 0 c 2,17,-1
 272 0 l 2,18,19
 192 0 192 0 136.5 55.5 c 128,-1,20
 81 111 81 111 81 190 c 0,21,22
 81 238 81 238 109 281.5 c 128,-1,23
 137 325 137 325 185 353 c 1,24,25
 161 374 161 374 147 399.5 c 128,-1,26
 133 425 133 425 133 450 c 0,27,28
 133 514 133 514 179 560 c 128,-1,29
 225 606 225 606 289 606 c 2,30,-1
 704 606 l 1,31,-1
 704 779 l 1,32,-1
 -17 779 l 1,33,-1
 -17 866 l 1,34,-1
 916 866 l 1,0,-1
198.5 117.5 m 128,-1,36
 229 87 229 87 272 87 c 2,37,-1
 393 87 l 1,38,-1
 393 294 l 1,39,-1
 272 294 l 2,40,41
 229 294 229 294 198.5 264 c 128,-1,42
 168 234 168 234 168 190 c 0,43,35
 168 148 168 148 198.5 117.5 c 128,-1,36
674 264 m 128,-1,45
 644 294 644 294 601 294 c 2,46,-1
 479 294 l 1,47,-1
 479 87 l 1,48,-1
 601 87 l 2,49,50
 644 87 644 87 674 117.5 c 128,-1,51
 704 148 704 148 704 190 c 0,52,44
 704 234 704 234 674 264 c 128,-1,45
EndSplineSet
EndChar
StartChar: u0A1C
Encoding: 2588 2588 70
Width: 836
GlyphClass: 2
Flags: W
Fore
854 866 m 1,0,-1
 854 779 l 1,1,-1
 680 779 l 1,2,-1
 680 0 l 1,3,-1
 594 0 l 1,4,-1
 594 329 l 1,5,-1
 265 329 l 1,6,-1
 265 0 l 1,7,-1
 178 0 l 1,8,-1
 178 329 l 1,9,-1
 83 329 l 2,10,11
 65 329 65 329 52.5 342.5 c 128,-1,12
 40 356 40 356 40 373 c 0,13,14
 40 417 40 417 104.5 485.5 c 128,-1,15
 169 554 169 554 213 554 c 0,16,17
 234 554 234 554 249.5 538.5 c 128,-1,18
 265 523 265 523 265 502 c 2,19,-1
 265 415 l 1,20,-1
 594 415 l 1,21,-1
 594 779 l 1,22,-1
 -17 779 l 1,23,-1
 -17 866 l 1,24,-1
 854 866 l 1,0,-1
EndSplineSet
EndChar
StartChar: u0A1D
Encoding: 2589 2589 71
Width: 759
GlyphClass: 2
Flags: W
Fore
778 866 m 1,0,-1
 778 779 l 1,1,-1
 662 779 l 1,2,3
 662 675 662 675 628.5 596.5 c 128,-1,4
 595 518 595 518 541 485 c 1,5,6
 595 466 595 466 628.5 425.5 c 128,-1,7
 662 385 662 385 662 338 c 0,8,9
 662 248 662 248 591.5 180.5 c 128,-1,10
 521 113 521 113 419 104 c 1,11,-1
 523 0 l 1,12,-1
 410 0 l 1,13,-1
 298 104 l 1,14,-1
 229 104 l 2,15,16
 172 104 172 104 131.5 132 c 128,-1,17
 91 160 91 160 91 200 c 0,18,19
 91 232 91 232 112.5 254.5 c 128,-1,20
 134 277 134 277 168 277 c 0,21,22
 206 277 206 277 248 254.5 c 128,-1,23
 290 232 290 232 333 190 c 1,24,25
 433 190 433 190 504 233.5 c 128,-1,26
 575 277 575 277 575 338 c 0,27,28
 575 380 575 380 512 409 c 128,-1,29
 449 438 449 438 358 438 c 0,30,31
 290 438 290 438 231 431.5 c 128,-1,32
 172 425 172 425 120 410 c 1,33,-1
 73 485 l 1,34,35
 128 501 128 501 170 509.5 c 128,-1,36
 212 518 212 518 237 519 c 1,37,38
 182 554 182 554 139.5 622 c 128,-1,39
 97 690 97 690 73 779 c 1,40,-1
 -17 779 l 1,41,-1
 -17 866 l 1,42,-1
 778 866 l 1,0,-1
251.5 593 m 128,-1,44
 325 519 325 519 419 519 c 0,45,46
 483 519 483 519 529 595.5 c 128,-1,47
 575 672 575 672 575 779 c 1,48,-1
 160 779 l 1,49,43
 178 667 178 667 251.5 593 c 128,-1,44
EndSplineSet
EndChar
StartChar: u0A1E
Encoding: 2590 2590 72
Width: 836
GlyphClass: 2
Flags: W
Fore
854 866 m 1,0,-1
 854 779 l 1,1,-1
 750 779 l 1,2,-1
 750 519 l 1,3,-1
 248 519 l 2,4,5
 212 519 212 519 186.5 494 c 128,-1,6
 161 469 161 469 161 433 c 256,7,8
 161 397 161 397 186.5 371.5 c 128,-1,9
 212 346 212 346 248 346 c 2,10,-1
 750 346 l 1,11,-1
 750 260 l 1,12,-1
 386 260 l 1,13,14
 386 189 386 189 437.5 138 c 128,-1,15
 489 87 489 87 559 87 c 2,16,-1
 750 87 l 1,17,-1
 750 0 l 1,18,-1
 559 0 l 2,19,20
 451 0 451 0 375.5 76 c 128,-1,21
 300 152 300 152 300 260 c 1,22,-1
 248 260 l 2,23,24
 177 260 177 260 126 311 c 128,-1,25
 75 362 75 362 75 433 c 0,26,27
 75 497 75 497 113.5 546 c 128,-1,28
 152 595 152 595 213 606 c 1,29,30
 165 634 165 634 134 679 c 128,-1,31
 103 724 103 724 92 779 c 1,32,-1
 -17 779 l 1,33,-1
 -17 866 l 1,34,-1
 854 866 l 1,0,-1
178 779 m 1,35,36
 194 719 194 719 245 672 c 128,-1,37
 296 625 296 625 369 606 c 1,38,-1
 663 606 l 1,39,-1
 663 779 l 1,40,-1
 178 779 l 1,35,36
EndSplineSet
EndChar
StartChar: u0A1F
Encoding: 2591 2591 73
Width: 757
GlyphClass: 2
Flags: W
Fore
776 866 m 1,0,-1
 776 779 l 1,1,-1
 656 779 l 1,2,-1
 656 502 l 1,3,4
 478 502 478 502 340 444 c 128,-1,5
 202 386 202 386 145 286 c 1,6,7
 200 194 200 194 276 140.5 c 128,-1,8
 352 87 352 87 431 87 c 0,9,10
 497 87 497 87 560 113.5 c 128,-1,11
 623 140 623 140 674 190 c 1,12,-1
 699 165 l 1,13,14
 634 87 634 87 564 43.5 c 128,-1,15
 494 0 494 0 431 0 c 0,16,17
 333 0 333 0 229 76 c 128,-1,18
 125 152 125 152 41 286 c 1,19,20
 121 422 121 422 262 501.5 c 128,-1,21
 403 581 403 581 570 581 c 1,22,-1
 570 779 l 1,23,-1
 -17 779 l 1,24,-1
 -17 866 l 1,25,-1
 776 866 l 1,0,-1
EndSplineSet
EndChar
StartChar: u0A20
Encoding: 2592 2592 74
Width: 830
GlyphClass: 2
Flags: W
AnchorPoint: "Anchor-0" 411 820 basechar 0
Fore
848 866 m 1,0,-1
 848 779 l 1,1,-1
 459 779 l 1,2,-1
 459 571 l 1,3,4
 601 506 601 506 686 417 c 128,-1,5
 771 328 771 328 771 242 c 0,6,7
 771 142 771 142 667 71 c 128,-1,8
 563 0 563 0 415 0 c 0,9,10
 269 0 269 0 165 71 c 128,-1,11
 61 142 61 142 61 242 c 0,12,13
 61 328 61 328 145.5 417 c 128,-1,14
 230 506 230 506 373 571 c 1,15,-1
 373 779 l 1,16,-1
 -17 779 l 1,17,-1
 -17 866 l 1,18,-1
 848 866 l 1,0,-1
226.5 132.5 m 128,-1,20
 305 87 305 87 415 87 c 0,21,22
 526 87 526 87 605 132.5 c 128,-1,23
 684 178 684 178 684 242 c 0,24,25
 684 304 684 304 583 394.5 c 128,-1,26
 482 485 482 485 415 485 c 0,27,28
 350 485 350 485 249 394.5 c 128,-1,29
 148 304 148 304 148 242 c 0,30,19
 148 178 148 178 226.5 132.5 c 128,-1,20
EndSplineSet
EndChar
StartChar: u0A21
Encoding: 2593 2593 75
Width: 825
GlyphClass: 2
Flags: W
Fore
843 866 m 1,0,-1
 843 779 l 1,1,-1
 686 779 l 1,2,3
 694 763 694 763 698.5 745.5 c 128,-1,4
 703 728 703 728 703 710 c 0,5,6
 703 650 703 650 675 598.5 c 128,-1,7
 647 547 647 547 599 519 c 1,8,9
 655 486 655 486 687.5 427 c 128,-1,10
 720 368 720 368 720 294 c 0,11,12
 720 173 720 173 598.5 86.5 c 128,-1,13
 477 0 477 0 305 0 c 0,14,15
 204 0 204 0 133.5 55.5 c 128,-1,16
 63 111 63 111 63 190 c 0,17,18
 63 254 63 254 123.5 300 c 128,-1,19
 184 346 184 346 270 346 c 0,20,21
 341 346 341 346 421 299 c 128,-1,22
 501 252 501 252 573 165 c 1,23,24
 603 194 603 194 618.5 227.5 c 128,-1,25
 634 261 634 261 634 294 c 0,26,27
 634 342 634 342 601.5 388 c 128,-1,28
 569 434 569 434 513 467 c 1,29,30
 479 459 479 459 432 454.5 c 128,-1,31
 385 450 385 450 322 450 c 0,32,33
 236 450 236 450 175.5 475.5 c 128,-1,34
 115 501 115 501 115 537 c 0,35,36
 115 566 115 566 160.5 586 c 128,-1,37
 206 606 206 606 270 606 c 0,38,39
 318 606 318 606 372.5 594.5 c 128,-1,40
 427 583 427 583 486 563 c 1,41,42
 546 590 546 590 581.5 630 c 128,-1,43
 617 670 617 670 617 710 c 0,44,45
 617 728 617 728 610 745.5 c 128,-1,46
 603 763 603 763 590 779 c 1,47,-1
 -17 779 l 1,48,-1
 -17 866 l 1,49,-1
 843 866 l 1,0,-1
195 114.5 m 128,-1,51
 241 87 241 87 305 87 c 0,52,53
 357 87 357 87 411.5 100 c 128,-1,54
 466 113 466 113 521 138 c 1,55,56
 451 197 451 197 386.5 228.5 c 128,-1,57
 322 260 322 260 270 260 c 0,58,59
 220 260 220 260 184.5 237 c 128,-1,60
 149 214 149 214 149 182 c 0,61,50
 149 142 149 142 195 114.5 c 128,-1,51
EndSplineSet
EndChar
StartChar: u0A22
Encoding: 2594 2594 76
Width: 882
GlyphClass: 2
Flags: W
Fore
900 866 m 1,0,-1
 900 779 l 1,1,-1
 763 779 l 1,2,-1
 763 450 l 1,3,-1
 244 450 l 1,4,5
 244 370 244 370 278 294 c 128,-1,6
 312 218 312 218 374 156 c 1,7,8
 429 221 429 221 502 257.5 c 128,-1,9
 575 294 575 294 651 294 c 0,10,11
 704 294 704 294 742 259 c 128,-1,12
 780 224 780 224 780 173 c 0,13,14
 780 103 780 103 719.5 51.5 c 128,-1,15
 659 0 659 0 573 0 c 0,16,17
 402 0 402 0 279.5 132 c 128,-1,18
 157 264 157 264 157 450 c 1,19,-1
 88 450 l 2,20,21
 68 450 68 450 52 466 c 128,-1,22
 36 482 36 482 36 502 c 0,23,24
 36 541 36 541 95 599.5 c 128,-1,25
 154 658 154 658 192 658 c 0,26,27
 213 658 213 658 228.5 640 c 128,-1,28
 244 622 244 622 244 598 c 2,29,-1
 244 537 l 1,30,-1
 676 537 l 1,31,-1
 676 779 l 1,32,-1
 -17 779 l 1,33,-1
 -17 866 l 1,34,-1
 900 866 l 1,0,-1
511 82.5 m 128,-1,36
 551 69 551 69 590 69 c 0,37,38
 640 69 640 69 675.5 97 c 128,-1,39
 711 125 711 125 711 165 c 0,40,41
 711 189 711 189 686.5 207 c 128,-1,42
 662 225 662 225 625 225 c 0,43,44
 571 225 571 225 521 197 c 128,-1,45
 471 169 471 169 434 121 c 1,46,35
 471 96 471 96 511 82.5 c 128,-1,36
EndSplineSet
EndChar
StartChar: u0A23
Encoding: 2595 2595 77
Width: 878
GlyphClass: 2
Flags: W
Fore
897 866 m 1,0,-1
 897 779 l 1,1,-1
 459 779 l 1,2,3
 526 711 526 711 616.5 657 c 128,-1,4
 707 603 707 603 814 563 c 1,5,-1
 814 467 l 1,6,7
 767 485 767 485 717.5 508 c 128,-1,8
 668 531 668 531 615 563 c 1,9,10
 594 526 594 526 582.5 470.5 c 128,-1,11
 571 415 571 415 571 346 c 1,12,13
 521 397 521 397 471.5 423.5 c 128,-1,14
 422 450 422 450 381 450 c 0,15,16
 329 450 329 450 267.5 411.5 c 128,-1,17
 206 373 206 373 148 304 c 1,18,19
 234 201 234 201 331.5 144 c 128,-1,20
 429 87 429 87 519 87 c 0,21,22
 593 87 593 87 668.5 118 c 128,-1,23
 744 149 744 149 814 208 c 1,24,-1
 840 182 l 1,25,26
 754 96 754 96 661.5 48 c 128,-1,27
 569 0 569 0 485 0 c 0,28,29
 391 0 391 0 273.5 80 c 128,-1,30
 156 160 156 160 35 304 c 1,31,32
 128 414 128 414 214.5 475.5 c 128,-1,33
 301 537 301 537 364 537 c 0,34,35
 407 537 407 537 445 525.5 c 128,-1,36
 483 514 483 514 511 494 c 1,37,38
 511 526 511 526 518 554.5 c 128,-1,39
 525 583 525 583 537 606 c 1,40,41
 513 621 513 621 447.5 677.5 c 128,-1,42
 382 734 382 734 329 779 c 1,43,-1
 -17 779 l 1,44,-1
 -17 866 l 1,45,-1
 897 866 l 1,0,-1
EndSplineSet
EndChar
StartChar: u0A24
Encoding: 2596 2596 78
Width: 821
GlyphClass: 2
Flags: W
Fore
840 866 m 1,0,-1
 840 779 l 1,1,-1
 686 779 l 1,2,3
 704 668 704 668 675.5 573.5 c 128,-1,4
 647 479 647 479 578 433 c 1,5,6
 639 405 639 405 675 346.5 c 128,-1,7
 711 288 711 288 711 217 c 0,8,9
 711 127 711 127 630 63.5 c 128,-1,10
 549 0 549 0 434 0 c 0,11,12
 328 0 328 0 221.5 57.5 c 128,-1,13
 115 115 115 115 28 217 c 1,14,-1
 53 242 l 1,15,16
 134 168 134 168 228 127.5 c 128,-1,17
 322 87 322 87 417 87 c 0,18,19
 503 87 503 87 564 124.5 c 128,-1,20
 625 162 625 162 625 217 c 0,21,22
 625 269 625 269 587 313.5 c 128,-1,23
 549 358 549 358 486 381 c 1,24,25
 439 364 439 364 390.5 355 c 128,-1,26
 342 346 342 346 296 346 c 0,27,28
 225 346 225 346 174 371.5 c 128,-1,29
 123 397 123 397 123 433 c 256,30,31
 123 469 123 469 174 494 c 128,-1,32
 225 519 225 519 296 519 c 0,33,34
 321 519 321 519 368 506.5 c 128,-1,35
 415 494 415 494 486 467 c 1,36,37
 569 525 569 525 598 613.5 c 128,-1,38
 627 702 627 702 590 779 c 1,39,-1
 -17 779 l 1,40,-1
 -17 866 l 1,41,-1
 840 866 l 1,0,-1
EndSplineSet
EndChar
StartChar: u0A25
Encoding: 2597 2597 79
Width: 802
GlyphClass: 2
Flags: W
Fore
820 866 m 1,0,-1
 820 779 l 1,1,-1
 647 779 l 1,2,-1
 647 0 l 1,3,-1
 561 0 l 1,4,-1
 561 190 l 1,5,6
 525 165 525 165 485 151.5 c 128,-1,7
 445 138 445 138 405 138 c 0,8,9
 322 138 322 138 230 202 c 128,-1,10
 138 266 138 266 59 381 c 1,11,12
 109 437 109 437 135.5 500 c 128,-1,13
 162 563 162 563 162 623 c 0,14,15
 162 659 162 659 144.5 699 c 128,-1,16
 127 739 127 739 93 779 c 1,17,-1
 -17 779 l 1,18,-1
 -17 866 l 1,19,-1
 820 866 l 1,0,-1
240.5 670.5 m 128,-1,21
 252 613 252 613 241 554 c 1,22,-1
 561 554 l 1,23,-1
 561 779 l 1,24,-1
 197 779 l 1,25,20
 229 728 229 728 240.5 670.5 c 128,-1,21
205 420.5 m 128,-1,27
 192 394 192 394 172 364 c 1,28,29
 226 298 226 298 288 261.5 c 128,-1,30
 350 225 350 225 405 225 c 0,31,32
 442 225 442 225 481.5 243 c 128,-1,33
 521 261 521 261 561 294 c 1,34,-1
 561 467 l 1,35,-1
 224 467 l 1,36,26
 218 447 218 447 205 420.5 c 128,-1,27
EndSplineSet
EndChar
StartChar: u0A26
Encoding: 2598 2598 80
Width: 880
GlyphClass: 2
Flags: W
Fore
899 866 m 1,0,-1
 899 779 l 1,1,-1
 762 779 l 1,2,-1
 762 381 l 1,3,-1
 242 381 l 1,4,5
 242 260 242 260 323.5 173.5 c 128,-1,6
 405 87 405 87 519 87 c 0,7,8
 590 87 590 87 655 109.5 c 128,-1,9
 720 132 720 132 771 173 c 1,10,-1
 806 148 l 1,11,12
 746 79 746 79 672 39.5 c 128,-1,13
 598 0 598 0 519 0 c 0,14,15
 369 0 369 0 262.5 112 c 128,-1,16
 156 224 156 224 156 381 c 1,17,-1
 96 381 l 2,18,19
 71 381 71 381 53 391.5 c 128,-1,20
 35 402 35 402 35 415 c 0,21,22
 35 459 35 459 96 524 c 128,-1,23
 157 589 157 589 200 589 c 0,24,25
 217 589 217 589 229.5 573.5 c 128,-1,26
 242 558 242 558 242 537 c 2,27,-1
 242 467 l 1,28,-1
 675 467 l 1,29,-1
 675 779 l 1,30,-1
 -17 779 l 1,31,-1
 -17 866 l 1,32,-1
 899 866 l 1,0,-1
EndSplineSet
EndChar
StartChar: u0A27
Encoding: 2599 2599 81
Width: 802
GlyphClass: 2
Flags: W
Fore
-17 866 m 1,0,-1
 820 866 l 1,1,-1
 820 779 l 1,2,-1
 647 779 l 1,3,-1
 647 0 l 1,4,-1
 561 0 l 1,5,-1
 561 190 l 1,6,7
 525 165 525 165 485 151.5 c 128,-1,8
 445 138 445 138 405 138 c 0,9,10
 322 138 322 138 230 202 c 128,-1,11
 138 266 138 266 59 381 c 1,12,13
 109 437 109 437 135.5 500 c 128,-1,14
 162 563 162 563 162 623 c 0,15,16
 162 659 162 659 144.5 699 c 128,-1,17
 127 739 127 739 93 779 c 1,18,-1
 -17 779 l 1,19,-1
 -17 866 l 1,0,-1
233.5 692 m 128,-1,21
 249 652 249 652 249 623 c 0,22,23
 249 554 249 554 229 488 c 128,-1,24
 209 422 209 422 172 364 c 1,25,26
 226 298 226 298 288 261.5 c 128,-1,27
 350 225 350 225 405 225 c 0,28,29
 442 225 442 225 481.5 243 c 128,-1,30
 521 261 521 261 561 294 c 1,31,-1
 561 779 l 1,32,-1
 189 779 l 1,33,20
 218 732 218 732 233.5 692 c 128,-1,21
EndSplineSet
EndChar
StartChar: u0A28
Encoding: 2600 2600 82
Width: 813
GlyphClass: 2
Flags: W
AnchorPoint: "Anchor-0" 400 820 basechar 0
Fore
831 866 m 1,0,-1
 831 779 l 1,1,-1
 450 779 l 1,2,-1
 450 589 l 1,3,4
 586 526 586 526 665 432 c 128,-1,5
 744 338 744 338 744 242 c 0,6,7
 744 142 744 142 673.5 71 c 128,-1,8
 603 0 603 0 502 0 c 1,9,-1
 502 87 l 1,10,11
 566 87 566 87 612 132.5 c 128,-1,12
 658 178 658 178 658 242 c 256,13,14
 658 306 658 306 563.5 404 c 128,-1,15
 469 502 469 502 407 502 c 256,16,17
 345 502 345 502 250.5 404 c 128,-1,18
 156 306 156 306 156 242 c 256,19,20
 156 178 156 178 202 132.5 c 128,-1,21
 248 87 248 87 312 87 c 1,22,-1
 312 0 l 1,23,24
 212 0 212 0 140.5 71 c 128,-1,25
 69 142 69 142 69 242 c 0,26,27
 69 338 69 338 149 432 c 128,-1,28
 229 526 229 526 364 589 c 1,29,-1
 364 779 l 1,30,-1
 -17 779 l 1,31,-1
 -17 866 l 1,32,-1
 831 866 l 1,0,-1
EndSplineSet
EndChar
StartChar: u0A2A
Encoding: 2602 2602 83
Width: 802
GlyphClass: 2
Flags: W
Fore
-17 866 m 1,0,-1
 137 866 l 1,1,2
 196 807 196 807 227 741.5 c 128,-1,3
 258 676 258 676 258 615 c 0,4,5
 258 558 258 558 235.5 493.5 c 128,-1,6
 213 429 213 429 172 364 c 1,7,8
 226 298 226 298 288 261.5 c 128,-1,9
 350 225 350 225 405 225 c 0,10,11
 442 225 442 225 481.5 243 c 128,-1,12
 521 261 521 261 561 294 c 1,13,-1
 561 866 l 1,14,-1
 820 866 l 1,15,-1
 820 779 l 1,16,-1
 647 779 l 1,17,-1
 647 0 l 1,18,-1
 561 0 l 1,19,-1
 561 190 l 1,20,21
 525 165 525 165 485 151.5 c 128,-1,22
 445 138 445 138 405 138 c 0,23,24
 322 138 322 138 230 202 c 128,-1,25
 138 266 138 266 59 381 c 1,26,27
 109 437 109 437 135.5 500 c 128,-1,28
 162 563 162 563 162 623 c 0,29,30
 162 659 162 659 144.5 699 c 128,-1,31
 127 739 127 739 93 779 c 1,32,-1
 -17 779 l 1,33,-1
 -17 866 l 1,0,-1
EndSplineSet
EndChar
StartChar: u0A2B
Encoding: 2603 2603 84
Width: 774
GlyphClass: 2
Flags: W
Fore
794 866 m 1,0,-1
 794 779 l 1,1,-1
 658 779 l 1,2,-1
 658 519 l 1,3,-1
 294 519 l 2,4,5
 237 519 237 519 196.5 481 c 128,-1,6
 156 443 156 443 156 390 c 0,7,8
 156 357 156 357 167 323 c 128,-1,9
 178 289 178 289 200 260 c 1,10,11
 248 317 248 317 317.5 349 c 128,-1,12
 387 381 387 381 467 381 c 0,13,14
 554 381 554 381 614.5 323 c 128,-1,15
 675 265 675 265 675 182 c 0,16,17
 675 108 675 108 614.5 54 c 128,-1,18
 554 0 554 0 467 0 c 0,19,20
 336 0 336 0 202.5 130.5 c 128,-1,21
 69 261 69 261 69 390 c 0,22,23
 69 479 69 479 135 542.5 c 128,-1,24
 201 606 201 606 294 606 c 2,25,-1
 571 606 l 1,26,-1
 571 779 l 1,27,-1
 -17 779 l 1,28,-1
 -17 866 l 1,29,-1
 794 866 l 1,0,-1
353 116 m 128,-1,31
 410 87 410 87 467 87 c 0,32,33
 518 87 518 87 553.5 114.5 c 128,-1,34
 589 142 589 142 589 182 c 0,35,36
 589 229 589 229 551 261.5 c 128,-1,37
 513 294 513 294 459 294 c 0,38,39
 399 294 399 294 346 269 c 128,-1,40
 293 244 293 244 252 200 c 1,41,30
 296 145 296 145 353 116 c 128,-1,31
EndSplineSet
EndChar
StartChar: u0A2C
Encoding: 2604 2604 85
Width: 838
GlyphClass: 2
Flags: W
Fore
858 866 m 1,0,-1
 858 779 l 1,1,-1
 684 779 l 1,2,-1
 684 0 l 1,3,-1
 598 0 l 1,4,-1
 598 182 l 1,5,6
 546 152 546 152 495.5 136.5 c 128,-1,7
 445 121 445 121 398 121 c 0,8,9
 322 121 322 121 238 171 c 128,-1,10
 154 221 154 221 79 312 c 1,11,12
 121 373 121 373 165 415 c 128,-1,13
 209 457 209 457 252 477 c 1,14,15
 178 518 178 518 128.5 597 c 128,-1,16
 79 676 79 676 61 779 c 1,17,-1
 -17 779 l 1,18,-1
 -17 866 l 1,19,-1
 858 866 l 1,0,-1
250 593 m 128,-1,21
 334 519 334 519 442 519 c 2,22,-1
 598 519 l 1,23,-1
 598 779 l 1,24,-1
 148 779 l 1,25,20
 166 667 166 667 250 593 c 128,-1,21
298 234.5 m 128,-1,27
 352 208 352 208 398 208 c 0,28,29
 442 208 442 208 492.5 228 c 128,-1,30
 543 248 543 248 598 286 c 1,31,-1
 598 433 l 1,32,-1
 442 433 l 2,33,34
 422 433 422 433 401 437.5 c 128,-1,35
 380 442 380 442 356 450 c 1,36,37
 308 425 308 425 266.5 389 c 128,-1,38
 225 353 225 353 190 312 c 1,39,26
 244 261 244 261 298 234.5 c 128,-1,27
EndSplineSet
EndChar
StartChar: u0A2D
Encoding: 2605 2605 86
Width: 781
GlyphClass: 2
Flags: W
Fore
800 866 m 1,0,-1
 800 779 l 1,1,-1
 651 779 l 1,2,3
 670 668 670 668 654 579 c 128,-1,4
 638 490 638 490 589 442 c 1,5,6
 622 402 622 402 640 359.5 c 128,-1,7
 658 317 658 317 658 277 c 0,8,9
 658 162 658 162 571.5 81 c 128,-1,10
 485 0 485 0 364 0 c 0,11,12
 282 0 282 0 202.5 40.5 c 128,-1,13
 123 81 123 81 61 156 c 1,14,-1
 87 190 l 1,15,16
 137 140 137 140 209 113.5 c 128,-1,17
 281 87 281 87 364 87 c 0,18,19
 450 87 450 87 510.5 142 c 128,-1,20
 571 197 571 197 571 277 c 0,21,22
 571 308 571 308 562.5 336.5 c 128,-1,23
 554 365 554 365 537 390 c 1,24,25
 471 336 471 336 408.5 306.5 c 128,-1,26
 346 277 346 277 294 277 c 0,27,28
 208 277 208 277 147.5 328.5 c 128,-1,29
 87 380 87 380 87 450 c 0,30,31
 87 521 87 521 147.5 572 c 128,-1,32
 208 623 208 623 294 623 c 0,33,34
 346 623 346 623 408.5 594 c 128,-1,35
 471 565 471 565 537 511 c 1,36,37
 566 546 566 546 572 616 c 128,-1,38
 578 686 578 686 563 779 c 1,39,-1
 -17 779 l 1,40,-1
 -17 866 l 1,41,-1
 800 866 l 1,0,-1
208.5 389 m 128,-1,43
 244 364 244 364 294 364 c 0,44,45
 345 364 345 364 394 386.5 c 128,-1,46
 443 409 443 409 485 450 c 1,47,48
 443 491 443 491 394 514 c 128,-1,49
 345 537 345 537 294 537 c 0,50,51
 244 537 244 537 208.5 511.5 c 128,-1,52
 173 486 173 486 173 450 c 256,53,42
 173 414 173 414 208.5 389 c 128,-1,43
EndSplineSet
EndChar
StartChar: u0A2E
Encoding: 2606 2606 87
Width: 878
GlyphClass: 2
Flags: W
Fore
204 866 m 1,0,1
 238 807 238 807 255.5 741 c 128,-1,2
 273 675 273 675 273 606 c 2,3,-1
 273 467 l 1,4,-1
 638 467 l 1,5,-1
 638 866 l 1,6,-1
 897 866 l 1,7,-1
 897 779 l 1,8,-1
 724 779 l 1,9,-1
 724 0 l 1,10,-1
 638 0 l 1,11,-1
 638 381 l 1,12,-1
 273 381 l 1,13,-1
 273 260 l 2,14,15
 273 173 273 173 245.5 112.5 c 128,-1,16
 218 52 218 52 178 52 c 0,17,18
 142 52 142 52 117 87.5 c 128,-1,19
 92 123 92 123 92 173 c 0,20,21
 92 220 92 220 116 286 c 128,-1,22
 140 352 140 352 186 433 c 1,23,-1
 186 606 l 2,24,25
 186 651 186 651 175.5 695 c 128,-1,26
 165 739 165 739 144 779 c 1,27,-1
 -17 779 l 1,28,-1
 -17 866 l 1,29,-1
 204 866 l 1,0,1
EndSplineSet
EndChar
StartChar: u0A2F
Encoding: 2607 2607 88
Width: 952
GlyphClass: 2
Flags: W
Fore
969 866 m 1,0,-1
 969 779 l 1,1,-1
 796 779 l 1,2,-1
 796 0 l 1,3,-1
 710 0 l 1,4,-1
 710 415 l 1,5,-1
 519 415 l 1,6,-1
 519 138 l 1,7,-1
 433 138 l 2,8,9
 330 138 330 138 235 201.5 c 128,-1,10
 140 265 140 265 76 376 c 1,11,12
 108 419 108 419 123 478 c 128,-1,13
 138 537 138 537 138 606 c 0,14,15
 138 655 138 655 125.5 699 c 128,-1,16
 113 743 113 743 87 779 c 1,17,-1
 -17 779 l 1,18,-1
 -17 866 l 1,19,-1
 969 866 l 1,0,-1
216.5 695 m 128,-1,21
 225 651 225 651 225 606 c 0,22,23
 225 531 225 531 213 471 c 128,-1,24
 201 411 201 411 178 373 c 1,25,26
 218 305 218 305 287 265 c 128,-1,27
 356 225 356 225 433 225 c 1,28,-1
 433 502 l 1,29,-1
 710 502 l 1,30,-1
 710 779 l 1,31,-1
 190 779 l 1,32,20
 208 739 208 739 216.5 695 c 128,-1,21
EndSplineSet
EndChar
StartChar: u0A30
Encoding: 2608 2608 89
Width: 763
GlyphClass: 2
Flags: W
Fore
780 866 m 1,0,-1
 780 779 l 1,1,-1
 617 779 l 1,2,-1
 617 173 l 2,3,4
 617 103 617 103 565.5 51.5 c 128,-1,5
 514 0 514 0 443 0 c 0,6,7
 333 0 333 0 198 142 c 128,-1,8
 63 284 63 284 63 398 c 0,9,10
 63 469 63 469 118 520 c 128,-1,11
 173 571 173 571 253 571 c 2,12,-1
 530 571 l 1,13,-1
 530 779 l 1,14,-1
 -17 779 l 1,15,-1
 -17 866 l 1,16,-1
 780 866 l 1,0,-1
253.5 197.5 m 128,-1,18
 358 87 358 87 443 87 c 0,19,20
 479 87 479 87 504.5 112 c 128,-1,21
 530 137 530 137 530 173 c 2,22,-1
 530 485 l 1,23,-1
 253 485 l 2,24,25
 209 485 209 485 179 459.5 c 128,-1,26
 149 434 149 434 149 398 c 0,27,17
 149 308 149 308 253.5 197.5 c 128,-1,18
EndSplineSet
EndChar
StartChar: u0A32
Encoding: 2610 2610 90
Width: 937
GlyphClass: 2
Flags: W
Fore
956 866 m 1,0,-1
 956 779 l 1,1,-1
 746 779 l 1,2,3
 736 724 736 724 713 663.5 c 128,-1,4
 690 603 690 603 651 537 c 1,5,6
 744 519 744 519 805.5 450.5 c 128,-1,7
 867 382 867 382 867 294 c 0,8,9
 867 173 867 173 771 86.5 c 128,-1,10
 675 0 675 0 538 0 c 1,11,-1
 538 87 l 1,12,13
 639 87 639 87 709.5 147.5 c 128,-1,14
 780 208 780 208 780 294 c 0,15,16
 780 358 780 358 725 404 c 128,-1,17
 670 450 670 450 590 450 c 1,18,19
 573 426 573 426 543 395.5 c 128,-1,20
 513 365 513 365 469 329 c 1,21,22
 422 369 422 369 389.5 401 c 128,-1,23
 357 433 357 433 340 459 c 1,24,25
 265 459 265 459 211 410.5 c 128,-1,26
 157 362 157 362 157 294 c 0,27,28
 157 208 157 208 228.5 147.5 c 128,-1,29
 300 87 300 87 399 87 c 1,30,-1
 399 0 l 1,31,32
 264 0 264 0 167.5 86.5 c 128,-1,33
 71 173 71 173 71 294 c 0,34,35
 71 382 71 382 132.5 450.5 c 128,-1,36
 194 519 194 519 288 537 c 1,37,38
 249 603 249 603 225.5 663.5 c 128,-1,39
 202 724 202 724 192 779 c 1,40,-1
 -17 779 l 1,41,-1
 -17 866 l 1,42,-1
 956 866 l 1,0,-1
335 609 m 128,-1,44
 382 519 382 519 469 433 c 1,45,46
 558 526 558 526 604.5 616.5 c 128,-1,47
 651 707 651 707 651 779 c 1,48,-1
 288 779 l 1,49,43
 288 699 288 699 335 609 c 128,-1,44
EndSplineSet
EndChar
StartChar: u0A33
Encoding: 2611 2611 91
Width: 937
GlyphClass: 2
Flags: W
Fore
956 866 m 1,0,-1
 956 779 l 1,1,-1
 746 779 l 1,2,3
 736 724 736 724 713 663.5 c 128,-1,4
 690 603 690 603 651 537 c 1,5,6
 744 519 744 519 805.5 450.5 c 128,-1,7
 867 382 867 382 867 294 c 0,8,9
 867 173 867 173 771 86.5 c 128,-1,10
 675 0 675 0 538 0 c 1,11,-1
 538 87 l 1,12,13
 639 87 639 87 709.5 147.5 c 128,-1,14
 780 208 780 208 780 294 c 0,15,16
 780 358 780 358 725 404 c 128,-1,17
 670 450 670 450 590 450 c 1,18,19
 573 426 573 426 543 395.5 c 128,-1,20
 513 365 513 365 469 329 c 1,21,22
 422 369 422 369 389.5 401 c 128,-1,23
 357 433 357 433 340 459 c 1,24,25
 265 459 265 459 211 410.5 c 128,-1,26
 157 362 157 362 157 294 c 0,27,28
 157 208 157 208 228.5 147.5 c 128,-1,29
 300 87 300 87 399 87 c 1,30,-1
 399 0 l 1,31,32
 264 0 264 0 167.5 86.5 c 128,-1,33
 71 173 71 173 71 294 c 0,34,35
 71 382 71 382 132.5 450.5 c 128,-1,36
 194 519 194 519 288 537 c 1,37,38
 249 603 249 603 225.5 663.5 c 128,-1,39
 202 724 202 724 192 779 c 1,40,-1
 -17 779 l 1,41,-1
 -17 866 l 1,42,-1
 956 866 l 1,0,-1
335 609 m 128,-1,44
 382 519 382 519 469 433 c 1,45,46
 558 526 558 526 604.5 616.5 c 128,-1,47
 651 707 651 707 651 779 c 1,48,-1
 288 779 l 1,49,43
 288 699 288 699 335 609 c 128,-1,44
766 -20 m 128,-1,51
 786 0 786 0 815 0 c 0,52,53
 846 0 846 0 865 -20 c 128,-1,54
 884 -40 884 -40 884 -69 c 0,55,56
 884 -99 884 -99 865 -118.5 c 128,-1,57
 846 -138 846 -138 815 -138 c 0,58,59
 786 -138 786 -138 766 -118.5 c 128,-1,60
 746 -99 746 -99 746 -69 c 0,61,50
 746 -40 746 -40 766 -20 c 128,-1,51
EndSplineSet
Ligature: 0 0 'nukt' u0A32 u0A3C
EndChar
StartChar: u0A35
Encoding: 2613 2613 92
Width: 814
GlyphClass: 2
Flags: W
Fore
832 866 m 1,0,-1
 832 779 l 1,1,-1
 728 779 l 1,2,-1
 728 519 l 1,3,-1
 226 519 l 2,4,5
 186 519 186 519 159 494 c 128,-1,6
 132 469 132 469 132 433 c 256,7,8
 132 397 132 397 159 371.5 c 128,-1,9
 186 346 186 346 226 346 c 2,10,-1
 728 346 l 1,11,-1
 728 260 l 1,12,-1
 365 260 l 1,13,14
 365 189 365 189 416 138 c 128,-1,15
 467 87 467 87 538 87 c 2,16,-1
 728 87 l 1,17,-1
 728 0 l 1,18,-1
 538 0 l 2,19,20
 431 0 431 0 354.5 76 c 128,-1,21
 278 152 278 152 278 260 c 1,22,-1
 226 260 l 2,23,24
 156 260 156 260 104.5 311 c 128,-1,25
 53 362 53 362 53 433 c 0,26,27
 53 503 53 503 104.5 554.5 c 128,-1,28
 156 606 156 606 226 606 c 2,29,-1
 642 606 l 1,30,-1
 642 779 l 1,31,-1
 -17 779 l 1,32,-1
 -17 866 l 1,33,-1
 832 866 l 1,0,-1
EndSplineSet
EndChar
StartChar: u0A36
Encoding: 2614 2614 93
Width: 877
GlyphClass: 2
Flags: W
Fore
395.5 153 m 128,-1,1
 415 173 415 173 445 173 c 0,2,3
 474 173 474 173 494 153 c 128,-1,4
 514 133 514 133 514 104 c 256,5,6
 514 75 514 75 494 55 c 128,-1,7
 474 35 474 35 445 35 c 0,8,9
 415 35 415 35 395.5 55 c 128,-1,10
 376 75 376 75 376 104 c 256,11,0
 376 133 376 133 395.5 153 c 128,-1,1
-17 866 m 1,12,-1
 895 866 l 1,13,-1
 895 779 l 1,14,-1
 722 779 l 1,15,-1
 722 0 l 1,16,-1
 635 0 l 1,17,-1
 635 364 l 1,18,-1
 289 364 l 1,19,-1
 289 294 l 2,20,21
 289 194 289 194 259 123 c 128,-1,22
 229 52 229 52 185 52 c 0,23,24
 149 52 149 52 124 82.5 c 128,-1,25
 99 113 99 113 99 156 c 0,26,27
 99 225 99 225 125.5 292.5 c 128,-1,28
 152 360 152 360 202 415 c 1,29,30
 202 506 202 506 175.5 598.5 c 128,-1,31
 149 691 149 691 99 779 c 1,32,-1
 -17 779 l 1,33,-1
 -17 866 l 1,12,-1
249 637 m 128,-1,35
 272 554 272 554 281 450 c 1,36,-1
 635 450 l 1,37,-1
 635 779 l 1,38,-1
 194 779 l 1,39,34
 226 720 226 720 249 637 c 128,-1,35
EndSplineSet
Ligature: 0 0 'nukt' u0A38 u0A3C
EndChar
StartChar: u0A38
Encoding: 2616 2616 94
Width: 877
GlyphClass: 2
Flags: W
Fore
895 866 m 1,0,-1
 895 779 l 1,1,-1
 722 779 l 1,2,-1
 722 0 l 1,3,-1
 635 0 l 1,4,-1
 635 364 l 1,5,-1
 289 364 l 1,6,-1
 289 294 l 2,7,8
 289 194 289 194 259 123 c 128,-1,9
 229 52 229 52 185 52 c 0,10,11
 149 52 149 52 124 82.5 c 128,-1,12
 99 113 99 113 99 156 c 0,13,14
 99 225 99 225 125.5 292.5 c 128,-1,15
 152 360 152 360 202 415 c 1,16,17
 202 506 202 506 175.5 598.5 c 128,-1,18
 149 691 149 691 99 779 c 1,19,-1
 -17 779 l 1,20,-1
 -17 866 l 1,21,-1
 895 866 l 1,0,-1
249 637 m 128,-1,23
 272 554 272 554 281 450 c 1,24,-1
 635 450 l 1,25,-1
 635 779 l 1,26,-1
 194 779 l 1,27,22
 226 720 226 720 249 637 c 128,-1,23
EndSplineSet
EndChar
StartChar: u0A39
Encoding: 2617 2617 95
Width: 802
GlyphClass: 2
Flags: W
Fore
820 866 m 1,0,-1
 820 779 l 1,1,-1
 656 779 l 1,2,-1
 656 173 l 2,3,4
 656 103 656 103 607.5 51.5 c 128,-1,5
 559 0 559 0 491 0 c 0,6,7
 374 0 374 0 212.5 133 c 128,-1,8
 51 266 51 266 51 364 c 0,9,10
 51 421 51 421 101.5 461.5 c 128,-1,11
 152 502 152 502 224 502 c 2,12,-1
 293 502 l 1,13,-1
 293 415 l 1,14,-1
 224 415 l 2,15,16
 186 415 186 415 161.5 400 c 128,-1,17
 137 385 137 385 137 364 c 0,18,19
 137 294 137 294 270 190.5 c 128,-1,20
 403 87 403 87 491 87 c 0,21,22
 525 87 525 87 547.5 112 c 128,-1,23
 570 137 570 137 570 173 c 2,24,-1
 570 779 l 1,25,-1
 -17 779 l 1,26,-1
 -17 866 l 1,27,-1
 820 866 l 1,0,-1
EndSplineSet
EndChar
StartChar: u0A3C
Encoding: 2620 2620 96
Width: 0
GlyphClass: 2
Flags: W
Fore
-447 -89 m 128,-1,1
 -427 -69 -427 -69 -398 -69 c 256,2,3
 -369 -69 -369 -69 -349 -89 c 128,-1,4
 -329 -109 -329 -109 -329 -138 c 0,5,6
 -329 -168 -329 -168 -349 -188 c 128,-1,7
 -369 -208 -369 -208 -398 -208 c 256,8,9
 -427 -208 -427 -208 -447 -188 c 128,-1,10
 -467 -168 -467 -168 -467 -138 c 0,11,0
 -467 -109 -467 -109 -447 -89 c 128,-1,1
EndSplineSet
EndChar
StartChar: u0A3E
Encoding: 2622 2622 97
Width: 398
GlyphClass: 2
Flags: W
Fore
-17 866 m 1,0,-1
 415 866 l 1,1,-1
 415 779 l 1,2,-1
 242 779 l 1,3,-1
 242 381 l 1,4,-1
 156 381 l 1,5,-1
 156 779 l 1,6,-1
 -17 779 l 1,7,-1
 -17 866 l 1,0,-1
EndSplineSet
EndChar
StartChar: u0A3F
Encoding: 2623 2623 98
Width: 398
GlyphClass: 2
Flags: W
Fore
156 866 m 1,0,-1
 156 987 l 2,1,2
 156 1088 156 1088 222 1158.5 c 128,-1,3
 288 1229 288 1229 381 1229 c 0,4,5
 478 1229 478 1229 546.5 1158.5 c 128,-1,6
 615 1088 615 1088 615 987 c 1,7,-1
 537 987 l 1,8,9
 537 1051 537 1051 491 1097 c 128,-1,10
 445 1143 445 1143 381 1143 c 0,11,12
 324 1143 324 1143 283 1097 c 128,-1,13
 242 1051 242 1051 242 987 c 2,14,-1
 242 866 l 1,15,-1
 415 866 l 1,16,-1
 415 779 l 1,17,-1
 242 779 l 1,18,-1
 242 0 l 1,19,-1
 156 0 l 1,20,-1
 156 779 l 1,21,-1
 -17 779 l 1,22,-1
 -17 866 l 1,23,-1
 156 866 l 1,0,-1
EndSplineSet
EndChar
StartChar: u0A40
Encoding: 2624 2624 99
Width: 398
GlyphClass: 2
Flags: W
Fore
-171 1158.5 m 128,-1,1
 -100 1229 -100 1229 0 1229 c 256,2,3
 100 1229 100 1229 171 1158.5 c 128,-1,4
 242 1088 242 1088 242 987 c 2,5,-1
 242 866 l 1,6,-1
 415 866 l 1,7,-1
 415 779 l 1,8,-1
 242 779 l 1,9,-1
 242 0 l 1,10,-1
 156 0 l 1,11,-1
 156 779 l 1,12,-1
 -17 779 l 1,13,-1
 -17 866 l 1,14,-1
 156 866 l 1,15,-1
 156 987 l 2,16,17
 156 1051 156 1051 110 1097 c 128,-1,18
 64 1143 64 1143 0 1143 c 256,19,20
 -64 1143 -64 1143 -110 1097 c 128,-1,21
 -156 1051 -156 1051 -156 987 c 2,22,-1
 -156 883 l 1,23,-1
 -242 883 l 1,24,-1
 -242 987 l 2,25,0
 -242 1088 -242 1088 -171 1158.5 c 128,-1,1
EndSplineSet
EndChar
StartChar: u0A41
Encoding: 2625 2625 100
Width: 0
GlyphClass: 2
Flags: W
Fore
-719 -165 m 1,0,1
 -663 -190 -663 -190 -597 -203.5 c 128,-1,2
 -531 -217 -531 -217 -459 -217 c 0,3,4
 -386 -217 -386 -217 -320 -203.5 c 128,-1,5
 -254 -190 -254 -190 -200 -165 c 1,6,-1
 -200 -252 l 1,7,8
 -254 -277 -254 -277 -320 -290.5 c 128,-1,9
 -386 -304 -386 -304 -459 -304 c 0,10,11
 -531 -304 -531 -304 -597 -290.5 c 128,-1,12
 -663 -277 -663 -277 -719 -252 c 1,13,-1
 -719 -165 l 1,0,1
EndSplineSet
EndChar
StartChar: u0A42
Encoding: 2626 2626 101
Width: 0
GlyphClass: 2
Flags: W
Fore
-727 -242 m 1,0,1
 -605 -300 -605 -300 -467.5 -300 c 128,-1,2
 -330 -300 -330 -300 -208 -242 c 1,3,-1
 -208 -329 l 1,4,5
 -330 -386 -330 -386 -467.5 -386 c 128,-1,6
 -605 -386 -605 -386 -727 -329 c 1,7,-1
 -727 -242 l 1,0,1
-727 -69 m 1,8,9
 -605 -127 -605 -127 -467.5 -127 c 128,-1,10
 -330 -127 -330 -127 -208 -69 c 1,11,-1
 -208 -156 l 1,12,13
 -330 -213 -330 -213 -467.5 -213 c 128,-1,14
 -605 -213 -605 -213 -727 -156 c 1,15,-1
 -727 -69 l 1,8,9
EndSplineSet
EndChar
StartChar: u0A47
Encoding: 2631 2631 102
Width: 0
GlyphClass: 4
Flags: W
AnchorPoint: "Anchor-0" -197 878 mark 0
Fore
-666 1223.5 m 128,-1,1
 -630 1246 -630 1246 -581 1246 c 0,2,3
 -457 1246 -457 1246 -347.5 1151 c 128,-1,4
 -238 1056 -238 1056 -182 900 c 1,5,-1
 -217 900 l 1,6,7
 -253 1003 -253 1003 -339 1064 c 128,-1,8
 -425 1125 -425 1125 -529 1125 c 0,9,10
 -543 1125 -543 1125 -571 1116.5 c 128,-1,11
 -599 1108 -599 1108 -615 1108 c 0,12,13
 -651 1108 -651 1108 -676.5 1126.5 c 128,-1,14
 -702 1145 -702 1145 -702 1169 c 0,15,0
 -702 1201 -702 1201 -666 1223.5 c 128,-1,1
EndSplineSet
EndChar
StartChar: u0A48
Encoding: 2632 2632 103
Width: 0
GlyphClass: 4
Flags: W
AnchorPoint: "Anchor-0" -182 878 mark 0
Fore
-683 1278 m 128,-1,1
 -647 1298 -647 1298 -598 1298 c 0,2,3
 -485 1298 -485 1298 -367 1190.5 c 128,-1,4
 -249 1083 -249 1083 -165 900 c 1,5,-1
 -217 900 l 1,6,7
 -258 941 -258 941 -314 964 c 128,-1,8
 -370 987 -370 987 -433 987 c 0,9,10
 -467 987 -467 987 -532.5 965.5 c 128,-1,11
 -598 944 -598 944 -633 944 c 0,12,13
 -662 944 -662 944 -682 959.5 c 128,-1,14
 -702 975 -702 975 -702 996 c 0,15,16
 -702 1025 -702 1025 -658.5 1045 c 128,-1,17
 -615 1065 -615 1065 -554 1065 c 0,18,19
 -459 1065 -459 1065 -371.5 1031 c 128,-1,20
 -284 997 -284 997 -217 935 c 1,21,22
 -289 1060 -289 1060 -372 1132 c 128,-1,23
 -455 1204 -455 1204 -529 1204 c 0,24,25
 -547 1204 -547 1204 -584.5 1195 c 128,-1,26
 -622 1186 -622 1186 -640 1186 c 0,27,28
 -674 1186 -674 1186 -696.5 1199 c 128,-1,29
 -719 1212 -719 1212 -719 1229 c 0,30,0
 -719 1258 -719 1258 -683 1278 c 128,-1,1
EndSplineSet
EndChar
StartChar: u0A4B
Encoding: 2635 2635 104
Width: 0
GlyphClass: 4
Flags: W
AnchorPoint: "Anchor-0" -199 878 mark 0
Fore
-650 1204 m 1,0,1
 -640 1158 -640 1158 -609 1129 c 128,-1,2
 -578 1100 -578 1100 -537 1100 c 0,3,4
 -499 1100 -499 1100 -424.5 1121.5 c 128,-1,5
 -350 1143 -350 1143 -312 1143 c 0,6,7
 -258 1143 -258 1143 -220 1075 c 128,-1,8
 -182 1007 -182 1007 -182 909 c 1,9,-1
 -217 909 l 1,10,11
 -217 959 -217 959 -241.5 995 c 128,-1,12
 -266 1031 -266 1031 -304 1031 c 0,13,14
 -345 1031 -345 1031 -424 1013.5 c 128,-1,15
 -503 996 -503 996 -546 996 c 0,16,17
 -603 996 -603 996 -643.5 1056.5 c 128,-1,18
 -684 1117 -684 1117 -684 1204 c 1,19,-1
 -650 1204 l 1,0,1
EndSplineSet
EndChar
StartChar: u0A4C
Encoding: 2636 2636 105
Width: 0
GlyphClass: 4
Flags: W
AnchorPoint: "Anchor-0" -193 878 mark 0
Fore
-351 1101.5 m 128,-1,1
 -346 1119 -346 1119 -338 1135 c 1,2,-1
 -425 1135 l 2,3,4
 -473 1135 -473 1135 -512 1178.5 c 128,-1,5
 -551 1222 -551 1222 -563 1290 c 1,6,-1
 -538 1298 l 1,7,8
 -523 1264 -523 1264 -492 1242.5 c 128,-1,9
 -461 1221 -461 1221 -425 1221 c 2,10,-1
 -200 1221 l 2,11,12
 -142 1221 -142 1221 -101.5 1175 c 128,-1,13
 -61 1129 -61 1129 -61 1065 c 0,14,15
 -61 1009 -61 1009 -90.5 968 c 128,-1,16
 -120 927 -120 927 -165 917 c 1,17,-1
 -165 952 l 1,18,19
 -140 961 -140 961 -126.5 984.5 c 128,-1,20
 -113 1008 -113 1008 -113 1039 c 0,21,22
 -113 1079 -113 1079 -137.5 1107 c 128,-1,23
 -162 1135 -162 1135 -200 1135 c 0,24,25
 -236 1135 -236 1135 -261 1107 c 128,-1,26
 -286 1079 -286 1079 -286 1039 c 0,27,28
 -286 1008 -286 1008 -272 984.5 c 128,-1,29
 -258 961 -258 961 -234 952 c 1,30,-1
 -234 917 l 1,31,32
 -286 927 -286 927 -321 968 c 128,-1,33
 -356 1009 -356 1009 -356 1065 c 0,34,0
 -356 1084 -356 1084 -351 1101.5 c 128,-1,1
EndSplineSet
EndChar
StartChar: u0A4D
Encoding: 2637 2637 106
Width: 0
GlyphClass: 2
Flags: W
Fore
-268 -16.5 m 128,-1,1
 -236 0 -236 0 -200 0 c 0,2,3
 -160 0 -160 0 -124 -14 c 128,-1,4
 -88 -28 -88 -28 -61 -52 c 2,5,-1
 234 -304 l 1,6,-1
 200 -338 l 1,7,8
 137 -286 137 -286 77 -239 c 128,-1,9
 17 -192 17 -192 -41 -149 c 0,10,11
 -71 -127 -71 -127 -100.5 -115.5 c 128,-1,12
 -130 -104 -130 -104 -156 -104 c 0,13,14
 -184 -104 -184 -104 -206.5 -112.5 c 128,-1,15
 -229 -121 -229 -121 -242 -138 c 1,16,-1
 -321 -61 l 1,17,0
 -300 -33 -300 -33 -268 -16.5 c 128,-1,1
EndSplineSet
EndChar
StartChar: u0A59
Encoding: 2649 2649 107
Width: 866
GlyphClass: 2
Flags: W
Fore
73 136 m 128,-1,1
 93 156 93 156 123 156 c 0,2,3
 152 156 152 156 172 136 c 128,-1,4
 192 116 192 116 192 87 c 0,5,6
 192 57 192 57 172 37 c 128,-1,7
 152 17 152 17 123 17 c 0,8,9
 93 17 93 17 73 37 c 128,-1,10
 53 57 53 57 53 87 c 0,11,0
 53 116 53 116 73 136 c 128,-1,1
218 866 m 1,12,13
 248 802 248 802 263 736 c 128,-1,14
 278 670 278 670 278 606 c 1,15,-1
 625 606 l 1,16,-1
 625 866 l 1,17,-1
 884 866 l 1,18,-1
 884 779 l 1,19,-1
 711 779 l 1,20,-1
 711 0 l 1,21,-1
 625 0 l 1,22,-1
 625 190 l 1,23,24
 581 165 581 165 537.5 151.5 c 128,-1,25
 494 138 494 138 451 138 c 0,26,27
 369 138 369 138 277 202 c 128,-1,28
 185 266 185 266 105 381 c 1,29,30
 148 442 148 442 170 494.5 c 128,-1,31
 192 547 192 547 192 589 c 0,32,33
 192 646 192 646 183 694.5 c 128,-1,34
 174 743 174 743 157 779 c 1,35,-1
 -17 779 l 1,36,-1
 -17 866 l 1,37,-1
 218 866 l 1,12,13
325.5 266.5 m 128,-1,39
 390 225 390 225 451 225 c 0,40,41
 491 225 491 225 536 239.5 c 128,-1,42
 581 254 581 254 625 282 c 1,43,-1
 625 519 l 1,44,-1
 270 519 l 1,45,46
 265 485 265 485 249.5 450 c 128,-1,47
 234 415 234 415 209 381 c 1,48,38
 261 308 261 308 325.5 266.5 c 128,-1,39
EndSplineSet
Ligature: 0 0 'nukt' u0A16 u0A3C
EndChar
StartChar: u0A5A
Encoding: 2650 2650 108
Width: 1001
GlyphClass: 2
Flags: W
Fore
79 118.5 m 128,-1,1
 99 138 99 138 128 138 c 256,2,3
 157 138 157 138 177 118.5 c 128,-1,4
 197 99 197 99 197 69 c 0,5,6
 197 40 197 40 177 20 c 128,-1,7
 157 0 157 0 128 0 c 256,8,9
 99 0 99 0 79 20 c 128,-1,10
 59 40 59 40 59 69 c 0,11,0
 59 99 59 99 79 118.5 c 128,-1,1
-17 866 m 1,12,-1
 1020 866 l 1,13,-1
 1020 779 l 1,14,-1
 847 779 l 1,15,-1
 847 0 l 1,16,-1
 760 0 l 1,17,-1
 760 779 l 1,18,-1
 587 779 l 1,19,-1
 587 242 l 2,20,21
 587 178 587 178 538.5 132.5 c 128,-1,22
 490 87 490 87 422 87 c 0,23,24
 342 87 342 87 222.5 210.5 c 128,-1,25
 103 334 103 334 103 415 c 0,26,27
 103 479 103 479 153.5 525 c 128,-1,28
 204 571 204 571 276 571 c 2,29,-1
 501 571 l 1,30,-1
 501 779 l 1,31,-1
 -17 779 l 1,32,-1
 -17 866 l 1,12,-1
277 264.5 m 128,-1,34
 365 173 365 173 422 173 c 0,35,36
 455 173 455 173 478 203.5 c 128,-1,37
 501 234 501 234 501 277 c 2,38,-1
 501 485 l 1,39,-1
 276 485 l 2,40,41
 238 485 238 485 213.5 465 c 128,-1,42
 189 445 189 445 189 415 c 0,43,33
 189 356 189 356 277 264.5 c 128,-1,34
EndSplineSet
Ligature: 0 0 'nukt' u0A17 u0A3C
EndChar
StartChar: u0A5B
Encoding: 2651 2651 109
Width: 836
GlyphClass: 2
Flags: W
Fore
379.5 153 m 128,-1,1
 399 173 399 173 429 173 c 128,-1,2
 459 173 459 173 479 153 c 128,-1,3
 499 133 499 133 499 104 c 256,4,5
 499 75 499 75 479 55 c 128,-1,6
 459 35 459 35 429 35 c 128,-1,7
 399 35 399 35 379.5 55 c 128,-1,8
 360 75 360 75 360 104 c 256,9,0
 360 133 360 133 379.5 153 c 128,-1,1
-17 866 m 1,10,-1
 854 866 l 1,11,-1
 854 779 l 1,12,-1
 680 779 l 1,13,-1
 680 0 l 1,14,-1
 594 0 l 1,15,-1
 594 329 l 1,16,-1
 265 329 l 1,17,-1
 265 0 l 1,18,-1
 178 0 l 1,19,-1
 178 329 l 1,20,-1
 83 329 l 2,21,22
 65 329 65 329 52.5 342.5 c 128,-1,23
 40 356 40 356 40 373 c 0,24,25
 40 417 40 417 104.5 485.5 c 128,-1,26
 169 554 169 554 213 554 c 0,27,28
 234 554 234 554 249.5 538.5 c 128,-1,29
 265 523 265 523 265 502 c 2,30,-1
 265 415 l 1,31,-1
 594 415 l 1,32,-1
 594 779 l 1,33,-1
 -17 779 l 1,34,-1
 -17 866 l 1,10,-1
EndSplineSet
Ligature: 0 0 'nukt' u0A1C u0A3C
EndChar
StartChar: u0A5C
Encoding: 2652 2652 110
Width: 888
GlyphClass: 2
Flags: W
Fore
905 866 m 1,0,-1
 905 779 l 1,1,-1
 748 779 l 1,2,3
 756 763 756 763 761 748.5 c 128,-1,4
 766 734 766 734 766 719 c 0,5,6
 766 652 766 652 732.5 599 c 128,-1,7
 699 546 699 546 644 519 c 1,8,9
 708 490 708 490 745.5 438 c 128,-1,10
 783 386 783 386 783 329 c 0,11,12
 783 261 783 261 745 206.5 c 128,-1,13
 707 152 707 152 644 130 c 1,14,-1
 736 0 l 1,15,-1
 630 0 l 1,16,-1
 546 109 l 1,17,-1
 489 104 l 2,18,19
 414 104 414 104 339.5 117 c 128,-1,20
 265 130 265 130 194 156 c 1,21,-1
 281 0 l 1,22,-1
 180 0 l 1,23,-1
 56 225 l 2,24,25
 40 252 40 252 66.5 271 c 128,-1,26
 93 290 93 290 125 277 c 0,27,28
 217 234 217 234 308 212 c 128,-1,29
 399 190 399 190 489 190 c 0,30,31
 575 190 575 190 635.5 231 c 128,-1,32
 696 272 696 272 696 329 c 0,33,34
 696 380 696 380 647 421 c 128,-1,35
 598 462 598 462 523 477 c 1,36,37
 465 455 465 455 414.5 444 c 128,-1,38
 364 433 364 433 324 433 c 0,39,40
 234 433 234 433 171 458 c 128,-1,41
 108 483 108 483 108 519 c 256,42,43
 108 555 108 555 171 580.5 c 128,-1,44
 234 606 234 606 324 606 c 0,45,46
 364 606 364 606 414.5 594.5 c 128,-1,47
 465 583 465 583 523 563 c 1,48,49
 594 589 594 589 636.5 626.5 c 128,-1,50
 679 664 679 664 679 702 c 0,51,52
 679 722 679 722 670.5 742 c 128,-1,53
 662 762 662 762 644 779 c 1,54,-1
 -17 779 l 1,55,-1
 -17 866 l 1,56,-1
 905 866 l 1,0,-1
EndSplineSet
Ligature: 0 0 'nukt' u0A21 u0A3C
EndChar
StartChar: u0A5E
Encoding: 2654 2654 111
Width: 830
GlyphClass: 2
Flags: W
Fore
76 118.5 m 128,-1,1
 96 138 96 138 125 138 c 256,2,3
 154 138 154 138 174 118.5 c 128,-1,4
 194 99 194 99 194 69 c 0,5,6
 194 40 194 40 174 20 c 128,-1,7
 154 0 154 0 125 0 c 256,8,9
 96 0 96 0 76 20 c 128,-1,10
 56 40 56 40 56 69 c 0,11,0
 56 99 56 99 76 118.5 c 128,-1,1
848 866 m 1,12,-1
 848 779 l 1,13,-1
 714 779 l 1,14,-1
 714 519 l 1,15,-1
 350 519 l 2,16,17
 293 519 293 519 252.5 481 c 128,-1,18
 212 443 212 443 212 390 c 0,19,20
 212 357 212 357 223 323 c 128,-1,21
 234 289 234 289 254 260 c 1,22,23
 304 317 304 317 373.5 349 c 128,-1,24
 443 381 443 381 523 381 c 0,25,26
 610 381 610 381 670.5 323 c 128,-1,27
 731 265 731 265 731 182 c 0,28,29
 731 108 731 108 670.5 54 c 128,-1,30
 610 0 610 0 523 0 c 0,31,32
 391 0 391 0 258 130.5 c 128,-1,33
 125 261 125 261 125 390 c 0,34,35
 125 479 125 479 190.5 542.5 c 128,-1,36
 256 606 256 606 350 606 c 2,37,-1
 627 606 l 1,38,-1
 627 779 l 1,39,-1
 -17 779 l 1,40,-1
 -17 866 l 1,41,-1
 848 866 l 1,12,-1
409 116 m 128,-1,43
 466 87 466 87 523 87 c 0,44,45
 573 87 573 87 608.5 114.5 c 128,-1,46
 644 142 644 142 644 182 c 0,47,48
 644 229 644 229 606.5 261.5 c 128,-1,49
 569 294 569 294 514 294 c 0,50,51
 455 294 455 294 401.5 269 c 128,-1,52
 348 244 348 244 306 200 c 1,53,42
 352 145 352 145 409 116 c 128,-1,43
EndSplineSet
Ligature: 0 0 'nukt' u0A2B u0A3C
EndChar
StartChar: u0A66
Encoding: 2662 2662 112
Width: 830
GlyphClass: 2
Flags: W
Fore
170.5 678 m 128,-1,1
 272 779 272 779 415 779 c 0,2,3
 559 779 559 779 660.5 678 c 128,-1,4
 762 577 762 577 762 433 c 256,5,6
 762 289 762 289 660.5 188 c 128,-1,7
 559 87 559 87 415 87 c 0,8,9
 272 87 272 87 170.5 188 c 128,-1,10
 69 289 69 289 69 433 c 256,11,0
 69 577 69 577 170.5 678 c 128,-1,1
232 249 m 128,-1,13
 308 173 308 173 415 173 c 0,14,15
 523 173 523 173 599 249 c 128,-1,16
 675 325 675 325 675 433 c 256,17,18
 675 541 675 541 599 616.5 c 128,-1,19
 523 692 523 692 415 692 c 0,20,21
 308 692 308 692 232 616.5 c 128,-1,22
 156 541 156 541 156 433 c 256,23,12
 156 325 156 325 232 249 c 128,-1,13
EndSplineSet
EndChar
StartChar: u0A67
Encoding: 2663 2663 113
Width: 830
GlyphClass: 2
Flags: W
Fore
157.5 802.5 m 128,-1,1
 236 866 236 866 346 866 c 0,2,3
 471 866 471 866 560.5 802.5 c 128,-1,4
 650 739 650 739 650 650 c 2,5,-1
 650 173 l 2,6,7
 650 137 650 137 680 112 c 128,-1,8
 710 87 710 87 754 87 c 1,9,-1
 754 0 l 1,10,11
 674 0 674 0 618.5 51.5 c 128,-1,12
 563 103 563 103 563 173 c 2,13,-1
 563 502 l 1,14,15
 509 467 509 467 451 450 c 128,-1,16
 393 433 393 433 338 433 c 0,17,18
 230 433 230 433 154.5 496 c 128,-1,19
 79 559 79 559 79 650 c 0,20,0
 79 739 79 739 157.5 802.5 c 128,-1,1
215.5 557 m 128,-1,22
 266 519 266 519 338 519 c 0,23,24
 403 519 403 519 483 565 c 128,-1,25
 563 611 563 611 563 650 c 0,26,27
 563 703 563 703 497 741 c 128,-1,28
 431 779 431 779 338 779 c 0,29,30
 266 779 266 779 215.5 741 c 128,-1,31
 165 703 165 703 165 650 c 0,32,21
 165 595 165 595 215.5 557 c 128,-1,22
EndSplineSet
EndChar
StartChar: u0A68
Encoding: 2664 2664 114
Width: 828
GlyphClass: 2
Flags: W
Fore
239 844.5 m 128,-1,1
 328 866 328 866 407 866 c 0,2,3
 558 866 558 866 664.5 779 c 128,-1,4
 771 692 771 692 771 571 c 0,5,6
 771 477 771 477 702 393.5 c 128,-1,7
 633 310 633 310 519 269 c 1,8,9
 605 208 605 208 666.5 140.5 c 128,-1,10
 728 73 728 73 762 0 c 1,11,-1
 658 0 l 1,12,13
 610 83 610 83 546 145.5 c 128,-1,14
 482 208 482 208 407 242 c 1,15,16
 358 230 358 230 315 223.5 c 128,-1,17
 272 217 272 217 234 217 c 0,18,19
 169 217 169 217 124 241.5 c 128,-1,20
 79 266 79 266 79 304 c 128,-1,21
 79 342 79 342 124 370 c 128,-1,22
 169 398 169 398 234 398 c 0,23,24
 269 398 269 398 317 381 c 128,-1,25
 365 364 365 364 425 329 c 1,26,27
 542 373 542 373 613 439.5 c 128,-1,28
 684 506 684 506 684 571 c 0,29,30
 684 658 684 658 602.5 718.5 c 128,-1,31
 521 779 521 779 407 779 c 0,32,33
 328 779 328 779 248.5 757.5 c 128,-1,34
 169 736 169 736 96 692 c 1,35,-1
 59 779 l 1,36,0
 150 823 150 823 239 844.5 c 128,-1,1
EndSplineSet
EndChar
StartChar: u0A69
Encoding: 2665 2665 115
Width: 830
GlyphClass: 2
Flags: W
Fore
217.5 849 m 128,-1,1
 305 866 305 866 398 866 c 0,2,3
 549 866 549 866 655.5 808 c 128,-1,4
 762 750 762 750 762 667 c 0,5,6
 762 610 762 610 736 563.5 c 128,-1,7
 710 517 710 517 667 494 c 1,8,9
 719 469 719 469 749 429.5 c 128,-1,10
 779 390 779 390 779 346 c 0,11,12
 779 258 779 258 707 191.5 c 128,-1,13
 635 125 635 125 529 116 c 1,14,15
 621 83 621 83 683.5 65 c 128,-1,16
 746 47 746 47 779 44 c 1,17,-1
 727 -27 l 1,18,19
 629 -9 629 -9 541.5 24 c 128,-1,20
 454 57 454 57 381 104 c 1,21,-1
 225 104 l 2,22,23
 161 104 161 104 115 129 c 128,-1,24
 69 154 69 154 69 190 c 256,25,26
 69 226 69 226 94.5 251.5 c 128,-1,27
 120 277 120 277 156 277 c 0,28,29
 197 277 197 277 246.5 254.5 c 128,-1,30
 296 232 296 232 346 190 c 1,31,32
 531 190 531 190 611.5 227 c 128,-1,33
 692 264 692 264 692 346 c 0,34,35
 692 374 692 374 654.5 405.5 c 128,-1,36
 617 437 617 437 554 459 c 1,37,38
 506 447 506 447 432 440 c 128,-1,39
 358 433 358 433 260 433 c 0,40,41
 196 433 196 433 150 453 c 128,-1,42
 104 473 104 473 104 502 c 256,43,44
 104 531 104 531 150 551 c 128,-1,45
 196 571 196 571 260 571 c 0,46,47
 341 571 341 571 415.5 562.5 c 128,-1,48
 490 554 490 554 554 537 c 1,49,50
 610 555 610 555 642.5 592 c 128,-1,51
 675 629 675 629 675 667 c 0,52,53
 675 714 675 714 594 746.5 c 128,-1,54
 513 779 513 779 398 779 c 0,55,56
 317 779 317 779 236.5 764.5 c 128,-1,57
 156 750 156 750 79 722 c 1,58,-1
 52 802 l 1,59,0
 130 832 130 832 217.5 849 c 128,-1,1
EndSplineSet
EndChar
StartChar: u0A6A
Encoding: 2666 2666 116
Width: 830
GlyphClass: 2
Flags: W
Fore
140.5 800 m 128,-1,1
 212 866 212 866 312 866 c 1,2,-1
 329 779 l 1,3,4
 258 779 258 779 207 738.5 c 128,-1,5
 156 698 156 698 156 640 c 0,6,7
 156 561 156 561 232 505.5 c 128,-1,8
 308 450 308 450 415 450 c 0,9,10
 523 450 523 450 599 505.5 c 128,-1,11
 675 561 675 561 675 640 c 0,12,13
 675 698 675 698 632 738.5 c 128,-1,14
 589 779 589 779 529 779 c 1,15,-1
 546 866 l 1,16,17
 635 866 635 866 698.5 800 c 128,-1,18
 762 734 762 734 762 640 c 0,19,20
 762 569 762 569 714.5 506 c 128,-1,21
 667 443 667 443 589 415 c 1,22,23
 652 386 652 386 689.5 334 c 128,-1,24
 727 282 727 282 727 225 c 0,25,26
 727 132 727 132 636.5 66 c 128,-1,27
 546 0 546 0 415 0 c 0,28,29
 286 0 286 0 195 66 c 128,-1,30
 104 132 104 132 104 225 c 0,31,32
 104 288 104 288 142 340.5 c 128,-1,33
 180 393 180 393 242 415 c 1,34,35
 162 451 162 451 115.5 513 c 128,-1,36
 69 575 69 575 69 640 c 0,37,0
 69 734 69 734 140.5 800 c 128,-1,1
256 127.5 m 128,-1,39
 322 87 322 87 415 87 c 0,40,41
 509 87 509 87 574.5 127.5 c 128,-1,42
 640 168 640 168 640 225 c 256,43,44
 640 282 640 282 574.5 323 c 128,-1,45
 509 364 509 364 415 364 c 0,46,47
 322 364 322 364 256 323 c 128,-1,48
 190 282 190 282 190 225 c 256,49,38
 190 168 190 168 256 127.5 c 128,-1,39
EndSplineSet
EndChar
StartChar: u0A6B
Encoding: 2667 2667 117
Width: 830
GlyphClass: 2
Flags: W
Fore
161 866 m 1,0,1
 213 814 213 814 241 746.5 c 128,-1,2
 269 679 269 679 269 606 c 0,3,4
 269 563 269 563 253 516 c 128,-1,5
 237 469 237 469 208 425 c 1,6,7
 261 370 261 370 320.5 341 c 128,-1,8
 380 312 380 312 433 312 c 0,9,10
 489 312 489 312 544 334.5 c 128,-1,11
 599 357 599 357 650 398 c 1,12,-1
 650 866 l 1,13,-1
 734 866 l 1,14,-1
 736 0 l 1,15,-1
 650 0 l 1,16,-1
 650 294 l 1,17,18
 601 260 601 260 545.5 242.5 c 128,-1,19
 490 225 490 225 433 225 c 0,20,21
 345 225 345 225 255.5 277.5 c 128,-1,22
 166 330 166 330 96 425 c 1,23,24
 137 474 137 474 159.5 521.5 c 128,-1,25
 182 569 182 569 182 606 c 0,26,27
 182 656 182 656 162 703 c 128,-1,28
 142 750 142 750 104 788 c 1,29,-1
 161 866 l 1,0,1
EndSplineSet
EndChar
StartChar: u0A6C
Encoding: 2668 2668 118
Width: 828
GlyphClass: 2
Flags: W
Fore
184.5 723 m 128,-1,1
 296 796 296 796 454 796 c 1,2,3
 397 917 397 917 448 1030 c 128,-1,4
 499 1143 499 1143 610 1143 c 2,5,-1
 696 1143 l 1,6,-1
 696 1021 l 1,7,-1
 610 1021 l 2,8,9
 554 1021 554 1021 537.5 948 c 128,-1,10
 521 875 521 875 558 796 c 1,11,12
 640 796 640 796 698 766 c 128,-1,13
 756 736 756 736 756 692 c 0,14,15
 756 659 756 659 733.5 637 c 128,-1,16
 711 615 711 615 679 615 c 0,17,18
 629 615 629 615 583 639.5 c 128,-1,19
 537 664 537 664 506 710 c 1,20,-1
 419 710 l 2,21,22
 312 710 312 710 236 661.5 c 128,-1,23
 160 613 160 613 160 546 c 0,24,25
 160 513 160 513 192.5 477.5 c 128,-1,26
 225 442 225 442 281 415 c 1,27,28
 334 437 334 437 394.5 448 c 128,-1,29
 455 459 455 459 523 459 c 0,30,31
 610 459 610 459 670.5 431 c 128,-1,32
 731 403 731 403 731 364 c 0,33,34
 731 328 731 328 670.5 302.5 c 128,-1,35
 610 277 610 277 523 277 c 0,36,37
 466 277 466 277 407 288.5 c 128,-1,38
 348 300 348 300 289 321 c 1,39,40
 232 305 232 305 196 271 c 128,-1,41
 160 237 160 237 160 200 c 0,42,43
 160 152 160 152 210.5 119.5 c 128,-1,44
 261 87 261 87 333 87 c 2,45,-1
 748 87 l 1,46,-1
 748 0 l 1,47,-1
 333 0 l 2,48,49
 225 0 225 0 149 58 c 128,-1,50
 73 116 73 116 73 200 c 0,51,52
 73 253 73 253 103 299.5 c 128,-1,53
 133 346 133 346 185 373 c 1,54,55
 133 398 133 398 103 444.5 c 128,-1,56
 73 491 73 491 73 546 c 0,57,0
 73 650 73 650 184.5 723 c 128,-1,1
EndSplineSet
EndChar
StartChar: u0A6D
Encoding: 2669 2669 119
Width: 830
GlyphClass: 2
Flags: W
Fore
284 790 m 128,-1,1
 368 866 368 866 485 866 c 0,2,3
 603 866 603 866 687 764.5 c 128,-1,4
 771 663 771 663 771 519 c 0,5,6
 771 305 771 305 563.5 152.5 c 128,-1,7
 356 0 356 0 61 0 c 1,8,-1
 61 87 l 1,9,10
 318 87 318 87 501 213.5 c 128,-1,11
 684 340 684 340 684 519 c 0,12,13
 684 627 684 627 626.5 703 c 128,-1,14
 569 779 569 779 485 779 c 0,15,16
 402 779 402 779 344 727.5 c 128,-1,17
 286 676 286 676 286 606 c 0,18,19
 286 583 286 583 295 552 c 128,-1,20
 304 521 304 521 321 485 c 1,21,-1
 229 485 l 1,22,23
 214 521 214 521 207 551.5 c 128,-1,24
 200 582 200 582 200 606 c 0,25,0
 200 714 200 714 284 790 c 128,-1,1
EndSplineSet
EndChar
StartChar: u0A6E
Encoding: 2670 2670 120
Width: 830
GlyphClass: 2
Flags: W
Fore
130.5 790.5 m 128,-1,1
 192 866 192 866 234 866 c 0,2,3
 252 866 252 866 264.5 850.5 c 128,-1,4
 277 835 277 835 277 814 c 2,5,-1
 277 710 l 1,6,-1
 762 710 l 1,7,-1
 762 623 l 1,8,-1
 277 623 l 1,9,-1
 277 398 l 2,10,11
 277 269 277 269 368 178 c 128,-1,12
 459 87 459 87 589 87 c 2,13,-1
 762 87 l 1,14,-1
 762 0 l 1,15,-1
 589 0 l 2,16,17
 417 0 417 0 295 117 c 128,-1,18
 173 234 173 234 173 398 c 2,19,-1
 173 623 l 1,20,-1
 121 623 l 2,21,22
 100 623 100 623 84.5 636.5 c 128,-1,23
 69 650 69 650 69 667 c 0,24,0
 69 715 69 715 130.5 790.5 c 128,-1,1
EndSplineSet
EndChar
StartChar: u0A6F
Encoding: 2671 2671 121
Width: 830
GlyphClass: 4
Flags: W
Fore
130.5 790.5 m 128,-1,1
 192 866 192 866 234 866 c 0,2,3
 252 866 252 866 264.5 850.5 c 128,-1,4
 277 835 277 835 277 814 c 2,5,-1
 277 710 l 1,6,-1
 606 710 l 1,7,8
 474 820 474 820 493.5 981.5 c 128,-1,9
 513 1143 513 1143 658 1143 c 2,10,-1
 744 1143 l 1,11,-1
 744 1021 l 1,12,-1
 658 1021 l 2,13,14
 629 1021 629 1021 609 991 c 128,-1,15
 589 961 589 961 589 917 c 0,16,17
 589 848 589 848 636.5 791 c 128,-1,18
 684 734 684 734 762 710 c 1,19,-1
 762 623 l 1,20,-1
 277 623 l 1,21,-1
 277 398 l 2,22,23
 277 269 277 269 368 178 c 128,-1,24
 459 87 459 87 589 87 c 2,25,-1
 762 87 l 1,26,-1
 762 0 l 1,27,-1
 589 0 l 2,28,29
 417 0 417 0 295 117 c 128,-1,30
 173 234 173 234 173 398 c 2,31,-1
 173 623 l 1,32,-1
 121 623 l 2,33,34
 100 623 100 623 84.5 636.5 c 128,-1,35
 69 650 69 650 69 667 c 0,36,0
 69 715 69 715 130.5 790.5 c 128,-1,1
EndSplineSet
EndChar
StartChar: u0A70
Encoding: 2672 2672 122
Width: 0
GlyphClass: 4
Flags: W
AnchorPoint: "Anchor-0" -197 848 mark 0
Fore
-321.5 1247.5 m 128,-1,1
 -270 1298 -270 1298 -200 1298 c 0,2,3
 -128 1298 -128 1298 -77.5 1247.5 c 128,-1,4
 -27 1197 -27 1197 -27 1125 c 0,5,6
 -27 1072 -27 1072 -59.5 1026 c 128,-1,7
 -92 980 -92 980 -148 961 c 1,8,-1
 -148 996 l 1,9,10
 -116 1011 -116 1011 -97.5 1039 c 128,-1,11
 -79 1067 -79 1067 -79 1100 c 0,12,13
 -79 1147 -79 1147 -114 1179.5 c 128,-1,14
 -149 1212 -149 1212 -200 1212 c 0,15,16
 -249 1212 -249 1212 -285 1179.5 c 128,-1,17
 -321 1147 -321 1147 -321 1100 c 0,18,19
 -321 1067 -321 1067 -301.5 1039 c 128,-1,20
 -282 1011 -282 1011 -252 996 c 1,21,-1
 -252 961 l 1,22,23
 -305 975 -305 975 -339 1021 c 128,-1,24
 -373 1067 -373 1067 -373 1125 c 0,25,0
 -373 1197 -373 1197 -321.5 1247.5 c 128,-1,1
EndSplineSet
Substitution: 0 65534 'L000' glyph147
EndChar
StartChar: u0A71
Encoding: 2673 2673 123
Width: 0
GlyphClass: 2
Flags: W
Fore
-407 1281 m 1,0,1
 -407 1201 -407 1201 -346.5 1146 c 128,-1,2
 -286 1091 -286 1091 -200 1091 c 0,3,4
 -113 1091 -113 1091 -52 1146 c 128,-1,5
 9 1201 9 1201 9 1281 c 1,6,-1
 44 1281 l 1,7,8
 44 1166 44 1166 -27.5 1085 c 128,-1,9
 -99 1004 -99 1004 -200 1004 c 0,10,11
 -300 1004 -300 1004 -371 1085 c 128,-1,12
 -442 1166 -442 1166 -442 1281 c 1,13,-1
 -407 1281 l 1,0,1
EndSplineSet
EndChar
StartChar: u0A72
Encoding: 2674 2674 124
Width: 792
GlyphClass: 2
Flags: W
Fore
811 866 m 1,0,-1
 811 779 l 1,1,-1
 680 779 l 1,2,-1
 680 415 l 1,3,-1
 403 415 l 2,4,5
 352 415 352 415 292 376.5 c 128,-1,6
 232 338 232 338 178 269 c 1,7,8
 238 184 238 184 311.5 135.5 c 128,-1,9
 385 87 385 87 455 87 c 0,10,11
 518 87 518 87 582 109.5 c 128,-1,12
 646 132 646 132 707 173 c 1,13,-1
 724 156 l 1,14,15
 662 81 662 81 587.5 40.5 c 128,-1,16
 513 0 513 0 438 0 c 0,17,18
 356 0 356 0 259 71 c 128,-1,19
 162 142 162 142 75 269 c 1,20,21
 127 342 127 342 175.5 390.5 c 128,-1,22
 224 439 224 439 265 459 c 1,23,24
 185 495 185 495 138.5 582.5 c 128,-1,25
 92 670 92 670 92 779 c 1,26,-1
 -17 779 l 1,27,-1
 -17 866 l 1,28,-1
 811 866 l 1,0,-1
244 583 m 128,-1,30
 310 502 310 502 403 502 c 2,31,-1
 594 502 l 1,32,-1
 594 779 l 1,33,-1
 178 779 l 1,34,29
 178 664 178 664 244 583 c 128,-1,30
EndSplineSet
EndChar
StartChar: u0A73
Encoding: 2675 2675 125
Width: 918
GlyphClass: 2
Flags: W
Fore
81 866 m 1,0,1
 81 1031 81 1031 193 1147.5 c 128,-1,2
 305 1264 305 1264 462 1264 c 0,3,4
 627 1264 627 1264 743.5 1147.5 c 128,-1,5
 860 1031 860 1031 860 866 c 1,6,-1
 937 866 l 1,7,-1
 937 779 l 1,8,-1
 866 779 l 1,9,-1
 860 744 l 1,10,11
 860 638 860 638 799 549.5 c 128,-1,12
 738 461 738 461 635 425 c 1,13,14
 691 391 691 391 723.5 340 c 128,-1,15
 756 289 756 289 756 234 c 0,16,17
 756 137 756 137 685.5 68.5 c 128,-1,18
 615 0 615 0 514 0 c 0,19,20
 334 0 334 0 207.5 228.5 c 128,-1,21
 81 457 81 457 81 779 c 1,22,-1
 -17 779 l 1,23,-1
 -17 866 l 1,24,-1
 81 866 l 1,0,1
774 866 m 1,25,26
 774 996 774 996 683.5 1086.5 c 128,-1,27
 593 1177 593 1177 462 1177 c 0,28,29
 341 1177 341 1177 254.5 1086.5 c 128,-1,30
 168 996 168 996 168 866 c 1,31,-1
 774 866 l 1,25,26
175 632.5 m 128,-1,33
 182 558 182 558 194 485 c 1,34,-1
 514 485 l 2,35,36
 622 485 622 485 698 561.5 c 128,-1,37
 774 638 774 638 774 744 c 2,38,-1
 774 779 l 1,39,-1
 168 779 l 1,40,32
 168 707 168 707 175 632.5 c 128,-1,33
335.5 173.5 m 128,-1,42
 419 87 419 87 514 87 c 0,43,44
 578 87 578 87 624 130 c 128,-1,45
 670 173 670 173 670 234 c 0,46,47
 670 301 670 301 614.5 349.5 c 128,-1,48
 559 398 559 398 479 398 c 2,49,-1
 214 398 l 1,50,41
 252 260 252 260 335.5 173.5 c 128,-1,42
EndSplineSet
EndChar
StartChar: u0A74
Encoding: 2676 2676 126
Width: 1548
GlyphClass: 2
Flags: W
Fore
708 866 m 1,0,1
 708 1031 708 1031 824.5 1147.5 c 128,-1,2
 941 1264 941 1264 1107 1264 c 0,3,4
 1232 1264 1232 1264 1330.5 1202 c 128,-1,5
 1429 1140 1429 1140 1463 1037 c 1,6,7
 1579 1162 1579 1162 1717 1230 c 128,-1,8
 1855 1298 1855 1298 1989 1298 c 0,9,10
 2120 1298 2120 1298 2210.5 1181.5 c 128,-1,11
 2301 1065 2301 1065 2301 900 c 1,12,-1
 2214 900 l 1,13,14
 2214 1031 2214 1031 2148.5 1121.5 c 128,-1,15
 2083 1212 2083 1212 1989 1212 c 0,16,17
 1858 1212 1858 1212 1726.5 1142 c 128,-1,18
 1595 1072 1595 1072 1487 944 c 1,19,-1
 1401 944 l 1,20,21
 1393 1043 1393 1043 1307.5 1110 c 128,-1,22
 1222 1177 1222 1177 1107 1177 c 0,23,24
 976 1177 976 1177 885.5 1086.5 c 128,-1,25
 795 996 795 996 795 866 c 1,26,-1
 1567 866 l 1,27,-1
 1567 779 l 1,28,-1
 1487 779 l 1,29,-1
 1487 744 l 2,30,31
 1487 629 1487 629 1432.5 539 c 128,-1,32
 1378 449 1378 449 1288 415 c 1,33,34
 1333 385 1333 385 1358.5 336.5 c 128,-1,35
 1384 288 1384 288 1384 234 c 0,36,37
 1384 137 1384 137 1312.5 68.5 c 128,-1,38
 1241 0 1241 0 1141 0 c 0,39,40
 961 0 961 0 834.5 228.5 c 128,-1,41
 708 457 708 457 708 779 c 1,42,-1
 610 779 l 1,43,-1
 610 866 l 1,44,-1
 708 866 l 1,0,1
801.5 632.5 m 128,-1,46
 808 558 808 558 820 485 c 1,47,-1
 1141 485 l 2,48,49
 1249 485 1249 485 1325 561.5 c 128,-1,50
 1401 638 1401 638 1401 744 c 2,51,-1
 1401 779 l 1,52,-1
 795 779 l 1,53,45
 795 707 795 707 801.5 632.5 c 128,-1,46
961.5 173.5 m 128,-1,55
 1045 87 1045 87 1141 87 c 0,56,57
 1205 87 1205 87 1251 130 c 128,-1,58
 1297 173 1297 173 1297 234 c 0,59,60
 1297 301 1297 301 1241.5 349.5 c 128,-1,61
 1186 398 1186 398 1107 398 c 2,62,-1
 842 398 l 1,63,54
 878 260 878 260 961.5 173.5 c 128,-1,55
129.5 802.5 m 128,-1,65
 208 866 208 866 318 866 c 0,66,67
 443 866 443 866 532.5 802.5 c 128,-1,68
 622 739 622 739 622 650 c 2,69,-1
 622 173 l 2,70,71
 622 137 622 137 652 112 c 128,-1,72
 682 87 682 87 726 87 c 1,73,-1
 726 0 l 1,74,75
 646 0 646 0 590.5 51.5 c 128,-1,76
 535 103 535 103 535 173 c 2,77,-1
 535 502 l 1,78,79
 482 467 482 467 423.5 450 c 128,-1,80
 365 433 365 433 310 433 c 0,81,82
 202 433 202 433 126.5 496 c 128,-1,83
 51 559 51 559 51 650 c 0,84,64
 51 739 51 739 129.5 802.5 c 128,-1,65
187.5 557 m 128,-1,86
 238 519 238 519 310 519 c 0,87,88
 376 519 376 519 455.5 565 c 128,-1,89
 535 611 535 611 535 650 c 0,90,91
 535 703 535 703 469 741 c 128,-1,92
 403 779 403 779 310 779 c 0,93,94
 238 779 238 779 187.5 741 c 128,-1,95
 137 703 137 703 137 650 c 0,96,85
 137 595 137 595 187.5 557 c 128,-1,86
EndSplineSet
EndChar
StartChar: afii61664
Encoding: 8204 8204 127
Width: 380
GlyphClass: 2
Flags: W
Fore
156 1298 m 1,0,-1
 225 1298 l 1,1,-1
 225 -425 l 1,2,-1
 156 -425 l 1,3,-1
 156 1298 l 1,0,-1
EndSplineSet
EndChar
StartChar: afii301
Encoding: 8205 8205 128
Width: 380
GlyphClass: 2
Flags: W
Fore
156 1298 m 1,0,-1
 450 1298 l 1,1,-1
 450 1229 l 1,2,-1
 225 1229 l 1,3,-1
 225 -425 l 1,4,-1
 156 -425 l 1,5,-1
 156 1298 l 1,0,-1
EndSplineSet
EndChar
StartChar: endash
Encoding: 8211 8211 129
Width: 830
GlyphClass: 2
Flags: W
Fore
0 519 m 1,0,-1
 867 519 l 1,1,-1
 867 433 l 1,2,-1
 0 433 l 1,3,-1
 0 519 l 1,0,-1
EndSplineSet
EndChar
StartChar: emdash
Encoding: 8212 8212 130
Width: 1731
GlyphClass: 2
Flags: W
Fore
0 519 m 1,0,-1
 1731 519 l 1,1,-1
 1731 433 l 1,2,-1
 0 433 l 1,3,-1
 0 519 l 1,0,-1
EndSplineSet
EndChar
StartChar: quoteleft
Encoding: 8216 8216 131
Width: 502
GlyphClass: 2
Flags: W
Fore
346 883 m 1,0,-1
 156 883 l 1,1,-1
 156 1039 l 2,2,3
 156 1089 156 1089 169 1136.5 c 128,-1,4
 182 1184 182 1184 208 1229 c 1,5,-1
 312 1212 l 1,6,7
 288 1192 288 1192 274 1146.5 c 128,-1,8
 260 1101 260 1101 260 1039 c 1,9,-1
 346 1039 l 1,10,-1
 346 883 l 1,0,-1
EndSplineSet
EndChar
StartChar: quoteright
Encoding: 8217 8217 132
Width: 504
GlyphClass: 2
Flags: W
Fore
156 1021 m 1,0,-1
 346 1021 l 1,1,-1
 350 866 l 2,2,3
 350 819 350 819 336 770.5 c 128,-1,4
 322 722 322 722 294 675 c 1,5,-1
 190 692 l 1,6,7
 214 714 214 714 228 758.5 c 128,-1,8
 242 803 242 803 242 866 c 1,9,-1
 156 866 l 1,10,-1
 156 1021 l 1,0,-1
EndSplineSet
EndChar
StartChar: quotedblleft
Encoding: 8220 8220 133
Width: 778
GlyphClass: 2
Flags: W
Fore
346 883 m 1,0,-1
 156 883 l 1,1,-1
 156 1039 l 2,2,3
 156 1089 156 1089 169 1136.5 c 128,-1,4
 182 1184 182 1184 208 1229 c 1,5,-1
 312 1212 l 1,6,7
 288 1192 288 1192 274 1146.5 c 128,-1,8
 260 1101 260 1101 260 1039 c 1,9,-1
 346 1039 l 1,10,-1
 346 883 l 1,0,-1
623 883 m 1,11,-1
 433 883 l 1,12,-1
 433 1039 l 2,13,14
 433 1089 433 1089 446 1136.5 c 128,-1,15
 459 1184 459 1184 485 1229 c 1,16,-1
 589 1212 l 1,17,18
 565 1192 565 1192 551 1146.5 c 128,-1,19
 537 1101 537 1101 537 1039 c 1,20,-1
 623 1039 l 1,21,-1
 623 883 l 1,11,-1
EndSplineSet
EndChar
StartChar: quotedblright
Encoding: 8221 8221 134
Width: 816
GlyphClass: 2
Flags: W
Fore
156 1021 m 1,0,-1
 346 1021 l 1,1,-1
 350 866 l 2,2,3
 350 819 350 819 336 770.5 c 128,-1,4
 322 722 322 722 294 675 c 1,5,-1
 190 692 l 1,6,7
 214 714 214 714 228 758.5 c 128,-1,8
 242 803 242 803 242 866 c 1,9,-1
 156 866 l 1,10,-1
 156 1021 l 1,0,-1
467 1021 m 1,11,-1
 658 1021 l 1,12,-1
 662 866 l 2,13,14
 662 819 662 819 648 770.5 c 128,-1,15
 634 722 634 722 606 675 c 1,16,-1
 502 692 l 1,17,18
 526 714 526 714 540 758.5 c 128,-1,19
 554 803 554 803 554 866 c 1,20,-1
 467 866 l 1,21,-1
 467 1021 l 1,11,-1
EndSplineSet
EndChar
StartChar: ellipsis
Encoding: 8230 8230 135
Width: 1121
GlyphClass: 2
Flags: W
Fore
16 79 m 1,0,-1
 206 79 l 1,1,-1
 206 0 l 1,2,-1
 16 0 l 1,3,-1
 16 79 l 1,0,-1
466 79 m 1,4,-1
 656 79 l 1,5,-1
 656 0 l 1,6,-1
 466 0 l 1,7,-1
 466 79 l 1,4,-1
916 79 m 1,8,-1
 1107 79 l 1,9,-1
 1107 0 l 1,10,-1
 916 0 l 1,11,-1
 916 79 l 1,8,-1
EndSplineSet
EndChar
StartChar: minus
Encoding: 8722 8722 136
Width: 917
GlyphClass: 2
Flags: W
Fore
156 519 m 1,0,-1
 762 519 l 1,1,-1
 762 433 l 1,2,-1
 156 433 l 1,3,-1
 156 519 l 1,0,-1
EndSplineSet
EndChar
StartChar: uni25CC
Encoding: 9676 9676 137
Width: 1246
GlyphClass: 2
Flags: W
Fore
579.5 890.5 m 128,-1,1
 598 909 598 909 623 909 c 0,2,3
 650 909 650 909 668 890.5 c 128,-1,4
 686 872 686 872 686 847 c 0,5,6
 686 820 686 820 668 802 c 128,-1,7
 650 784 650 784 623 784 c 0,8,9
 598 784 598 784 579.5 802 c 128,-1,10
 561 820 561 820 561 847 c 0,11,0
 561 872 561 872 579.5 890.5 c 128,-1,1
579.5 81 m 128,-1,13
 598 99 598 99 623 99 c 0,14,15
 650 99 650 99 668 81 c 128,-1,16
 686 63 686 63 686 36 c 0,17,18
 686 11 686 11 668 -8 c 128,-1,19
 650 -27 650 -27 623 -27 c 0,20,21
 598 -27 598 -27 579.5 -8 c 128,-1,22
 561 11 561 11 561 36 c 0,23,12
 561 63 561 63 579.5 81 c 128,-1,13
174 485 m 128,-1,25
 192 503 192 503 218 503 c 128,-1,26
 244 503 244 503 262.5 485 c 128,-1,27
 281 467 281 467 281 442 c 0,28,29
 281 415 281 415 262.5 397.5 c 128,-1,30
 244 380 244 380 218 380 c 128,-1,31
 192 380 192 380 174 397.5 c 128,-1,32
 156 415 156 415 156 442 c 0,33,24
 156 467 156 467 174 485 c 128,-1,25
985 485 m 128,-1,35
 1003 503 1003 503 1028 503 c 0,36,37
 1055 503 1055 503 1073 485 c 128,-1,38
 1091 467 1091 467 1091 442 c 0,39,40
 1091 415 1091 415 1073 397.5 c 128,-1,41
 1055 380 1055 380 1028 380 c 0,42,43
 1003 380 1003 380 985 397.5 c 128,-1,44
 967 415 967 415 967 442 c 0,45,34
 967 467 967 467 985 485 c 128,-1,35
230 283 m 128,-1,47
 248 301 248 301 273 301 c 0,48,49
 300 301 300 301 318 283 c 128,-1,50
 336 265 336 265 336 238 c 0,51,52
 336 213 336 213 318 195 c 128,-1,53
 300 177 300 177 273 177 c 0,54,55
 248 177 248 177 230 195 c 128,-1,56
 212 213 212 213 212 238 c 0,57,46
 212 265 212 265 230 283 c 128,-1,47
930.5 688.5 m 128,-1,59
 949 707 949 707 975 707 c 128,-1,60
 1001 707 1001 707 1019 688.5 c 128,-1,61
 1037 670 1037 670 1037 644 c 128,-1,62
 1037 618 1037 618 1019 600 c 128,-1,63
 1001 582 1001 582 975 582 c 128,-1,64
 949 582 949 582 930.5 600 c 128,-1,65
 912 618 912 618 912 644 c 128,-1,58
 912 670 912 670 930.5 688.5 c 128,-1,59
781.5 837 m 128,-1,67
 800 855 800 855 826 855 c 128,-1,68
 852 855 852 855 870 837 c 128,-1,69
 888 819 888 819 888 794 c 0,70,71
 888 767 888 767 870 749 c 128,-1,72
 852 731 852 731 826 731 c 128,-1,73
 800 731 800 731 781.5 749 c 128,-1,74
 763 767 763 767 763 794 c 0,75,66
 763 819 763 819 781.5 837 c 128,-1,67
376 135.5 m 128,-1,77
 394 154 394 154 421 154 c 0,78,79
 447 154 447 154 465 135.5 c 128,-1,80
 483 117 483 117 483 92 c 0,81,82
 483 65 483 65 465 46.5 c 128,-1,83
 447 28 447 28 421 28 c 0,84,85
 394 28 394 28 376 46.5 c 128,-1,86
 358 65 358 65 358 92 c 0,87,76
 358 117 358 117 376 135.5 c 128,-1,77
230 688.5 m 128,-1,89
 248 707 248 707 273 707 c 0,90,91
 300 707 300 707 318 688.5 c 128,-1,92
 336 670 336 670 336 644 c 128,-1,93
 336 618 336 618 318 600 c 128,-1,94
 300 582 300 582 273 582 c 0,95,96
 248 582 248 582 230 600 c 128,-1,97
 212 618 212 618 212 644 c 128,-1,88
 212 670 212 670 230 688.5 c 128,-1,89
930.5 283 m 128,-1,99
 949 301 949 301 975 301 c 128,-1,100
 1001 301 1001 301 1019 283 c 128,-1,101
 1037 265 1037 265 1037 238 c 0,102,103
 1037 213 1037 213 1019 195 c 128,-1,104
 1001 177 1001 177 975 177 c 128,-1,105
 949 177 949 177 930.5 195 c 128,-1,106
 912 213 912 213 912 238 c 0,107,98
 912 265 912 265 930.5 283 c 128,-1,99
376 837 m 128,-1,109
 394 855 394 855 421 855 c 0,110,111
 447 855 447 855 465 837 c 128,-1,112
 483 819 483 819 483 794 c 0,113,114
 483 767 483 767 465 749 c 128,-1,115
 447 731 447 731 421 731 c 0,116,117
 394 731 394 731 376 749 c 128,-1,118
 358 767 358 767 358 794 c 0,119,108
 358 819 358 819 376 837 c 128,-1,109
781.5 135.5 m 128,-1,121
 800 154 800 154 826 154 c 128,-1,122
 852 154 852 154 870 135.5 c 128,-1,123
 888 117 888 117 888 92 c 0,124,125
 888 65 888 65 870 46.5 c 128,-1,126
 852 28 852 28 826 28 c 128,-1,127
 800 28 800 28 781.5 46.5 c 128,-1,128
 763 65 763 65 763 92 c 0,129,120
 763 117 763 117 781.5 135.5 c 128,-1,121
EndSplineSet
EndChar
StartChar: u0A15_u0A30_u0A4D.blwf.vatu
Encoding: 65539 -1 138
Width: 842
GlyphClass: 2
Flags: W
Fore
860 866 m 1,0,-1
 860 779 l 1,1,-1
 720 779 l 1,2,3
 720 655 720 655 693.5 544.5 c 128,-1,4
 667 434 667 434 617 346 c 1,5,6
 667 273 667 273 693.5 185 c 128,-1,7
 720 97 720 97 720 0 c 1,8,-1
 634 0 l 1,9,10
 634 73 634 73 616.5 141 c 128,-1,11
 599 209 599 209 565 269 c 1,12,13
 518 213 518 213 462.5 176.5 c 128,-1,14
 407 140 407 140 348 127 c 1,15,-1
 348 -113 l 1,16,-1
 694 -398 l 1,17,-1
 659 -433 l 1,18,19
 646 -422 646 -422 528.5 -323.5 c 128,-1,20
 411 -225 411 -225 357 -225 c 1,21,22
 357 -265 357 -265 323.5 -293 c 128,-1,23
 290 -321 290 -321 244 -321 c 0,24,25
 201 -321 201 -321 170.5 -290.5 c 128,-1,26
 140 -260 140 -260 140 -217 c 0,27,28
 140 -169 140 -169 176 -136.5 c 128,-1,29
 212 -104 212 -104 261 -104 c 1,30,-1
 261 125 l 1,31,32
 174 140 174 140 118.5 202.5 c 128,-1,33
 63 265 63 265 63 346 c 0,34,35
 63 439 63 439 133.5 505 c 128,-1,36
 204 571 204 571 305 571 c 0,37,38
 373 571 373 571 441 535 c 128,-1,39
 509 499 509 499 565 433 c 1,40,41
 599 491 599 491 616.5 579.5 c 128,-1,42
 634 668 634 668 634 779 c 1,43,-1
 -17 779 l 1,44,-1
 -17 866 l 1,45,-1
 860 866 l 1,0,-1
195 248.5 m 128,-1,47
 241 208 241 208 305 208 c 0,48,49
 370 208 370 208 430 248 c 128,-1,50
 490 288 490 288 530 356 c 1,51,52
 495 415 495 415 434.5 450 c 128,-1,53
 374 485 374 485 305 485 c 0,54,55
 241 485 241 485 195 444 c 128,-1,56
 149 403 149 403 149 346 c 256,57,46
 149 289 149 289 195 248.5 c 128,-1,47
EndSplineSet
Ligature: 0 0 'vatu' u0A15 u0A30_u0A4D.blwf
EndChar
StartChar: u0A21_u0A30_u0A4D.blwf.vatu
Encoding: 65540 -1 139
Width: 828
GlyphClass: 2
Flags: W
Fore
847 866 m 1,0,-1
 847 779 l 1,1,-1
 686 779 l 1,2,3
 694 763 694 763 698.5 745.5 c 128,-1,4
 703 728 703 728 703 710 c 0,5,6
 703 650 703 650 675 598.5 c 128,-1,7
 647 547 647 547 599 519 c 1,8,9
 655 486 655 486 687.5 427 c 128,-1,10
 720 368 720 368 720 294 c 0,11,12
 720 238 720 238 691 185.5 c 128,-1,13
 662 133 662 133 607 93 c 1,14,-1
 607 -113 l 1,15,-1
 955 -398 l 1,16,-1
 920 -433 l 1,17,18
 905 -422 905 -422 788.5 -323.5 c 128,-1,19
 672 -225 672 -225 617 -225 c 1,20,21
 617 -265 617 -265 584 -293 c 128,-1,22
 551 -321 551 -321 503 -321 c 0,23,24
 461 -321 461 -321 430 -290.5 c 128,-1,25
 399 -260 399 -260 399 -217 c 0,26,27
 399 -169 399 -169 435 -136.5 c 128,-1,28
 471 -104 471 -104 521 -104 c 1,29,-1
 521 44 l 1,30,31
 471 23 471 23 416.5 11.5 c 128,-1,32
 362 0 362 0 305 0 c 0,33,34
 204 0 204 0 133.5 55.5 c 128,-1,35
 63 111 63 111 63 190 c 0,36,37
 63 254 63 254 123.5 300 c 128,-1,38
 184 346 184 346 270 346 c 0,39,40
 341 346 341 346 421 299 c 128,-1,41
 501 252 501 252 573 165 c 1,42,43
 603 194 603 194 618.5 227.5 c 128,-1,44
 634 261 634 261 634 294 c 0,45,46
 634 342 634 342 601.5 388 c 128,-1,47
 569 434 569 434 513 467 c 1,48,49
 479 459 479 459 432 454.5 c 128,-1,50
 385 450 385 450 322 450 c 0,51,52
 236 450 236 450 175.5 475.5 c 128,-1,53
 115 501 115 501 115 537 c 0,54,55
 115 566 115 566 160.5 586 c 128,-1,56
 206 606 206 606 270 606 c 0,57,58
 318 606 318 606 372.5 594.5 c 128,-1,59
 427 583 427 583 486 563 c 1,60,61
 546 590 546 590 581.5 630 c 128,-1,62
 617 670 617 670 617 710 c 0,63,64
 617 728 617 728 610 745.5 c 128,-1,65
 603 763 603 763 590 779 c 1,66,-1
 -17 779 l 1,67,-1
 -17 866 l 1,68,-1
 847 866 l 1,0,-1
195 114.5 m 128,-1,70
 241 87 241 87 305 87 c 0,71,72
 357 87 357 87 411.5 100 c 128,-1,73
 466 113 466 113 521 138 c 1,74,75
 451 197 451 197 386.5 228.5 c 128,-1,76
 322 260 322 260 270 260 c 0,77,78
 220 260 220 260 184.5 237 c 128,-1,79
 149 214 149 214 149 182 c 0,80,69
 149 142 149 142 195 114.5 c 128,-1,70
EndSplineSet
Ligature: 0 0 'vatu' u0A21 u0A30_u0A4D.blwf
EndChar
StartChar: u0A24_u0A30_u0A4D.blwf.vatu
Encoding: 65541 -1 140
Width: 825
GlyphClass: 2
Flags: W
Fore
843 866 m 1,0,-1
 843 779 l 1,1,-1
 686 779 l 1,2,3
 704 668 704 668 675.5 573.5 c 128,-1,4
 647 479 647 479 578 433 c 1,5,6
 639 405 639 405 675 346.5 c 128,-1,7
 711 288 711 288 711 217 c 0,8,9
 711 173 711 173 689 132.5 c 128,-1,10
 667 92 667 92 625 61 c 1,11,-1
 625 -113 l 1,12,-1
 972 -398 l 1,13,-1
 937 -433 l 1,14,15
 923 -422 923 -422 806.5 -323.5 c 128,-1,16
 690 -225 690 -225 634 -225 c 1,17,18
 634 -265 634 -265 601.5 -293 c 128,-1,19
 569 -321 569 -321 521 -321 c 0,20,21
 478 -321 478 -321 447.5 -290.5 c 128,-1,22
 417 -260 417 -260 417 -217 c 0,23,24
 417 -169 417 -169 453 -136.5 c 128,-1,25
 489 -104 489 -104 538 -104 c 1,26,-1
 538 16 l 1,27,28
 514 9 514 9 488 4.5 c 128,-1,29
 462 0 462 0 434 0 c 0,30,31
 328 0 328 0 221.5 57.5 c 128,-1,32
 115 115 115 115 28 217 c 1,33,-1
 53 242 l 1,34,35
 134 168 134 168 228 127.5 c 128,-1,36
 322 87 322 87 417 87 c 0,37,38
 503 87 503 87 564 124.5 c 128,-1,39
 625 162 625 162 625 217 c 0,40,41
 625 269 625 269 587 313.5 c 128,-1,42
 549 358 549 358 486 381 c 1,43,44
 439 364 439 364 390.5 355 c 128,-1,45
 342 346 342 346 296 346 c 0,46,47
 225 346 225 346 174 371.5 c 128,-1,48
 123 397 123 397 123 433 c 256,49,50
 123 469 123 469 174 494 c 128,-1,51
 225 519 225 519 296 519 c 0,52,53
 321 519 321 519 368 506.5 c 128,-1,54
 415 494 415 494 486 467 c 1,55,56
 569 525 569 525 598 613.5 c 128,-1,57
 627 702 627 702 590 779 c 1,58,-1
 -17 779 l 1,59,-1
 -17 866 l 1,60,-1
 843 866 l 1,0,-1
EndSplineSet
Ligature: 0 0 'vatu' u0A24 u0A30_u0A4D.blwf
EndChar
StartChar: u0A26_u0A30_u0A4D.blwf.vatu
Encoding: 65542 -1 141
Width: 882
GlyphClass: 2
Flags: W
Fore
900 866 m 1,0,-1
 900 779 l 1,1,-1
 762 779 l 1,2,-1
 762 381 l 1,3,-1
 242 381 l 1,4,5
 242 260 242 260 323.5 173.5 c 128,-1,6
 405 87 405 87 519 87 c 0,7,8
 590 87 590 87 655 109.5 c 128,-1,9
 720 132 720 132 771 173 c 1,10,-1
 806 148 l 1,11,12
 780 117 780 117 752 93 c 128,-1,13
 724 69 724 69 692 51 c 1,14,-1
 692 -113 l 1,15,-1
 1039 -398 l 1,16,-1
 1004 -433 l 1,17,18
 991 -422 991 -422 873.5 -323.5 c 128,-1,19
 756 -225 756 -225 702 -225 c 1,20,21
 702 -265 702 -265 668.5 -293 c 128,-1,22
 635 -321 635 -321 589 -321 c 0,23,24
 546 -321 546 -321 515.5 -290.5 c 128,-1,25
 485 -260 485 -260 485 -217 c 0,26,27
 485 -169 485 -169 520 -136.5 c 128,-1,28
 555 -104 555 -104 606 -104 c 1,29,-1
 606 12 l 1,30,31
 586 7 586 7 564 3.5 c 128,-1,32
 542 0 542 0 519 0 c 0,33,34
 369 0 369 0 262.5 112 c 128,-1,35
 156 224 156 224 156 381 c 1,36,-1
 96 381 l 2,37,38
 71 381 71 381 53 391.5 c 128,-1,39
 35 402 35 402 35 415 c 0,40,41
 35 459 35 459 96 524 c 128,-1,42
 157 589 157 589 200 589 c 0,43,44
 217 589 217 589 229.5 573.5 c 128,-1,45
 242 558 242 558 242 537 c 2,46,-1
 242 467 l 1,47,-1
 675 467 l 1,48,-1
 675 779 l 1,49,-1
 -17 779 l 1,50,-1
 -17 866 l 1,51,-1
 900 866 l 1,0,-1
EndSplineSet
Ligature: 0 0 'vatu' u0A26 u0A30_u0A4D.blwf
EndChar
StartChar: u0A2D_u0A30_u0A4D.blwf.vatu
Encoding: 65543 -1 142
Width: 788
GlyphClass: 2
Flags: W
Fore
807 866 m 1,0,-1
 807 779 l 1,1,-1
 651 779 l 1,2,3
 670 668 670 668 654 579 c 128,-1,4
 638 490 638 490 589 442 c 1,5,6
 622 402 622 402 640 359.5 c 128,-1,7
 658 317 658 317 658 277 c 0,8,9
 658 229 658 229 640 181.5 c 128,-1,10
 622 134 622 134 589 99 c 1,11,-1
 589 -113 l 1,12,-1
 935 -398 l 1,13,-1
 900 -433 l 1,14,15
 887 -422 887 -422 769.5 -323.5 c 128,-1,16
 652 -225 652 -225 598 -225 c 1,17,18
 598 -265 598 -265 564.5 -293 c 128,-1,19
 531 -321 531 -321 485 -321 c 0,20,21
 442 -321 442 -321 411.5 -290.5 c 128,-1,22
 381 -260 381 -260 381 -217 c 0,23,24
 381 -169 381 -169 416 -136.5 c 128,-1,25
 451 -104 451 -104 502 -104 c 1,26,-1
 502 33 l 1,27,28
 471 17 471 17 435 8.5 c 128,-1,29
 399 0 399 0 364 0 c 0,30,31
 282 0 282 0 202.5 40.5 c 128,-1,32
 123 81 123 81 61 156 c 1,33,-1
 87 190 l 1,34,35
 137 140 137 140 209 113.5 c 128,-1,36
 281 87 281 87 364 87 c 0,37,38
 450 87 450 87 510.5 142 c 128,-1,39
 571 197 571 197 571 277 c 0,40,41
 571 308 571 308 562.5 336.5 c 128,-1,42
 554 365 554 365 537 390 c 1,43,44
 471 336 471 336 408.5 306.5 c 128,-1,45
 346 277 346 277 294 277 c 0,46,47
 208 277 208 277 147.5 328.5 c 128,-1,48
 87 380 87 380 87 450 c 0,49,50
 87 521 87 521 147.5 572 c 128,-1,51
 208 623 208 623 294 623 c 0,52,53
 346 623 346 623 408.5 594 c 128,-1,54
 471 565 471 565 537 511 c 1,55,56
 566 546 566 546 572 616 c 128,-1,57
 578 686 578 686 563 779 c 1,58,-1
 -17 779 l 1,59,-1
 -17 866 l 1,60,-1
 807 866 l 1,0,-1
208.5 389 m 128,-1,62
 244 364 244 364 294 364 c 0,63,64
 345 364 345 364 394 386.5 c 128,-1,65
 443 409 443 409 485 450 c 1,66,67
 443 491 443 491 394 514 c 128,-1,68
 345 537 345 537 294 537 c 0,69,70
 244 537 244 537 208.5 511.5 c 128,-1,71
 173 486 173 486 173 450 c 256,72,61
 173 414 173 414 208.5 389 c 128,-1,62
EndSplineSet
Ligature: 0 0 'vatu' u0A2D u0A30_u0A4D.blwf
EndChar
StartChar: u0A39_u0A4D.blwf
Encoding: 65544 -1 143
Width: 0
GlyphClass: 2
Flags: W
Fore
-486 -146.5 m 128,-1,1
 -461 -121 -461 -121 -425 -121 c 2,2,-1
 -338 -121 l 1,3,-1
 -338 -190 l 1,4,-1
 -425 -190 l 2,5,6
 -431 -190 -431 -190 -436.5 -195.5 c 128,-1,7
 -442 -201 -442 -201 -442 -208 c 0,8,9
 -442 -246 -442 -246 -370 -305 c 128,-1,10
 -298 -364 -298 -364 -252 -364 c 0,11,12
 -244 -364 -244 -364 -239 -358.5 c 128,-1,13
 -234 -353 -234 -353 -234 -346 c 2,14,-1
 -234 -17 l 1,15,-1
 -165 -17 l 1,16,-1
 -165 -346 l 2,17,18
 -165 -382 -165 -382 -189.5 -407.5 c 128,-1,19
 -214 -433 -214 -433 -252 -433 c 0,20,21
 -316 -433 -316 -433 -413.5 -348.5 c 128,-1,22
 -511 -264 -511 -264 -511 -208 c 0,23,0
 -511 -172 -511 -172 -486 -146.5 c 128,-1,1
EndSplineSet
Ligature: 0 0 'blwf' u0A39 u0A4D
EndChar
StartChar: u0A35_u0A4D.blwf
Encoding: 65545 -1 144
Width: 0
GlyphClass: 2
Flags: W
Fore
-510 -82.5 m 128,-1,1
 -474 -52 -474 -52 -425 -52 c 2,2,-1
 -234 -52 l 1,3,-1
 -234 -17 l 1,4,-1
 -165 -17 l 1,5,-1
 -165 -121 l 1,6,-1
 -425 -121 l 2,7,8
 -445 -121 -445 -121 -461 -131.5 c 128,-1,9
 -477 -142 -477 -142 -477 -156 c 0,10,11
 -477 -177 -477 -177 -457 -192.5 c 128,-1,12
 -437 -208 -437 -208 -407 -208 c 2,13,-1
 -200 -208 l 1,14,-1
 -200 -277 l 1,15,-1
 -381 -277 l 2,16,17
 -398 -277 -398 -277 -411.5 -290.5 c 128,-1,18
 -425 -304 -425 -304 -425 -321 c 256,19,20
 -425 -338 -425 -338 -409 -351 c 128,-1,21
 -393 -364 -393 -364 -373 -364 c 2,22,-1
 -200 -364 l 1,23,-1
 -200 -433 l 1,24,-1
 -373 -433 l 2,25,26
 -422 -433 -422 -433 -458 -403 c 128,-1,27
 -494 -373 -494 -373 -494 -329 c 0,28,29
 -494 -310 -494 -310 -485.5 -291.5 c 128,-1,30
 -477 -273 -477 -273 -459 -260 c 1,31,32
 -499 -237 -499 -237 -522.5 -208.5 c 128,-1,33
 -546 -180 -546 -180 -546 -156 c 0,34,0
 -546 -113 -546 -113 -510 -82.5 c 128,-1,1
EndSplineSet
Ligature: 0 0 'blwf' u0A35 u0A4D
EndChar
StartChar: u0A30_u0A4D.blwf
Encoding: 65546 -1 145
Width: 0
GlyphClass: 4
Flags: W
AnchorPoint: "Anchor-0" -320 826 mark 0
Fore
-328.5 -136.5 m 128,-1,1
 -293 -104 -293 -104 -242 -104 c 1,2,-1
 -242 0 l 1,3,-1
 -156 0 l 1,4,-1
 -156 -113 l 1,5,-1
 190 -398 l 1,6,-1
 156 -433 l 1,7,8
 142 -422 142 -422 25 -323.5 c 128,-1,9
 -92 -225 -92 -225 -148 -225 c 1,10,11
 -148 -265 -148 -265 -180.5 -293 c 128,-1,12
 -213 -321 -213 -321 -260 -321 c 0,13,14
 -304 -321 -304 -321 -334 -290.5 c 128,-1,15
 -364 -260 -364 -260 -364 -217 c 0,16,0
 -364 -169 -364 -169 -328.5 -136.5 c 128,-1,1
EndSplineSet
Ligature: 0 0 'blwf' u0A30 u0A4D
EndChar
StartChar: u0A47_u0A02.abvs
Encoding: 65547 -1 146
Width: 0
GlyphClass: 4
Flags: W
AnchorPoint: "Anchor-0" -193 878 mark 0
Fore
-666 1223.5 m 128,-1,1
 -630 1246 -630 1246 -581 1246 c 0,2,3
 -457 1246 -457 1246 -347.5 1151 c 128,-1,4
 -238 1056 -238 1056 -182 900 c 1,5,-1
 -217 900 l 1,6,7
 -253 1003 -253 1003 -339 1064 c 128,-1,8
 -425 1125 -425 1125 -529 1125 c 0,9,10
 -543 1125 -543 1125 -571 1116.5 c 128,-1,11
 -599 1108 -599 1108 -615 1108 c 0,12,13
 -651 1108 -651 1108 -676.5 1126.5 c 128,-1,14
 -702 1145 -702 1145 -702 1169 c 0,15,0
 -702 1201 -702 1201 -666 1223.5 c 128,-1,1
-167.5 1241 m 128,-1,17
 -145 1264 -145 1264 -113 1264 c 0,18,19
 -80 1264 -80 1264 -57.5 1241 c 128,-1,20
 -35 1218 -35 1218 -35 1186 c 0,21,22
 -35 1153 -35 1153 -57.5 1130.5 c 128,-1,23
 -80 1108 -80 1108 -113 1108 c 0,24,25
 -145 1108 -145 1108 -167.5 1130.5 c 128,-1,26
 -190 1153 -190 1153 -190 1186 c 0,27,16
 -190 1218 -190 1218 -167.5 1241 c 128,-1,17
EndSplineSet
Ligature: 0 0 'abvs' u0A47 u0A02
EndChar
StartChar: u0A48_u0A02.abvs
Encoding: 65548 -1 147
Width: 0
GlyphClass: 4
Flags: W
AnchorPoint: "Anchor-0" -190 857 mark 0
Fore
-683 1278 m 128,-1,1
 -647 1298 -647 1298 -598 1298 c 0,2,3
 -485 1298 -485 1298 -367 1190.5 c 128,-1,4
 -249 1083 -249 1083 -165 900 c 1,5,-1
 -217 900 l 1,6,7
 -258 941 -258 941 -314 964 c 128,-1,8
 -370 987 -370 987 -433 987 c 0,9,10
 -467 987 -467 987 -532.5 965.5 c 128,-1,11
 -598 944 -598 944 -633 944 c 0,12,13
 -662 944 -662 944 -682 959.5 c 128,-1,14
 -702 975 -702 975 -702 996 c 0,15,16
 -702 1025 -702 1025 -658.5 1045 c 128,-1,17
 -615 1065 -615 1065 -554 1065 c 0,18,19
 -459 1065 -459 1065 -371.5 1031 c 128,-1,20
 -284 997 -284 997 -217 935 c 1,21,22
 -289 1060 -289 1060 -372 1132 c 128,-1,23
 -455 1204 -455 1204 -529 1204 c 0,24,25
 -547 1204 -547 1204 -584.5 1195 c 128,-1,26
 -622 1186 -622 1186 -640 1186 c 0,27,28
 -674 1186 -674 1186 -696.5 1199 c 128,-1,29
 -719 1212 -719 1212 -719 1229 c 0,30,0
 -719 1258 -719 1258 -683 1278 c 128,-1,1
-159.5 1198.5 m 128,-1,32
 -137 1221 -137 1221 -104 1221 c 256,33,34
 -71 1221 -71 1221 -49 1198.5 c 128,-1,35
 -27 1176 -27 1176 -27 1143 c 0,36,37
 -27 1111 -27 1111 -49 1088 c 128,-1,38
 -71 1065 -71 1065 -104 1065 c 256,39,40
 -137 1065 -137 1065 -159.5 1088 c 128,-1,41
 -182 1111 -182 1111 -182 1143 c 0,42,31
 -182 1176 -182 1176 -159.5 1198.5 c 128,-1,32
EndSplineSet
Ligature: 0 0 'abvs' u0A48 u0A02
EndChar
StartChar: u0A4B_u0A02.abvs
Encoding: 65549 -1 148
Width: 0
GlyphClass: 4
Flags: W
AnchorPoint: "Anchor-0" -197 874 mark 0
Fore
-650 1204 m 1,0,1
 -640 1158 -640 1158 -609 1129 c 128,-1,2
 -578 1100 -578 1100 -537 1100 c 0,3,4
 -499 1100 -499 1100 -424.5 1121.5 c 128,-1,5
 -350 1143 -350 1143 -312 1143 c 0,6,7
 -258 1143 -258 1143 -220 1075 c 128,-1,8
 -182 1007 -182 1007 -182 909 c 1,9,-1
 -217 909 l 1,10,11
 -217 959 -217 959 -241.5 995 c 128,-1,12
 -266 1031 -266 1031 -304 1031 c 0,13,14
 -345 1031 -345 1031 -424 1013.5 c 128,-1,15
 -503 996 -503 996 -546 996 c 0,16,17
 -603 996 -603 996 -643.5 1056.5 c 128,-1,18
 -684 1117 -684 1117 -684 1204 c 1,19,-1
 -650 1204 l 1,0,1
-125.5 1198.5 m 128,-1,21
 -103 1221 -103 1221 -69 1221 c 0,22,23
 -36 1221 -36 1221 -13.5 1198.5 c 128,-1,24
 9 1176 9 1176 9 1143 c 0,25,26
 9 1111 9 1111 -13.5 1088 c 128,-1,27
 -36 1065 -36 1065 -69 1065 c 0,28,29
 -103 1065 -103 1065 -125.5 1088 c 128,-1,30
 -148 1111 -148 1111 -148 1143 c 0,31,20
 -148 1176 -148 1176 -125.5 1198.5 c 128,-1,21
EndSplineSet
Ligature: 0 0 'abvs' u0A4B u0A02
EndChar
StartChar: u0A4C_u0A02.abvs
Encoding: 65550 -1 149
Width: 0
GlyphClass: 2
Flags: W
Fore
-351 1101.5 m 128,-1,1
 -346 1119 -346 1119 -338 1135 c 1,2,-1
 -425 1135 l 2,3,4
 -473 1135 -473 1135 -512 1178.5 c 128,-1,5
 -551 1222 -551 1222 -563 1290 c 1,6,-1
 -538 1298 l 1,7,8
 -523 1264 -523 1264 -492 1242.5 c 128,-1,9
 -461 1221 -461 1221 -425 1221 c 2,10,-1
 -200 1221 l 2,11,12
 -142 1221 -142 1221 -101.5 1175 c 128,-1,13
 -61 1129 -61 1129 -61 1065 c 0,14,15
 -61 1009 -61 1009 -90.5 968 c 128,-1,16
 -120 927 -120 927 -165 917 c 1,17,-1
 -165 952 l 1,18,19
 -140 961 -140 961 -126.5 984.5 c 128,-1,20
 -113 1008 -113 1008 -113 1039 c 0,21,22
 -113 1079 -113 1079 -137.5 1107 c 128,-1,23
 -162 1135 -162 1135 -200 1135 c 0,24,25
 -236 1135 -236 1135 -261 1107 c 128,-1,26
 -286 1079 -286 1079 -286 1039 c 0,27,28
 -286 1008 -286 1008 -272 984.5 c 128,-1,29
 -258 961 -258 961 -234 952 c 1,30,-1
 -234 917 l 1,31,32
 -286 927 -286 927 -321 968 c 128,-1,33
 -356 1009 -356 1009 -356 1065 c 0,34,0
 -356 1084 -356 1084 -351 1101.5 c 128,-1,1
-4 1258.5 m 128,-1,36
 19 1281 19 1281 52 1281 c 256,37,38
 85 1281 85 1281 107.5 1258.5 c 128,-1,39
 130 1236 130 1236 130 1204 c 0,40,41
 130 1170 130 1170 107.5 1147.5 c 128,-1,42
 85 1125 85 1125 52 1125 c 256,43,44
 19 1125 19 1125 -4 1147.5 c 128,-1,45
 -27 1170 -27 1170 -27 1204 c 0,46,35
 -27 1236 -27 1236 -4 1258.5 c 128,-1,36
EndSplineSet
Ligature: 0 0 'abvs' u0A4C u0A02
EndChar
StartChar: u0A40_u0A02.abvs
Encoding: 65551 -1 150
Width: 398
GlyphClass: 2
Flags: W
Fore
308 1241 m 128,-1,1
 330 1264 330 1264 364 1264 c 0,2,3
 397 1264 397 1264 419.5 1241 c 128,-1,4
 442 1218 442 1218 442 1186 c 0,5,6
 442 1153 442 1153 419.5 1130.5 c 128,-1,7
 397 1108 397 1108 364 1108 c 0,8,9
 330 1108 330 1108 308 1130.5 c 128,-1,10
 286 1153 286 1153 286 1186 c 0,11,0
 286 1218 286 1218 308 1241 c 128,-1,1
-171 1158.5 m 128,-1,13
 -100 1229 -100 1229 0 1229 c 256,14,15
 100 1229 100 1229 171 1158.5 c 128,-1,16
 242 1088 242 1088 242 987 c 2,17,-1
 242 866 l 1,18,-1
 415 866 l 1,19,-1
 415 779 l 1,20,-1
 242 779 l 1,21,-1
 242 0 l 1,22,-1
 156 0 l 1,23,-1
 156 779 l 1,24,-1
 -17 779 l 1,25,-1
 -17 866 l 1,26,-1
 156 866 l 1,27,-1
 156 987 l 2,28,29
 156 1051 156 1051 110 1097 c 128,-1,30
 64 1143 64 1143 0 1143 c 256,31,32
 -64 1143 -64 1143 -110 1097 c 128,-1,33
 -156 1051 -156 1051 -156 987 c 2,34,-1
 -156 883 l 1,35,-1
 -242 883 l 1,36,-1
 -242 987 l 2,37,12
 -242 1088 -242 1088 -171 1158.5 c 128,-1,13
EndSplineSet
Ligature: 0 0 'abvs' u0A40 u0A02
EndChar
StartChar: glyph147
Encoding: 65552 -1 151
Width: 342
GlyphClass: 2
Flags: W
Fore
342 866 m 1,0,-1
 342 779 l 1,1,-1
 4 779 l 1,2,-1
 4 866 l 1,3,-1
 342 866 l 1,0,-1
105.5 1198.5 m 128,-1,5
 128 1221 128 1221 161 1221 c 256,6,7
 194 1221 194 1221 216 1198.5 c 128,-1,8
 238 1176 238 1176 238 1143 c 0,9,10
 238 1111 238 1111 216 1088 c 128,-1,11
 194 1065 194 1065 161 1065 c 256,12,13
 128 1065 128 1065 105.5 1088 c 128,-1,14
 83 1111 83 1111 83 1143 c 0,15,4
 83 1176 83 1176 105.5 1198.5 c 128,-1,5
EndSplineSet
EndChar
StartChar: glyph148
Encoding: 65553 -1 152
Width: 515
GlyphClass: 2
Flags: W
Fore
57 1281 m 1,0,1
 57 1201 57 1201 117.5 1146 c 128,-1,2
 178 1091 178 1091 265 1091 c 256,3,4
 352 1091 352 1091 412.5 1146 c 128,-1,5
 473 1201 473 1201 473 1281 c 1,6,-1
 507 1281 l 1,7,8
 507 1166 507 1166 436 1085 c 128,-1,9
 365 1004 365 1004 265 1004 c 256,10,11
 165 1004 165 1004 94 1085 c 128,-1,12
 23 1166 23 1166 23 1281 c 1,13,-1
 57 1281 l 1,0,1
517 866 m 1,14,-1
 517 779 l 1,15,-1
 4 779 l 1,16,-1
 4 866 l 1,17,-1
 517 866 l 1,14,-1
EndSplineSet
EndChar
StartChar: glyph149
Encoding: 65554 -1 153
Width: 937
GlyphClass: 2
Flags: W
Fore
956 866 m 1,0,-1
 956 779 l 1,1,-1
 783 779 l 1,2,-1
 783 0 l 1,3,-1
 696 0 l 1,4,-1
 696 415 l 1,5,-1
 437 415 l 1,6,-1
 437 138 l 1,7,-1
 33 433 l 1,8,-1
 33 537 l 1,9,-1
 358 312 l 1,10,-1
 358 502 l 1,11,-1
 696 502 l 1,12,-1
 696 779 l 1,13,-1
 -17 779 l 1,14,-1
 -17 866 l 1,15,-1
 956 866 l 1,0,-1
EndSplineSet
Ligature: 0 0 'psts' u0A2F u0A4D
EndChar
